<?xml version="1.0" encoding="UTF-8"?>
<svg xmlns="http://www.w3.org/2000/svg" width="872" height="650" viewBox="0 0 872 650">
  <metadata><problem_id>S3_초등_3_008616</problem_id></metadata>
  <rect x="0" y="0" width="872" height="650" fill="#FFFFFF" />
  <rect id="slot.eq.box.rect" x="180" y="80" width="380" height="80" fill="#eef4d8" stroke="#75bd3a" stroke-width="2" />
  <path id="slot.left.bubble.path" d="M 81.0 251.0 C 81.0 221.48, 114.82 210.0, 170.0 210.0 C 225.18 210.0, 259.0 221.48, 259.0 251.0 C 259.0 280.52, 225.18 292.0, 170.0 292.0 C 114.82 292.0, 81.0 280.52, 81.0 251.0 Z" stroke="#222222" stroke-width="1.6" fill="#ffffff" />
  <polygon id="slot.left.tail.polygon" points="160,286 180,286 170,307" stroke="#222222" stroke-width="1.4" fill="#ffffff" />
  <polygon id="slot.left.person.body.polygon" points="142,435 198,435 188,399 152,399" stroke="none" stroke-width="2" fill="#f5ae12" />
  <circle id="slot.left.person.head.circle" cx="170" cy="362" r="28" stroke="none" stroke-width="2" fill="#ffd9ad" />
  <path id="slot.left.person.hair.cap.path" d="M 142.0 361.0 C 144.0 332.0, 195.0 327.0, 199.0 361.0 C 180.0 345.0, 158.0 352.0, 142.0 361.0 Z" stroke="none" stroke-width="2" fill="#c77816" />
  <circle id="slot.left.person.eye.left.circle" cx="160" cy="366" r="2.3" stroke="none" stroke-width="2" fill="#2b2118" />
  <circle id="slot.left.person.eye.right.circle" cx="180" cy="366" r="2.3" stroke="none" stroke-width="2" fill="#2b2118" />
  <path id="slot.left.person.smile.path" d="M 163.0 378.0 Q 170.0 384.0 177.0 378.0" stroke="#b86e39" stroke-width="1.3" fill="none" />
  <path id="slot.left.person.tail.left.path" d="M 143.0 359.0 C 118.0 363.0, 132.0 404.0, 120.0 410.0" stroke="#c77816" stroke-width="7" fill="none" />
  <path id="slot.left.person.tail.right.path" d="M 197.0 359.0 C 222.0 363.0, 208.0 404.0, 220.0 410.0" stroke="#c77816" stroke-width="7" fill="none" />
  <polygon id="slot.left.person.bow.left.polygon" points="163,405 144,397 156,418" stroke="none" stroke-width="2" fill="#ffffff" />
  <polygon id="slot.left.person.bow.right.polygon" points="177,405 196,397 184,418" stroke="none" stroke-width="2" fill="#ffffff" />
  <rect id="slot.name.left.box.rect" x="134.5" y="423" width="71" height="36" fill="#e9f7dd" stroke="#6fcf83" stroke-width="2" rx="9" ry="9" />
  <path id="slot.mid.bubble.path" d="M 322.0 250.0 C 322.0 220.48, 355.82 209.0, 411.0 209.0 C 466.18 209.0, 500.0 220.48, 500.0 250.0 C 500.0 279.52, 466.18 291.0, 411.0 291.0 C 355.82 291.0, 322.0 279.52, 322.0 250.0 Z" stroke="#222222" stroke-width="1.6" fill="#ffffff" />
  <polygon id="slot.mid.tail.polygon" points="401,285 421,285 411,305" stroke="#222222" stroke-width="1.4" fill="#ffffff" />
  <polygon id="slot.mid.person.body.polygon" points="383,434 439,434 429,398 393,398" stroke="none" stroke-width="2" fill="#f5ae12" />
  <circle id="slot.mid.person.head.circle" cx="411" cy="361" r="28" stroke="none" stroke-width="2" fill="#ffd9ad" />
  <path id="slot.mid.person.hair.cap.path" d="M 383.0 360.0 C 385.0 331.0, 436.0 326.0, 440.0 360.0 C 421.0 344.0, 399.0 351.0, 383.0 360.0 Z" stroke="none" stroke-width="2" fill="#4c3a25" />
  <circle id="slot.mid.person.eye.left.circle" cx="401" cy="365" r="2.3" stroke="none" stroke-width="2" fill="#2b2118" />
  <circle id="slot.mid.person.eye.right.circle" cx="421" cy="365" r="2.3" stroke="none" stroke-width="2" fill="#2b2118" />
  <path id="slot.mid.person.smile.path" d="M 404.0 377.0 Q 411.0 383.0 418.0 377.0" stroke="#b86e39" stroke-width="1.3" fill="none" />
  <polygon id="slot.mid.person.bow.left.polygon" points="404,404 385,396 397,417" stroke="none" stroke-width="2" fill="#5da6df" />
  <polygon id="slot.mid.person.bow.right.polygon" points="418,404 437,396 425,417" stroke="none" stroke-width="2" fill="#5da6df" />
  <rect id="slot.name.mid.box.rect" x="375" y="423" width="72" height="36" fill="#e9f7dd" stroke="#6fcf83" stroke-width="2" rx="9" ry="9" />
  <path id="slot.right.bubble.path" d="M 559.0 251.0 C 559.0 221.48, 593.2 210.0, 649.0 210.0 C 704.8 210.0, 739.0 221.48, 739.0 251.0 C 739.0 280.52, 704.8 292.0, 649.0 292.0 C 593.2 292.0, 559.0 280.52, 559.0 251.0 Z" stroke="#222222" stroke-width="1.6" fill="#ffffff" />
  <polygon id="slot.right.tail.polygon" points="639,286 659,286 649,307" stroke="#222222" stroke-width="1.4" fill="#ffffff" />
  <polygon id="slot.right.person.body.polygon" points="621,435 677,435 667,399 631,399" stroke="none" stroke-width="2" fill="#c9648f" />
  <circle id="slot.right.person.head.circle" cx="649" cy="362" r="28" stroke="none" stroke-width="2" fill="#ffd9ad" />
  <path id="slot.right.person.hair.cap.path" d="M 621.0 361.0 C 623.0 332.0, 674.0 327.0, 678.0 361.0 C 659.0 345.0, 637.0 352.0, 621.0 361.0 Z" stroke="none" stroke-width="2" fill="#9d4136" />
  <circle id="slot.right.person.eye.left.circle" cx="639" cy="366" r="2.3" stroke="none" stroke-width="2" fill="#2b2118" />
  <circle id="slot.right.person.eye.right.circle" cx="659" cy="366" r="2.3" stroke="none" stroke-width="2" fill="#2b2118" />
  <path id="slot.right.person.smile.path" d="M 642.0 378.0 Q 649.0 384.0 656.0 378.0" stroke="#b86e39" stroke-width="1.3" fill="none" />
  <polygon id="slot.right.person.bow.left.polygon" points="642,405 623,397 635,418" stroke="none" stroke-width="2" fill="#e33f83" />
  <polygon id="slot.right.person.bow.right.polygon" points="656,405 675,397 663,418" stroke="none" stroke-width="2" fill="#e33f83" />
  <rect id="slot.name.right.box.rect" x="614" y="423" width="70" height="36" fill="#e9f7dd" stroke="#6fcf83" stroke-width="2" rx="9" ry="9" />
  <text id="slot.q.text.text" x="85" y="50" max_width="744" fill="#111111" font-family="Noto Sans KR, sans-serif" font-size="25">문제를 바르게 설명한 사람이 누구인지 찾아 선택하세요.</text>
  <text id="slot.eq.text.text" x="270" y="130" max_width="744" fill="#111111" font-family="Noto Sans KR, sans-serif" font-size="25">99 ÷ 8 = □ ···· □</text>
  <text id="slot.left.text.text" x="170" y="242" max_width="744" fill="#111111" font-family="Noto Sans KR, sans-serif" font-size="24" text-anchor="middle">
    <tspan x="170" dy="0">몫이</tspan>
    <tspan x="170" dy="1.2em">10보다 작아.</tspan>
  </text>
  <text id="slot.name.left.text.text" x="170" y="449" max_width="744" fill="#111111" font-family="Noto Sans KR, sans-serif" font-size="25" text-anchor="middle">근희</text>
  <text id="slot.mid.text.text" x="411" y="241" max_width="744" fill="#111111" font-family="Noto Sans KR, sans-serif" font-size="24" text-anchor="middle">
    <tspan x="411" dy="0">나머지가 0으로</tspan>
    <tspan x="411" dy="1.2em">나누어떨어져.</tspan>
  </text>
  <text id="slot.name.mid.text.text" x="411" y="449" max_width="744" fill="#111111" font-family="Noto Sans KR, sans-serif" font-size="25" text-anchor="middle">영표</text>
  <text id="slot.right.text.text" x="649" y="242" max_width="744" fill="#111111" font-family="Noto Sans KR, sans-serif" font-size="24" text-anchor="middle">
    <tspan x="649" dy="0">나머지는</tspan>
    <tspan x="649" dy="1.2em">8보다 작아.</tspan>
  </text>
  <text id="slot.name.right.text.text" x="649" y="449" max_width="744" fill="#111111" font-family="Noto Sans KR, sans-serif" font-size="25" text-anchor="middle">슬기</text>
</svg>
