<?xml version="1.0" encoding="UTF-8"?>
<svg xmlns="http://www.w3.org/2000/svg" width="840" height="630" viewBox="0 0 840 630">
  <metadata><problem_id>S3_초등_3_008590</problem_id></metadata>
  <rect x="0" y="0" width="840" height="630" fill="#FFFFFF" />
  <rect id="slot.eq.bg.rect" x="270" y="70" width="390" height="80" fill="#ffffff" stroke="#111111" stroke-width="1.5" />
  <path id="slot.opt1.bubble.path" d="M 150.0 217.5 C 150.0 179.7, 177.55 165.0, 222.5 165.0 C 267.45 165.0, 295.0 179.7, 295.0 217.5 C 295.0 255.3, 267.45 270.0, 222.5 270.0 C 177.55 270.0, 150.0 255.3, 150.0 217.5 Z" stroke="#222222" stroke-width="1.6" fill="#ffffff" />
  <polygon id="slot.opt1.tail.polygon" points="212.5,264 232.5,264 222.5,270" stroke="#222222" stroke-width="1.4" fill="#ffffff" />
  <polygon id="slot.opt1.person.body.polygon" points="194.5,398 250.5,398 240.5,362 204.5,362" stroke="none" stroke-width="2" fill="#D7A0D7" />
  <circle id="slot.opt1.person.head.circle" cx="222.5" cy="325" r="28" stroke="none" stroke-width="2" fill="#ffd9ad" />
  <path id="slot.opt1.person.hair.cap.path" d="M 194.5 324.0 C 196.5 295.0, 247.5 290.0, 251.5 324.0 C 232.5 308.0, 210.5 315.0, 194.5 324.0 Z" stroke="none" stroke-width="2" fill="#4b1f16" />
  <circle id="slot.opt1.person.eye.left.circle" cx="212.5" cy="329" r="2.3" stroke="none" stroke-width="2" fill="#2b2118" />
  <circle id="slot.opt1.person.eye.right.circle" cx="232.5" cy="329" r="2.3" stroke="none" stroke-width="2" fill="#2b2118" />
  <path id="slot.opt1.person.smile.path" d="M 215.5 341.0 Q 222.5 347.0 229.5 341.0" stroke="#b86e39" stroke-width="1.3" fill="none" />
  <rect id="slot.name.opt1.box.rect" x="181.5" y="404" width="82" height="36" fill="#e9f7dd" stroke="#6fcf83" stroke-width="2" rx="9" ry="9" />
  <path id="slot.opt2.bubble.path" d="M 405.0 217.5 C 405.0 179.7, 432.55 165.0, 477.5 165.0 C 522.45 165.0, 550.0 179.7, 550.0 217.5 C 550.0 255.3, 522.45 270.0, 477.5 270.0 C 432.55 270.0, 405.0 255.3, 405.0 217.5 Z" stroke="#222222" stroke-width="1.6" fill="#ffffff" />
  <polygon id="slot.opt2.tail.polygon" points="467.5,264 487.5,264 477.5,270" stroke="#222222" stroke-width="1.4" fill="#ffffff" />
  <polygon id="slot.opt2.person.body.polygon" points="449.5,398 505.5,398 495.5,362 459.5,362" stroke="none" stroke-width="2" fill="#8ED7E6" />
  <circle id="slot.opt2.person.head.circle" cx="477.5" cy="325" r="28" stroke="none" stroke-width="2" fill="#ffd9ad" />
  <path id="slot.opt2.person.hair.cap.path" d="M 449.5 324.0 C 451.5 295.0, 502.5 290.0, 506.5 324.0 C 487.5 308.0, 465.5 315.0, 449.5 324.0 Z" stroke="none" stroke-width="2" fill="#1d1714" />
  <circle id="slot.opt2.person.eye.left.circle" cx="467.5" cy="329" r="2.3" stroke="none" stroke-width="2" fill="#2b2118" />
  <circle id="slot.opt2.person.eye.right.circle" cx="487.5" cy="329" r="2.3" stroke="none" stroke-width="2" fill="#2b2118" />
  <path id="slot.opt2.person.smile.path" d="M 470.5 341.0 Q 477.5 347.0 484.5 341.0" stroke="#b86e39" stroke-width="1.3" fill="none" />
  <rect id="slot.name.opt2.box.rect" x="436.5" y="404" width="82" height="36" fill="#e9f7dd" stroke="#6fcf83" stroke-width="2" rx="9" ry="9" />
  <path id="slot.opt3.bubble.path" d="M 642.5 217.5 C 642.5 179.7, 676.7 165.0, 732.5 165.0 C 788.3 165.0, 822.5 179.7, 822.5 217.5 C 822.5 255.3, 788.3 270.0, 732.5 270.0 C 676.7 270.0, 642.5 255.3, 642.5 217.5 Z" stroke="#222222" stroke-width="1.6" fill="#ffffff" />
  <polygon id="slot.opt3.tail.polygon" points="722.5,264 742.5,264 732.5,270" stroke="#222222" stroke-width="1.4" fill="#ffffff" />
  <polygon id="slot.opt3.person.body.polygon" points="704.5,398 760.5,398 750.5,362 714.5,362" stroke="none" stroke-width="2" fill="#F2C66D" />
  <circle id="slot.opt3.person.head.circle" cx="732.5" cy="325" r="28" stroke="none" stroke-width="2" fill="#ffd9ad" />
  <path id="slot.opt3.person.hair.cap.path" d="M 704.5 324.0 C 706.5 295.0, 757.5 290.0, 761.5 324.0 C 742.5 308.0, 720.5 315.0, 704.5 324.0 Z" stroke="none" stroke-width="2" fill="#5b3218" />
  <circle id="slot.opt3.person.eye.left.circle" cx="722.5" cy="329" r="2.3" stroke="none" stroke-width="2" fill="#2b2118" />
  <circle id="slot.opt3.person.eye.right.circle" cx="742.5" cy="329" r="2.3" stroke="none" stroke-width="2" fill="#2b2118" />
  <path id="slot.opt3.person.smile.path" d="M 725.5 341.0 Q 732.5 347.0 739.5 341.0" stroke="#b86e39" stroke-width="1.3" fill="none" />
  <rect id="slot.name.opt3.box.rect" x="691.5" y="404" width="82" height="36" fill="#e9f7dd" stroke="#6fcf83" stroke-width="2" rx="9" ry="9" />
  <text id="slot.q1.text" x="155" y="40" max_width="712" fill="#111111" font-family="Noto Sans KR, sans-serif" font-size="30">문제를 바르게 설명한 사람을 선택하세요.</text>
  <text id="slot.eq.text.text" x="355" y="120" max_width="712" fill="#111111" font-family="Noto Sans KR, sans-serif" font-size="30">68 ÷ 5 = □ ⦁⦁⦁ □</text>
  <text id="slot.opt1.text.text" x="222.5" y="208.5" max_width="712" fill="#111111" font-family="Noto Sans KR, sans-serif" font-size="28" text-anchor="middle">
    <tspan x="222.5" dy="0">몫은</tspan>
    <tspan x="222.5" dy="1.2em">13이야.</tspan>
  </text>
  <text id="slot.name.opt1.text.text" x="222.5" y="430" max_width="712" fill="#111111" font-family="Noto Sans KR, sans-serif" font-size="25" text-anchor="middle">형우</text>
  <text id="slot.opt2.text.text" x="477.5" y="212.5" max_width="712" fill="#111111" font-family="Noto Sans KR, sans-serif" font-size="24" text-anchor="middle">
    <tspan x="477.5" dy="0">나머지는</tspan>
    <tspan x="477.5" dy="1.2em">5보다 작아.</tspan>
  </text>
  <text id="slot.name.opt2.text.text" x="477.5" y="430" max_width="712" fill="#111111" font-family="Noto Sans KR, sans-serif" font-size="25" text-anchor="middle">희영</text>
  <text id="slot.opt3.text.text" x="732.5" y="212.5" max_width="712" fill="#111111" font-family="Noto Sans KR, sans-serif" font-size="24" text-anchor="middle">
    <tspan x="732.5" dy="0">나누어떨어지지</tspan>
    <tspan x="732.5" dy="1.2em">않아.</tspan>
  </text>
  <text id="slot.name.opt3.text.text" x="732.5" y="430" max_width="712" fill="#111111" font-family="Noto Sans KR, sans-serif" font-size="25" text-anchor="middle">성태</text>
</svg>
