<?xml version="1.0" encoding="UTF-8"?>
<svg xmlns="http://www.w3.org/2000/svg" width="720" height="590" viewBox="0 0 720 590">
  <metadata><problem_id>S3_초등_3_008631</problem_id></metadata>
  <rect x="0" y="0" width="720" height="590" fill="#FFFFFF" />
  <rect id="slot.inline_blank.rect" x="233" y="7" width="27" height="27" fill="none" stroke="#111111" stroke-width="1" />
  <text id="slot.question.prefix.text" x="62" y="29" max_width="592" fill="#111111" font-family="Noto Sans KR, sans-serif" font-size="25">수 모형을 보고</text>
  <text id="slot.question.suffix.text" x="269" y="29" max_width="592" fill="#111111" font-family="Noto Sans KR, sans-serif" font-size="25">안에 알맞은 수를 고르세요.</text>
  <rect id="slot.top.box.rect" x="190" y="55" width="245" height="125" fill="none" stroke="#1d6fa3" stroke-width="1.5" />
  <rect id="slot.figure.top.rod.1.front.rect" x="209" y="75.6" width="10.8" height="80" fill="#5cc6ee" stroke="#1d6fa3" stroke-width="1.2" />
  <polygon id="slot.figure.top.rod.1.top.polygon" points="209,75.6 212.6,72 223.4,72 219.8,75.6" stroke="#1d6fa3" stroke-width="1" fill="#94dcf6" />
  <polygon id="slot.figure.top.rod.1.side.polygon" points="219.8,75.6 223.4,72 223.4,152 219.8,155.6" stroke="#1d6fa3" stroke-width="1" fill="#35abd8" />
  <rect id="slot.figure.top.rod.2.front.rect" x="235" y="75.6" width="10.8" height="80" fill="#5cc6ee" stroke="#1d6fa3" stroke-width="1.2" />
  <polygon id="slot.figure.top.rod.2.top.polygon" points="235,75.6 238.6,72 249.4,72 245.8,75.6" stroke="#1d6fa3" stroke-width="1" fill="#94dcf6" />
  <polygon id="slot.figure.top.rod.2.side.polygon" points="245.8,75.6 249.4,72 249.4,152 245.8,155.6" stroke="#1d6fa3" stroke-width="1" fill="#35abd8" />
  <rect id="slot.figure.top.rod.3.front.rect" x="261" y="75.6" width="10.8" height="80" fill="#5cc6ee" stroke="#1d6fa3" stroke-width="1.2" />
  <polygon id="slot.figure.top.rod.3.top.polygon" points="261,75.6 264.6,72 275.40000000000003,72 271.8,75.6" stroke="#1d6fa3" stroke-width="1" fill="#94dcf6" />
  <polygon id="slot.figure.top.rod.3.side.polygon" points="271.8,75.6 275.40000000000003,72 275.40000000000003,152 271.8,155.6" stroke="#1d6fa3" stroke-width="1" fill="#35abd8" />
  <rect id="slot.figure.top.rod.4.front.rect" x="287" y="75.6" width="10.8" height="80" fill="#5cc6ee" stroke="#1d6fa3" stroke-width="1.2" />
  <polygon id="slot.figure.top.rod.4.top.polygon" points="287,75.6 290.6,72 301.40000000000003,72 297.8,75.6" stroke="#1d6fa3" stroke-width="1" fill="#94dcf6" />
  <polygon id="slot.figure.top.rod.4.side.polygon" points="297.8,75.6 301.40000000000003,72 301.40000000000003,152 297.8,155.6" stroke="#1d6fa3" stroke-width="1" fill="#35abd8" />
  <rect id="slot.figure.top.rod.5.front.rect" x="313" y="75.6" width="10.8" height="80" fill="#5cc6ee" stroke="#1d6fa3" stroke-width="1.2" />
  <polygon id="slot.figure.top.rod.5.top.polygon" points="313,75.6 316.6,72 327.40000000000003,72 323.8,75.6" stroke="#1d6fa3" stroke-width="1" fill="#94dcf6" />
  <polygon id="slot.figure.top.rod.5.side.polygon" points="323.8,75.6 327.40000000000003,72 327.40000000000003,152 323.8,155.6" stroke="#1d6fa3" stroke-width="1" fill="#35abd8" />
  <rect id="slot.figure.top.rod.6.front.rect" x="339" y="75.6" width="10.8" height="80" fill="#5cc6ee" stroke="#1d6fa3" stroke-width="1.2" />
  <polygon id="slot.figure.top.rod.6.top.polygon" points="339,75.6 342.6,72 353.40000000000003,72 349.8,75.6" stroke="#1d6fa3" stroke-width="1" fill="#94dcf6" />
  <polygon id="slot.figure.top.rod.6.side.polygon" points="349.8,75.6 353.40000000000003,72 353.40000000000003,152 349.8,155.6" stroke="#1d6fa3" stroke-width="1" fill="#35abd8" />
  <rect id="slot.figure.top.cube.1.front.rect" x="364" y="76.95" width="11" height="11" fill="#5cc6ee" stroke="#1d6fa3" stroke-width="1" />
  <polygon id="slot.figure.top.cube.1.top.polygon" points="364,76.95 368.95,72 379.95,72 375,76.95" stroke="#1d6fa3" stroke-width="0.9" fill="#94dcf6" />
  <polygon id="slot.figure.top.cube.1.side.polygon" points="375,76.95 379.95,72 379.95,83 375,87.95" stroke="#1d6fa3" stroke-width="0.9" fill="#35abd8" />
  <rect id="slot.figure.top.cube.2.front.rect" x="364" y="96.95" width="11" height="11" fill="#5cc6ee" stroke="#1d6fa3" stroke-width="1" />
  <polygon id="slot.figure.top.cube.2.top.polygon" points="364,96.95 368.95,92 379.95,92 375,96.95" stroke="#1d6fa3" stroke-width="0.9" fill="#94dcf6" />
  <polygon id="slot.figure.top.cube.2.side.polygon" points="375,96.95 379.95,92 379.95,103 375,107.95" stroke="#1d6fa3" stroke-width="0.9" fill="#35abd8" />
  <rect id="slot.figure.top.cube.3.front.rect" x="364" y="116.95" width="11" height="11" fill="#5cc6ee" stroke="#1d6fa3" stroke-width="1" />
  <polygon id="slot.figure.top.cube.3.top.polygon" points="364,116.95 368.95,112 379.95,112 375,116.95" stroke="#1d6fa3" stroke-width="0.9" fill="#94dcf6" />
  <polygon id="slot.figure.top.cube.3.side.polygon" points="375,116.95 379.95,112 379.95,123 375,127.95" stroke="#1d6fa3" stroke-width="0.9" fill="#35abd8" />
  <rect id="slot.figure.top.cube.4.front.rect" x="364" y="136.95" width="11" height="11" fill="#5cc6ee" stroke="#1d6fa3" stroke-width="1" />
  <polygon id="slot.figure.top.cube.4.top.polygon" points="364,136.95 368.95,132 379.95,132 375,136.95" stroke="#1d6fa3" stroke-width="0.9" fill="#94dcf6" />
  <polygon id="slot.figure.top.cube.4.side.polygon" points="375,136.95 379.95,132 379.95,143 375,147.95" stroke="#1d6fa3" stroke-width="0.9" fill="#35abd8" />
  <rect id="slot.figure.top.cube.5.front.rect" x="364" y="156.95" width="11" height="11" fill="#5cc6ee" stroke="#1d6fa3" stroke-width="1" />
  <polygon id="slot.figure.top.cube.5.top.polygon" points="364,156.95 368.95,152 379.95,152 375,156.95" stroke="#1d6fa3" stroke-width="0.9" fill="#94dcf6" />
  <polygon id="slot.figure.top.cube.5.side.polygon" points="375,156.95 379.95,152 379.95,163 375,167.95" stroke="#1d6fa3" stroke-width="0.9" fill="#35abd8" />
  <rect id="slot.figure.top.cube.6.front.rect" x="389" y="92.95" width="11" height="11" fill="#5cc6ee" stroke="#1d6fa3" stroke-width="1" />
  <polygon id="slot.figure.top.cube.6.top.polygon" points="389,92.95 393.95,88 404.95,88 400,92.95" stroke="#1d6fa3" stroke-width="0.9" fill="#94dcf6" />
  <polygon id="slot.figure.top.cube.6.side.polygon" points="400,92.95 404.95,88 404.95,99 400,103.95" stroke="#1d6fa3" stroke-width="0.9" fill="#35abd8" />
  <rect id="slot.figure.top.cube.7.front.rect" x="389" y="112.95" width="11" height="11" fill="#5cc6ee" stroke="#1d6fa3" stroke-width="1" />
  <polygon id="slot.figure.top.cube.7.top.polygon" points="389,112.95 393.95,108 404.95,108 400,112.95" stroke="#1d6fa3" stroke-width="0.9" fill="#94dcf6" />
  <polygon id="slot.figure.top.cube.7.side.polygon" points="400,112.95 404.95,108 404.95,119 400,123.95" stroke="#1d6fa3" stroke-width="0.9" fill="#35abd8" />
  <rect id="slot.figure.top.cube.8.front.rect" x="389" y="132.95" width="11" height="11" fill="#5cc6ee" stroke="#1d6fa3" stroke-width="1" />
  <polygon id="slot.figure.top.cube.8.top.polygon" points="389,132.95 393.95,128 404.95,128 400,132.95" stroke="#1d6fa3" stroke-width="0.9" fill="#94dcf6" />
  <polygon id="slot.figure.top.cube.8.side.polygon" points="400,132.95 404.95,128 404.95,139 400,143.95" stroke="#1d6fa3" stroke-width="0.9" fill="#35abd8" />
  <rect id="slot.figure.top.cube.9.front.rect" x="389" y="152.95" width="11" height="11" fill="#5cc6ee" stroke="#1d6fa3" stroke-width="1" />
  <polygon id="slot.figure.top.cube.9.top.polygon" points="389,152.95 393.95,148 404.95,148 400,152.95" stroke="#1d6fa3" stroke-width="0.9" fill="#94dcf6" />
  <polygon id="slot.figure.top.cube.9.side.polygon" points="400,152.95 404.95,148 404.95,159 400,163.95" stroke="#1d6fa3" stroke-width="0.9" fill="#35abd8" />
  <polygon id="slot.arrow.head.polygon" points="300.9399108886719,200.32200622558594 326.9399108886719,200.32200622558594 313.9399108886719,215.32200622558594" stroke="#8a8a8a" stroke-width="1" fill="#8a8a8a" />
  <rect id="slot.figure.group1.box.rect" x="135" y="230" width="98" height="126" fill="none" stroke="#1d6fa3" stroke-width="1.5" />
  <rect id="slot.figure.group1.rod.1.front.rect" x="153" y="245.825" width="11.475000000000001" height="85" fill="#5cc6ee" stroke="#1d6fa3" stroke-width="1.2" />
  <polygon id="slot.figure.group1.rod.1.top.polygon" points="153,245.825 156.825,242 168.29999999999998,242 164.475,245.825" stroke="#1d6fa3" stroke-width="1" fill="#94dcf6" />
  <polygon id="slot.figure.group1.rod.1.side.polygon" points="164.475,245.825 168.29999999999998,242 168.29999999999998,327 164.475,330.825" stroke="#1d6fa3" stroke-width="1" fill="#35abd8" />
  <rect id="slot.figure.group1.rod.2.front.rect" x="178" y="245.825" width="11.475000000000001" height="85" fill="#5cc6ee" stroke="#1d6fa3" stroke-width="1.2" />
  <polygon id="slot.figure.group1.rod.2.top.polygon" points="178,245.825 181.825,242 193.29999999999998,242 189.475,245.825" stroke="#1d6fa3" stroke-width="1" fill="#94dcf6" />
  <polygon id="slot.figure.group1.rod.2.side.polygon" points="189.475,245.825 193.29999999999998,242 193.29999999999998,327 189.475,330.825" stroke="#1d6fa3" stroke-width="1" fill="#35abd8" />
  <rect id="slot.figure.group1.cube.1.front.rect" x="209" y="246.95" width="11" height="11" fill="#5cc6ee" stroke="#1d6fa3" stroke-width="1" />
  <polygon id="slot.figure.group1.cube.1.top.polygon" points="209,246.95 213.95,242 224.95,242 220,246.95" stroke="#1d6fa3" stroke-width="0.9" fill="#94dcf6" />
  <polygon id="slot.figure.group1.cube.1.side.polygon" points="220,246.95 224.95,242 224.95,253 220,257.95" stroke="#1d6fa3" stroke-width="0.9" fill="#35abd8" />
  <rect id="slot.figure.group1.cube.2.front.rect" x="209" y="267.95" width="11" height="11" fill="#5cc6ee" stroke="#1d6fa3" stroke-width="1" />
  <polygon id="slot.figure.group1.cube.2.top.polygon" points="209,267.95 213.95,263 224.95,263 220,267.95" stroke="#1d6fa3" stroke-width="0.9" fill="#94dcf6" />
  <polygon id="slot.figure.group1.cube.2.side.polygon" points="220,267.95 224.95,263 224.95,274 220,278.95" stroke="#1d6fa3" stroke-width="0.9" fill="#35abd8" />
  <rect id="slot.figure.group1.cube.3.front.rect" x="209" y="288.95" width="11" height="11" fill="#5cc6ee" stroke="#1d6fa3" stroke-width="1" />
  <polygon id="slot.figure.group1.cube.3.top.polygon" points="209,288.95 213.95,284 224.95,284 220,288.95" stroke="#1d6fa3" stroke-width="0.9" fill="#94dcf6" />
  <polygon id="slot.figure.group1.cube.3.side.polygon" points="220,288.95 224.95,284 224.95,295 220,299.95" stroke="#1d6fa3" stroke-width="0.9" fill="#35abd8" />
  <rect id="slot.figure.group2.box.rect" x="275" y="230" width="98" height="126" fill="none" stroke="#1d6fa3" stroke-width="1.5" />
  <rect id="slot.figure.group2.rod.1.front.rect" x="293" y="245.825" width="11.475000000000001" height="85" fill="#5cc6ee" stroke="#1d6fa3" stroke-width="1.2" />
  <polygon id="slot.figure.group2.rod.1.top.polygon" points="293,245.825 296.825,242 308.3,242 304.475,245.825" stroke="#1d6fa3" stroke-width="1" fill="#94dcf6" />
  <polygon id="slot.figure.group2.rod.1.side.polygon" points="304.475,245.825 308.3,242 308.3,327 304.475,330.825" stroke="#1d6fa3" stroke-width="1" fill="#35abd8" />
  <rect id="slot.figure.group2.rod.2.front.rect" x="318" y="245.825" width="11.475000000000001" height="85" fill="#5cc6ee" stroke="#1d6fa3" stroke-width="1.2" />
  <polygon id="slot.figure.group2.rod.2.top.polygon" points="318,245.825 321.825,242 333.3,242 329.475,245.825" stroke="#1d6fa3" stroke-width="1" fill="#94dcf6" />
  <polygon id="slot.figure.group2.rod.2.side.polygon" points="329.475,245.825 333.3,242 333.3,327 329.475,330.825" stroke="#1d6fa3" stroke-width="1" fill="#35abd8" />
  <rect id="slot.figure.group2.cube.1.front.rect" x="349" y="246.95" width="11" height="11" fill="#5cc6ee" stroke="#1d6fa3" stroke-width="1" />
  <polygon id="slot.figure.group2.cube.1.top.polygon" points="349,246.95 353.95,242 364.95,242 360,246.95" stroke="#1d6fa3" stroke-width="0.9" fill="#94dcf6" />
  <polygon id="slot.figure.group2.cube.1.side.polygon" points="360,246.95 364.95,242 364.95,253 360,257.95" stroke="#1d6fa3" stroke-width="0.9" fill="#35abd8" />
  <rect id="slot.figure.group2.cube.2.front.rect" x="349" y="267.95" width="11" height="11" fill="#5cc6ee" stroke="#1d6fa3" stroke-width="1" />
  <polygon id="slot.figure.group2.cube.2.top.polygon" points="349,267.95 353.95,263 364.95,263 360,267.95" stroke="#1d6fa3" stroke-width="0.9" fill="#94dcf6" />
  <polygon id="slot.figure.group2.cube.2.side.polygon" points="360,267.95 364.95,263 364.95,274 360,278.95" stroke="#1d6fa3" stroke-width="0.9" fill="#35abd8" />
  <rect id="slot.figure.group2.cube.3.front.rect" x="349" y="288.95" width="11" height="11" fill="#5cc6ee" stroke="#1d6fa3" stroke-width="1" />
  <polygon id="slot.figure.group2.cube.3.top.polygon" points="349,288.95 353.95,284 364.95,284 360,288.95" stroke="#1d6fa3" stroke-width="0.9" fill="#94dcf6" />
  <polygon id="slot.figure.group2.cube.3.side.polygon" points="360,288.95 364.95,284 364.95,295 360,299.95" stroke="#1d6fa3" stroke-width="0.9" fill="#35abd8" />
  <rect id="slot.figure.group3.box.rect" x="420" y="230" width="98" height="126" fill="none" stroke="#1d6fa3" stroke-width="1.5" />
  <rect id="slot.figure.group3.rod.1.front.rect" x="438" y="245.825" width="11.475000000000001" height="85" fill="#5cc6ee" stroke="#1d6fa3" stroke-width="1.2" />
  <polygon id="slot.figure.group3.rod.1.top.polygon" points="438,245.825 441.825,242 453.3,242 449.475,245.825" stroke="#1d6fa3" stroke-width="1" fill="#94dcf6" />
  <polygon id="slot.figure.group3.rod.1.side.polygon" points="449.475,245.825 453.3,242 453.3,327 449.475,330.825" stroke="#1d6fa3" stroke-width="1" fill="#35abd8" />
  <rect id="slot.figure.group3.rod.2.front.rect" x="463" y="245.825" width="11.475000000000001" height="85" fill="#5cc6ee" stroke="#1d6fa3" stroke-width="1.2" />
  <polygon id="slot.figure.group3.rod.2.top.polygon" points="463,245.825 466.825,242 478.3,242 474.475,245.825" stroke="#1d6fa3" stroke-width="1" fill="#94dcf6" />
  <polygon id="slot.figure.group3.rod.2.side.polygon" points="474.475,245.825 478.3,242 478.3,327 474.475,330.825" stroke="#1d6fa3" stroke-width="1" fill="#35abd8" />
  <rect id="slot.figure.group3.cube.1.front.rect" x="494" y="246.95" width="11" height="11" fill="#5cc6ee" stroke="#1d6fa3" stroke-width="1" />
  <polygon id="slot.figure.group3.cube.1.top.polygon" points="494,246.95 498.95,242 509.95,242 505,246.95" stroke="#1d6fa3" stroke-width="0.9" fill="#94dcf6" />
  <polygon id="slot.figure.group3.cube.1.side.polygon" points="505,246.95 509.95,242 509.95,253 505,257.95" stroke="#1d6fa3" stroke-width="0.9" fill="#35abd8" />
  <rect id="slot.figure.group3.cube.2.front.rect" x="494" y="267.95" width="11" height="11" fill="#5cc6ee" stroke="#1d6fa3" stroke-width="1" />
  <polygon id="slot.figure.group3.cube.2.top.polygon" points="494,267.95 498.95,263 509.95,263 505,267.95" stroke="#1d6fa3" stroke-width="0.9" fill="#94dcf6" />
  <polygon id="slot.figure.group3.cube.2.side.polygon" points="505,267.95 509.95,263 509.95,274 505,278.95" stroke="#1d6fa3" stroke-width="0.9" fill="#35abd8" />
  <rect id="slot.figure.group3.cube.3.front.rect" x="494" y="288.95" width="11" height="11" fill="#5cc6ee" stroke="#1d6fa3" stroke-width="1" />
  <polygon id="slot.figure.group3.cube.3.top.polygon" points="494,288.95 498.95,284 509.95,284 505,288.95" stroke="#1d6fa3" stroke-width="0.9" fill="#94dcf6" />
  <polygon id="slot.figure.group3.cube.3.side.polygon" points="505,288.95 509.95,284 509.95,295 505,299.95" stroke="#1d6fa3" stroke-width="0.9" fill="#35abd8" />
  <rect id="slot.blank.rect" x="360" y="390" width="25" height="25" fill="none" stroke="#111111" stroke-width="1.2" />
  <line id="slot.figure.top.rod.1.cell.1.line" x1="209" y1="83.6" x2="219.8" y2="83.6" stroke="#1d6fa3" stroke-width="0.7" />
  <line id="slot.figure.top.rod.1.cell.2.line" x1="209" y1="91.6" x2="219.8" y2="91.6" stroke="#1d6fa3" stroke-width="0.7" />
  <line id="slot.figure.top.rod.1.cell.3.line" x1="209" y1="99.6" x2="219.8" y2="99.6" stroke="#1d6fa3" stroke-width="0.7" />
  <line id="slot.figure.top.rod.1.cell.4.line" x1="209" y1="107.6" x2="219.8" y2="107.6" stroke="#1d6fa3" stroke-width="0.7" />
  <line id="slot.figure.top.rod.1.cell.5.line" x1="209" y1="115.6" x2="219.8" y2="115.6" stroke="#1d6fa3" stroke-width="0.7" />
  <line id="slot.figure.top.rod.1.cell.6.line" x1="209" y1="123.6" x2="219.8" y2="123.6" stroke="#1d6fa3" stroke-width="0.7" />
  <line id="slot.figure.top.rod.1.cell.7.line" x1="209" y1="131.6" x2="219.8" y2="131.6" stroke="#1d6fa3" stroke-width="0.7" />
  <line id="slot.figure.top.rod.1.cell.8.line" x1="209" y1="139.6" x2="219.8" y2="139.6" stroke="#1d6fa3" stroke-width="0.7" />
  <line id="slot.figure.top.rod.1.cell.9.line" x1="209" y1="147.6" x2="219.8" y2="147.6" stroke="#1d6fa3" stroke-width="0.7" />
  <line id="slot.figure.top.rod.2.cell.1.line" x1="235" y1="83.6" x2="245.8" y2="83.6" stroke="#1d6fa3" stroke-width="0.7" />
  <line id="slot.figure.top.rod.2.cell.2.line" x1="235" y1="91.6" x2="245.8" y2="91.6" stroke="#1d6fa3" stroke-width="0.7" />
  <line id="slot.figure.top.rod.2.cell.3.line" x1="235" y1="99.6" x2="245.8" y2="99.6" stroke="#1d6fa3" stroke-width="0.7" />
  <line id="slot.figure.top.rod.2.cell.4.line" x1="235" y1="107.6" x2="245.8" y2="107.6" stroke="#1d6fa3" stroke-width="0.7" />
  <line id="slot.figure.top.rod.2.cell.5.line" x1="235" y1="115.6" x2="245.8" y2="115.6" stroke="#1d6fa3" stroke-width="0.7" />
  <line id="slot.figure.top.rod.2.cell.6.line" x1="235" y1="123.6" x2="245.8" y2="123.6" stroke="#1d6fa3" stroke-width="0.7" />
  <line id="slot.figure.top.rod.2.cell.7.line" x1="235" y1="131.6" x2="245.8" y2="131.6" stroke="#1d6fa3" stroke-width="0.7" />
  <line id="slot.figure.top.rod.2.cell.8.line" x1="235" y1="139.6" x2="245.8" y2="139.6" stroke="#1d6fa3" stroke-width="0.7" />
  <line id="slot.figure.top.rod.2.cell.9.line" x1="235" y1="147.6" x2="245.8" y2="147.6" stroke="#1d6fa3" stroke-width="0.7" />
  <line id="slot.figure.top.rod.3.cell.1.line" x1="261" y1="83.6" x2="271.8" y2="83.6" stroke="#1d6fa3" stroke-width="0.7" />
  <line id="slot.figure.top.rod.3.cell.2.line" x1="261" y1="91.6" x2="271.8" y2="91.6" stroke="#1d6fa3" stroke-width="0.7" />
  <line id="slot.figure.top.rod.3.cell.3.line" x1="261" y1="99.6" x2="271.8" y2="99.6" stroke="#1d6fa3" stroke-width="0.7" />
  <line id="slot.figure.top.rod.3.cell.4.line" x1="261" y1="107.6" x2="271.8" y2="107.6" stroke="#1d6fa3" stroke-width="0.7" />
  <line id="slot.figure.top.rod.3.cell.5.line" x1="261" y1="115.6" x2="271.8" y2="115.6" stroke="#1d6fa3" stroke-width="0.7" />
  <line id="slot.figure.top.rod.3.cell.6.line" x1="261" y1="123.6" x2="271.8" y2="123.6" stroke="#1d6fa3" stroke-width="0.7" />
  <line id="slot.figure.top.rod.3.cell.7.line" x1="261" y1="131.6" x2="271.8" y2="131.6" stroke="#1d6fa3" stroke-width="0.7" />
  <line id="slot.figure.top.rod.3.cell.8.line" x1="261" y1="139.6" x2="271.8" y2="139.6" stroke="#1d6fa3" stroke-width="0.7" />
  <line id="slot.figure.top.rod.3.cell.9.line" x1="261" y1="147.6" x2="271.8" y2="147.6" stroke="#1d6fa3" stroke-width="0.7" />
  <line id="slot.figure.top.rod.4.cell.1.line" x1="287" y1="83.6" x2="297.8" y2="83.6" stroke="#1d6fa3" stroke-width="0.7" />
  <line id="slot.figure.top.rod.4.cell.2.line" x1="287" y1="91.6" x2="297.8" y2="91.6" stroke="#1d6fa3" stroke-width="0.7" />
  <line id="slot.figure.top.rod.4.cell.3.line" x1="287" y1="99.6" x2="297.8" y2="99.6" stroke="#1d6fa3" stroke-width="0.7" />
  <line id="slot.figure.top.rod.4.cell.4.line" x1="287" y1="107.6" x2="297.8" y2="107.6" stroke="#1d6fa3" stroke-width="0.7" />
  <line id="slot.figure.top.rod.4.cell.5.line" x1="287" y1="115.6" x2="297.8" y2="115.6" stroke="#1d6fa3" stroke-width="0.7" />
  <line id="slot.figure.top.rod.4.cell.6.line" x1="287" y1="123.6" x2="297.8" y2="123.6" stroke="#1d6fa3" stroke-width="0.7" />
  <line id="slot.figure.top.rod.4.cell.7.line" x1="287" y1="131.6" x2="297.8" y2="131.6" stroke="#1d6fa3" stroke-width="0.7" />
  <line id="slot.figure.top.rod.4.cell.8.line" x1="287" y1="139.6" x2="297.8" y2="139.6" stroke="#1d6fa3" stroke-width="0.7" />
  <line id="slot.figure.top.rod.4.cell.9.line" x1="287" y1="147.6" x2="297.8" y2="147.6" stroke="#1d6fa3" stroke-width="0.7" />
  <line id="slot.figure.top.rod.5.cell.1.line" x1="313" y1="83.6" x2="323.8" y2="83.6" stroke="#1d6fa3" stroke-width="0.7" />
  <line id="slot.figure.top.rod.5.cell.2.line" x1="313" y1="91.6" x2="323.8" y2="91.6" stroke="#1d6fa3" stroke-width="0.7" />
  <line id="slot.figure.top.rod.5.cell.3.line" x1="313" y1="99.6" x2="323.8" y2="99.6" stroke="#1d6fa3" stroke-width="0.7" />
  <line id="slot.figure.top.rod.5.cell.4.line" x1="313" y1="107.6" x2="323.8" y2="107.6" stroke="#1d6fa3" stroke-width="0.7" />
  <line id="slot.figure.top.rod.5.cell.5.line" x1="313" y1="115.6" x2="323.8" y2="115.6" stroke="#1d6fa3" stroke-width="0.7" />
  <line id="slot.figure.top.rod.5.cell.6.line" x1="313" y1="123.6" x2="323.8" y2="123.6" stroke="#1d6fa3" stroke-width="0.7" />
  <line id="slot.figure.top.rod.5.cell.7.line" x1="313" y1="131.6" x2="323.8" y2="131.6" stroke="#1d6fa3" stroke-width="0.7" />
  <line id="slot.figure.top.rod.5.cell.8.line" x1="313" y1="139.6" x2="323.8" y2="139.6" stroke="#1d6fa3" stroke-width="0.7" />
  <line id="slot.figure.top.rod.5.cell.9.line" x1="313" y1="147.6" x2="323.8" y2="147.6" stroke="#1d6fa3" stroke-width="0.7" />
  <line id="slot.figure.top.rod.6.cell.1.line" x1="339" y1="83.6" x2="349.8" y2="83.6" stroke="#1d6fa3" stroke-width="0.7" />
  <line id="slot.figure.top.rod.6.cell.2.line" x1="339" y1="91.6" x2="349.8" y2="91.6" stroke="#1d6fa3" stroke-width="0.7" />
  <line id="slot.figure.top.rod.6.cell.3.line" x1="339" y1="99.6" x2="349.8" y2="99.6" stroke="#1d6fa3" stroke-width="0.7" />
  <line id="slot.figure.top.rod.6.cell.4.line" x1="339" y1="107.6" x2="349.8" y2="107.6" stroke="#1d6fa3" stroke-width="0.7" />
  <line id="slot.figure.top.rod.6.cell.5.line" x1="339" y1="115.6" x2="349.8" y2="115.6" stroke="#1d6fa3" stroke-width="0.7" />
  <line id="slot.figure.top.rod.6.cell.6.line" x1="339" y1="123.6" x2="349.8" y2="123.6" stroke="#1d6fa3" stroke-width="0.7" />
  <line id="slot.figure.top.rod.6.cell.7.line" x1="339" y1="131.6" x2="349.8" y2="131.6" stroke="#1d6fa3" stroke-width="0.7" />
  <line id="slot.figure.top.rod.6.cell.8.line" x1="339" y1="139.6" x2="349.8" y2="139.6" stroke="#1d6fa3" stroke-width="0.7" />
  <line id="slot.figure.top.rod.6.cell.9.line" x1="339" y1="147.6" x2="349.8" y2="147.6" stroke="#1d6fa3" stroke-width="0.7" />
  <line id="slot.arrow.stem.line" x1="315" y1="185" x2="315" y2="210" stroke="#8a8a8a" stroke-width="10" />
  <line id="slot.figure.group1.rod.1.cell.1.line" x1="153" y1="254.325" x2="164.475" y2="254.325" stroke="#1d6fa3" stroke-width="0.7" />
  <line id="slot.figure.group1.rod.1.cell.2.line" x1="153" y1="262.825" x2="164.475" y2="262.825" stroke="#1d6fa3" stroke-width="0.7" />
  <line id="slot.figure.group1.rod.1.cell.3.line" x1="153" y1="271.325" x2="164.475" y2="271.325" stroke="#1d6fa3" stroke-width="0.7" />
  <line id="slot.figure.group1.rod.1.cell.4.line" x1="153" y1="279.825" x2="164.475" y2="279.825" stroke="#1d6fa3" stroke-width="0.7" />
  <line id="slot.figure.group1.rod.1.cell.5.line" x1="153" y1="288.325" x2="164.475" y2="288.325" stroke="#1d6fa3" stroke-width="0.7" />
  <line id="slot.figure.group1.rod.1.cell.6.line" x1="153" y1="296.825" x2="164.475" y2="296.825" stroke="#1d6fa3" stroke-width="0.7" />
  <line id="slot.figure.group1.rod.1.cell.7.line" x1="153" y1="305.325" x2="164.475" y2="305.325" stroke="#1d6fa3" stroke-width="0.7" />
  <line id="slot.figure.group1.rod.1.cell.8.line" x1="153" y1="313.825" x2="164.475" y2="313.825" stroke="#1d6fa3" stroke-width="0.7" />
  <line id="slot.figure.group1.rod.1.cell.9.line" x1="153" y1="322.325" x2="164.475" y2="322.325" stroke="#1d6fa3" stroke-width="0.7" />
  <line id="slot.figure.group1.rod.2.cell.1.line" x1="178" y1="254.325" x2="189.475" y2="254.325" stroke="#1d6fa3" stroke-width="0.7" />
  <line id="slot.figure.group1.rod.2.cell.2.line" x1="178" y1="262.825" x2="189.475" y2="262.825" stroke="#1d6fa3" stroke-width="0.7" />
  <line id="slot.figure.group1.rod.2.cell.3.line" x1="178" y1="271.325" x2="189.475" y2="271.325" stroke="#1d6fa3" stroke-width="0.7" />
  <line id="slot.figure.group1.rod.2.cell.4.line" x1="178" y1="279.825" x2="189.475" y2="279.825" stroke="#1d6fa3" stroke-width="0.7" />
  <line id="slot.figure.group1.rod.2.cell.5.line" x1="178" y1="288.325" x2="189.475" y2="288.325" stroke="#1d6fa3" stroke-width="0.7" />
  <line id="slot.figure.group1.rod.2.cell.6.line" x1="178" y1="296.825" x2="189.475" y2="296.825" stroke="#1d6fa3" stroke-width="0.7" />
  <line id="slot.figure.group1.rod.2.cell.7.line" x1="178" y1="305.325" x2="189.475" y2="305.325" stroke="#1d6fa3" stroke-width="0.7" />
  <line id="slot.figure.group1.rod.2.cell.8.line" x1="178" y1="313.825" x2="189.475" y2="313.825" stroke="#1d6fa3" stroke-width="0.7" />
  <line id="slot.figure.group1.rod.2.cell.9.line" x1="178" y1="322.325" x2="189.475" y2="322.325" stroke="#1d6fa3" stroke-width="0.7" />
  <line id="slot.figure.group2.rod.1.cell.1.line" x1="293" y1="254.325" x2="304.475" y2="254.325" stroke="#1d6fa3" stroke-width="0.7" />
  <line id="slot.figure.group2.rod.1.cell.2.line" x1="293" y1="262.825" x2="304.475" y2="262.825" stroke="#1d6fa3" stroke-width="0.7" />
  <line id="slot.figure.group2.rod.1.cell.3.line" x1="293" y1="271.325" x2="304.475" y2="271.325" stroke="#1d6fa3" stroke-width="0.7" />
  <line id="slot.figure.group2.rod.1.cell.4.line" x1="293" y1="279.825" x2="304.475" y2="279.825" stroke="#1d6fa3" stroke-width="0.7" />
  <line id="slot.figure.group2.rod.1.cell.5.line" x1="293" y1="288.325" x2="304.475" y2="288.325" stroke="#1d6fa3" stroke-width="0.7" />
  <line id="slot.figure.group2.rod.1.cell.6.line" x1="293" y1="296.825" x2="304.475" y2="296.825" stroke="#1d6fa3" stroke-width="0.7" />
  <line id="slot.figure.group2.rod.1.cell.7.line" x1="293" y1="305.325" x2="304.475" y2="305.325" stroke="#1d6fa3" stroke-width="0.7" />
  <line id="slot.figure.group2.rod.1.cell.8.line" x1="293" y1="313.825" x2="304.475" y2="313.825" stroke="#1d6fa3" stroke-width="0.7" />
  <line id="slot.figure.group2.rod.1.cell.9.line" x1="293" y1="322.325" x2="304.475" y2="322.325" stroke="#1d6fa3" stroke-width="0.7" />
  <line id="slot.figure.group2.rod.2.cell.1.line" x1="318" y1="254.325" x2="329.475" y2="254.325" stroke="#1d6fa3" stroke-width="0.7" />
  <line id="slot.figure.group2.rod.2.cell.2.line" x1="318" y1="262.825" x2="329.475" y2="262.825" stroke="#1d6fa3" stroke-width="0.7" />
  <line id="slot.figure.group2.rod.2.cell.3.line" x1="318" y1="271.325" x2="329.475" y2="271.325" stroke="#1d6fa3" stroke-width="0.7" />
  <line id="slot.figure.group2.rod.2.cell.4.line" x1="318" y1="279.825" x2="329.475" y2="279.825" stroke="#1d6fa3" stroke-width="0.7" />
  <line id="slot.figure.group2.rod.2.cell.5.line" x1="318" y1="288.325" x2="329.475" y2="288.325" stroke="#1d6fa3" stroke-width="0.7" />
  <line id="slot.figure.group2.rod.2.cell.6.line" x1="318" y1="296.825" x2="329.475" y2="296.825" stroke="#1d6fa3" stroke-width="0.7" />
  <line id="slot.figure.group2.rod.2.cell.7.line" x1="318" y1="305.325" x2="329.475" y2="305.325" stroke="#1d6fa3" stroke-width="0.7" />
  <line id="slot.figure.group2.rod.2.cell.8.line" x1="318" y1="313.825" x2="329.475" y2="313.825" stroke="#1d6fa3" stroke-width="0.7" />
  <line id="slot.figure.group2.rod.2.cell.9.line" x1="318" y1="322.325" x2="329.475" y2="322.325" stroke="#1d6fa3" stroke-width="0.7" />
  <line id="slot.figure.group3.rod.1.cell.1.line" x1="438" y1="254.325" x2="449.475" y2="254.325" stroke="#1d6fa3" stroke-width="0.7" />
  <line id="slot.figure.group3.rod.1.cell.2.line" x1="438" y1="262.825" x2="449.475" y2="262.825" stroke="#1d6fa3" stroke-width="0.7" />
  <line id="slot.figure.group3.rod.1.cell.3.line" x1="438" y1="271.325" x2="449.475" y2="271.325" stroke="#1d6fa3" stroke-width="0.7" />
  <line id="slot.figure.group3.rod.1.cell.4.line" x1="438" y1="279.825" x2="449.475" y2="279.825" stroke="#1d6fa3" stroke-width="0.7" />
  <line id="slot.figure.group3.rod.1.cell.5.line" x1="438" y1="288.325" x2="449.475" y2="288.325" stroke="#1d6fa3" stroke-width="0.7" />
  <line id="slot.figure.group3.rod.1.cell.6.line" x1="438" y1="296.825" x2="449.475" y2="296.825" stroke="#1d6fa3" stroke-width="0.7" />
  <line id="slot.figure.group3.rod.1.cell.7.line" x1="438" y1="305.325" x2="449.475" y2="305.325" stroke="#1d6fa3" stroke-width="0.7" />
  <line id="slot.figure.group3.rod.1.cell.8.line" x1="438" y1="313.825" x2="449.475" y2="313.825" stroke="#1d6fa3" stroke-width="0.7" />
  <line id="slot.figure.group3.rod.1.cell.9.line" x1="438" y1="322.325" x2="449.475" y2="322.325" stroke="#1d6fa3" stroke-width="0.7" />
  <line id="slot.figure.group3.rod.2.cell.1.line" x1="463" y1="254.325" x2="474.475" y2="254.325" stroke="#1d6fa3" stroke-width="0.7" />
  <line id="slot.figure.group3.rod.2.cell.2.line" x1="463" y1="262.825" x2="474.475" y2="262.825" stroke="#1d6fa3" stroke-width="0.7" />
  <line id="slot.figure.group3.rod.2.cell.3.line" x1="463" y1="271.325" x2="474.475" y2="271.325" stroke="#1d6fa3" stroke-width="0.7" />
  <line id="slot.figure.group3.rod.2.cell.4.line" x1="463" y1="279.825" x2="474.475" y2="279.825" stroke="#1d6fa3" stroke-width="0.7" />
  <line id="slot.figure.group3.rod.2.cell.5.line" x1="463" y1="288.325" x2="474.475" y2="288.325" stroke="#1d6fa3" stroke-width="0.7" />
  <line id="slot.figure.group3.rod.2.cell.6.line" x1="463" y1="296.825" x2="474.475" y2="296.825" stroke="#1d6fa3" stroke-width="0.7" />
  <line id="slot.figure.group3.rod.2.cell.7.line" x1="463" y1="305.325" x2="474.475" y2="305.325" stroke="#1d6fa3" stroke-width="0.7" />
  <line id="slot.figure.group3.rod.2.cell.8.line" x1="463" y1="313.825" x2="474.475" y2="313.825" stroke="#1d6fa3" stroke-width="0.7" />
  <line id="slot.figure.group3.rod.2.cell.9.line" x1="463" y1="322.325" x2="474.475" y2="322.325" stroke="#1d6fa3" stroke-width="0.7" />
  <text id="slot.equation.text" x="250" y="415" max_width="592" fill="#111111" font-family="Noto Sans KR, sans-serif" font-size="25">69 ÷ 3 =</text>
  <text id="slot.choice.1.marker.text" x="150" y="470" max_width="592" fill="#0070c0" font-family="Noto Sans KR, sans-serif" font-size="21">①</text>
  <text id="slot.choice.1.value.text" x="174" y="470" max_width="592" fill="#111111" font-family="Noto Sans KR, sans-serif" font-size="24">21</text>
  <text id="slot.choice.2.marker.text" x="300" y="470" max_width="592" fill="#0070c0" font-family="Noto Sans KR, sans-serif" font-size="21">②</text>
  <text id="slot.choice.2.value.text" x="324" y="470" max_width="592" fill="#111111" font-family="Noto Sans KR, sans-serif" font-size="24">22</text>
  <text id="slot.choice.3.marker.text" x="450" y="470" max_width="592" fill="#0070c0" font-family="Noto Sans KR, sans-serif" font-size="21">③</text>
  <text id="slot.choice.3.value.text" x="474" y="470" max_width="592" fill="#111111" font-family="Noto Sans KR, sans-serif" font-size="24">23</text>
  <text id="slot.choice.4.marker.text" x="150" y="510" max_width="592" fill="#0070c0" font-family="Noto Sans KR, sans-serif" font-size="21">④</text>
  <text id="slot.choice.4.value.text" x="174" y="510" max_width="592" fill="#111111" font-family="Noto Sans KR, sans-serif" font-size="24">24</text>
  <text id="slot.choice.5.marker.text" x="300" y="510" max_width="592" fill="#0070c0" font-family="Noto Sans KR, sans-serif" font-size="21">⑤</text>
  <text id="slot.choice.5.value.text" x="324" y="510" max_width="592" fill="#111111" font-family="Noto Sans KR, sans-serif" font-size="24">25</text>
</svg>
