<?xml version="1.0" encoding="UTF-8"?>
<svg xmlns="http://www.w3.org/2000/svg" width="728" height="595" viewBox="0 0 728 595">
  <metadata><problem_id>S3_초등_3_008596</problem_id></metadata>
  <rect x="0" y="0" width="728" height="595" fill="#FFFFFF" />
  <rect id="slot.box.rect" x="280" y="55" width="190" height="65" fill="#ffffff" stroke="#111111" stroke-width="1.5" />
  <path id="slot.left.bubble.path" d="M 175.5 177.5 C 175.5 148.34, 202.1 137.0, 245.5 137.0 C 288.9 137.0, 315.5 148.34, 315.5 177.5 C 315.5 206.66, 288.9 218.0, 245.5 218.0 C 202.1 218.0, 175.5 206.66, 175.5 177.5 Z" stroke="#222222" stroke-width="1.6" fill="#ffffff" />
  <polygon id="slot.left.tail.polygon" points="235.5,212 255.5,212 245.5,227" stroke="#222222" stroke-width="1.4" fill="#ffffff" />
  <polygon id="slot.left.person.body.polygon" points="217.5,355 273.5,355 263.5,319 227.5,319" stroke="none" stroke-width="2" fill="#D7A0D7" />
  <circle id="slot.left.person.head.circle" cx="245.5" cy="282" r="28" stroke="none" stroke-width="2" fill="#ffd9ad" />
  <path id="slot.left.person.hair.cap.path" d="M 217.5 281.0 C 219.5 252.0, 270.5 247.0, 274.5 281.0 C 255.5 265.0, 233.5 272.0, 217.5 281.0 Z" stroke="none" stroke-width="2" fill="#4b1f16" />
  <circle id="slot.left.person.eye.left.circle" cx="235.5" cy="286" r="2.3" stroke="none" stroke-width="2" fill="#2b2118" />
  <circle id="slot.left.person.eye.right.circle" cx="255.5" cy="286" r="2.3" stroke="none" stroke-width="2" fill="#2b2118" />
  <path id="slot.left.person.smile.path" d="M 238.5 298.0 Q 245.5 304.0 252.5 298.0" stroke="#b86e39" stroke-width="1.3" fill="none" />
  <rect id="slot.name.left.box.rect" x="207.5" y="380" width="76" height="36" fill="#e9f7dd" stroke="#6fcf83" stroke-width="2" rx="9" ry="9" />
  <path id="slot.right.bubble.path" d="M 420.0 184.5 C 420.0 150.3, 450.02 137.0, 499.0 137.0 C 547.98 137.0, 578.0 150.3, 578.0 184.5 C 578.0 218.7, 547.98 232.0, 499.0 232.0 C 450.02 232.0, 420.0 218.7, 420.0 184.5 Z" stroke="#222222" stroke-width="1.6" fill="#ffffff" />
  <polygon id="slot.right.tail.polygon" points="489,226 509,226 499,230" stroke="#222222" stroke-width="1.4" fill="#ffffff" />
  <polygon id="slot.right.person.body.polygon" points="471,358 527,358 517,322 481,322" stroke="none" stroke-width="2" fill="#8ED7E6" />
  <circle id="slot.right.person.head.circle" cx="499" cy="285" r="28" stroke="none" stroke-width="2" fill="#ffd9ad" />
  <path id="slot.right.person.hair.cap.path" d="M 471.0 284.0 C 473.0 255.0, 524.0 250.0, 528.0 284.0 C 509.0 268.0, 487.0 275.0, 471.0 284.0 Z" stroke="none" stroke-width="2" fill="#1d1714" />
  <circle id="slot.right.person.eye.left.circle" cx="489" cy="289" r="2.3" stroke="none" stroke-width="2" fill="#2b2118" />
  <circle id="slot.right.person.eye.right.circle" cx="509" cy="289" r="2.3" stroke="none" stroke-width="2" fill="#2b2118" />
  <path id="slot.right.person.smile.path" d="M 492.0 301.0 Q 499.0 307.0 506.0 301.0" stroke="#b86e39" stroke-width="1.3" fill="none" />
  <rect id="slot.name.right.box.rect" x="461" y="380" width="76" height="36" fill="#e9f7dd" stroke="#6fcf83" stroke-width="2" rx="9" ry="9" />
  <text id="slot.q.text.text" x="76" y="31" max_width="600" fill="#111111" font-family="Noto Sans KR, sans-serif" font-size="28">문제를 바르게 설명한 사람의 이름을 선택해 보세요.</text>
  <text id="slot.box.text.text" x="320" y="100" max_width="600" fill="#111111" font-family="Noto Sans KR, sans-serif" font-size="30">83 ÷ 6</text>
  <text id="slot.left.text.text" x="245.5" y="181.5" max_width="600" fill="#111111" font-family="Noto Sans KR, sans-serif" font-size="24" text-anchor="middle">몫은 13이야.</text>
  <text id="slot.name.left.text.text" x="245.5" y="406" max_width="600" fill="#111111" font-family="Noto Sans KR, sans-serif" font-size="25" text-anchor="middle">종우</text>
  <text id="slot.right.text.text" x="499" y="181.5" max_width="600" fill="#111111" font-family="Noto Sans KR, sans-serif" font-size="22" text-anchor="middle">
    <tspan x="499" dy="0">나머지는 0으로</tspan>
    <tspan x="499" dy="1.2em">나누어떨어져.</tspan>
  </text>
  <text id="slot.name.right.text.text" x="499" y="406" max_width="600" fill="#111111" font-family="Noto Sans KR, sans-serif" font-size="25" text-anchor="middle">은아</text>
  <text id="slot.choice.text" x="280" y="460" max_width="600" fill="#111111" font-family="Noto Sans KR, sans-serif" font-size="30">( 종우 , 은아 )</text>
</svg>
