<?xml version="1.0" encoding="UTF-8"?>
<svg xmlns="http://www.w3.org/2000/svg" width="1100" height="600" viewBox="0 0 1100 600">
  <metadata><problem_id>S3_초등_3_008636</problem_id></metadata>
  <rect x="0" y="0" width="1100" height="600" fill="#FFFFFF" />
  <text id="slot.q1.text" x="20" y="65" fill="#111111" font-family="Noto Sans KR, sans-serif" font-size="30">누름 못과 띠 종이로 원을 그렸습니다. 누름 못이 꽂힌 점에서 원 위에 찍힌</text>
  <text id="slot.q2.text" x="20" y="115" fill="#111111" font-family="Noto Sans KR, sans-serif" font-size="30">2개의 점까지의 길이를 각각 재어 알맞은 말을 선택하세요.</text>
  <circle id="slot.left.circle.circle" cx="330" cy="230" r="90" stroke="#111111" stroke-width="2" fill="none" />
  <rect id="slot.left.paper.rect" x="310" y="215" width="130" height="25" fill="#d2ecfb" stroke="#111111" stroke-width="1.5" rx="4" ry="4" />
  <circle id="slot.left.paper.dot1.circle" cx="330" cy="230" r="5" stroke="#111111" stroke-width="2" fill="#7a7a7a" />
  <circle id="slot.left.paper.dot2.circle" cx="360" cy="230" r="5" stroke="#111111" stroke-width="2" fill="#7a7a7a" />
  <circle id="slot.left.paper.dot3.circle" cx="390" cy="230" r="5" stroke="#111111" stroke-width="2" fill="#7a7a7a" />
  <circle id="slot.left.paper.dot4.circle" cx="420" cy="230" r="5" stroke="#111111" stroke-width="2" fill="#7a7a7a" />
  <circle id="slot.left.pin.circle" cx="330" cy="230" r="5" stroke="#111111" stroke-width="2" fill="#8d8d8d" />
  <polygon id="slot.left.pencil.body.polygon" points="421.39869689941406,218.47747116088868 446.39869689941406,175.17747116088867 453.39869689941406,179.17747116088867 428.39869689941406,222.47747116088868" stroke="#111111" stroke-width="2" fill="#f39c82" />
  <polygon id="slot.left.pencil.tip.polygon" points="419.89869689941406,229.17747116088867 421.39869689941406,218.47747116088868 428.39869689941406,222.47747116088868" stroke="#111111" stroke-width="2" fill="#fce4c8" />
  <circle id="slot.right.circle.circle" cx="650" cy="230" r="90" stroke="#111111" stroke-width="2" fill="none" />
  <circle id="slot.right.center.circle" cx="650" cy="230" r="5" stroke="#111111" stroke-width="2" fill="#8d8d8d" />
  <circle id="slot.right.pt1.circle" cx="710" cy="165" r="5" stroke="#111111" stroke-width="2" fill="#ff00aa" />
  <circle id="slot.right.pt2.circle" cx="560" cy="255" r="5" stroke="#111111" stroke-width="2" fill="#ff00aa" />
  <line id="slot.left.pencil.line1.line" x1="425" y1="220" x2="450" y2="175" stroke="#111111" stroke-width="2" />
  <line id="slot.left.pencil.line2.line" x1="425" y1="220" x2="450" y2="180" stroke="#111111" stroke-width="2" />
  <line id="slot.right.radius1.line" x1="650" y1="230" x2="710" y2="165" stroke="#3fa9f5" stroke-width="2.5" />
  <line id="slot.right.radius2.line" x1="650" y1="230" x2="560" y2="255" stroke="#3fa9f5" stroke-width="2.5" />
  <text id="slot.arrow.text" x="500" y="245" fill="#111111" font-family="Noto Sans KR, sans-serif" font-size="45">→</text>
  <text id="slot.choice.text" x="500" y="375" fill="#111111" font-family="Noto Sans KR, sans-serif" font-size="30" text-anchor="middle">    누름 못이 꽂힌 점에서 원 위의 한 점까지의 길이는 모두</text>
  <text id="slot.choice.copy4.text" x="345" y="430" fill="#111111" font-family="Noto Sans KR, sans-serif" font-size="30">( 같습니다 ,    다릅니다 ).  </text>
</svg>
