<?xml version="1.0" encoding="UTF-8"?>
<svg xmlns="http://www.w3.org/2000/svg" width="600" height="360" viewBox="0 0 600 360">
  <metadata><problem_id>S3_초등_3_008637</problem_id></metadata>
  <rect x="0" y="0" width="600" height="360" fill="#FFFFFF" />
  <text id="slot.q1.text" x="10" y="32" fill="#111111" font-family="Noto Sans KR, sans-serif" font-size="28">원의 중심을 찾아 선택해 보세요.</text>
  <circle id="slot.top.circle.circle" cx="342" cy="201" r="50" stroke="#111111" stroke-width="2" fill="none" />
  <circle id="slot.top.pt.giyeok.circle" cx="290" cy="200" r="5" stroke="#111111" stroke-width="2" fill="#ff4da6" />
  <circle id="slot.top.pt.nieun.circle" cx="340" cy="200" r="5" stroke="#111111" stroke-width="2" fill="#ff4da6" />
  <circle id="slot.top.pt.digeut.circle" cx="395" cy="200" r="5" stroke="#111111" stroke-width="2" fill="#ff4da6" />
  <line id="slot.top.grid.v1.line" x1="235" y1="95" x2="235" y2="310" stroke="#9AA0A6" stroke-width="1.2" stroke-dasharray="5 3" />
  <line id="slot.top.grid.v2.line" x1="265" y1="95" x2="265" y2="310" stroke="#9AA0A6" stroke-width="1.2" stroke-dasharray="5 3" />
  <line id="slot.top.grid.v3.line" x1="290" y1="95" x2="290" y2="310" stroke="#9AA0A6" stroke-width="1.2" stroke-dasharray="5 3" />
  <line id="slot.top.grid.v4.line" x1="315" y1="95" x2="315" y2="310" stroke="#9AA0A6" stroke-width="1.2" stroke-dasharray="5 3" />
  <line id="slot.top.grid.v5.line" x1="340" y1="95" x2="340" y2="310" stroke="#9AA0A6" stroke-width="1.2" stroke-dasharray="5 3" />
  <line id="slot.top.grid.v6.line" x1="365" y1="95" x2="365" y2="310" stroke="#9AA0A6" stroke-width="1.2" stroke-dasharray="5 3" />
  <line id="slot.top.grid.v7.line" x1="395" y1="95" x2="395" y2="310" stroke="#9AA0A6" stroke-width="1.2" stroke-dasharray="5 3" />
  <line id="slot.top.grid.v8.line" x1="420" y1="95" x2="420" y2="310" stroke="#9AA0A6" stroke-width="1.2" stroke-dasharray="5 3" />
  <line id="slot.top.grid.v9.line" x1="445" y1="95" x2="445" y2="310" stroke="#9AA0A6" stroke-width="1.2" stroke-dasharray="5 3" />
  <line id="slot.top.grid.h1.line" x1="235" y1="95" x2="445" y2="95" stroke="#9AA0A6" stroke-width="1.2" stroke-dasharray="5 3" />
  <line id="slot.top.grid.h2.line" x1="235" y1="120" x2="445" y2="120" stroke="#9AA0A6" stroke-width="1.2" stroke-dasharray="5 3" />
  <line id="slot.top.grid.h3.line" x1="235" y1="150" x2="445" y2="150" stroke="#9AA0A6" stroke-width="1.2" stroke-dasharray="5 3" />
  <line id="slot.top.grid.h4.line" x1="235" y1="175" x2="445" y2="175" stroke="#9AA0A6" stroke-width="1.2" stroke-dasharray="5 3" />
  <line id="slot.top.grid.h5.line" x1="235" y1="200" x2="445" y2="200" stroke="#9AA0A6" stroke-width="1.2" stroke-dasharray="5 3" />
  <line id="slot.top.grid.h6.line" x1="235" y1="225" x2="445" y2="225" stroke="#9AA0A6" stroke-width="1.2" stroke-dasharray="5 3" />
  <line id="slot.top.grid.h7.line" x1="235" y1="250" x2="445" y2="250" stroke="#9AA0A6" stroke-width="1.2" stroke-dasharray="5 3" />
  <line id="slot.top.grid.h8.line" x1="235" y1="280" x2="445" y2="280" stroke="#9AA0A6" stroke-width="1.2" stroke-dasharray="5 3" />
  <text id="slot.top.lb.giyeok.text" x="265" y="195" fill="#111111" font-family="Noto Sans KR, sans-serif" font-size="30">ㄱ</text>
  <text id="slot.top.lb.nieun.text" x="330" y="195" fill="#111111" font-family="Noto Sans KR, sans-serif" font-size="30">ㄴ</text>
  <text id="slot.top.lb.digeut.text" x="405" y="195" fill="#111111" font-family="Noto Sans KR, sans-serif" font-size="30">ㄷ</text>
  <line id="slot.bottom.grid.h1.line" x1="235" y1="305" x2="445" y2="305" stroke="#9AA0A6" stroke-width="1.2" stroke-dasharray="5 3" />
</svg>
