<?xml version="1.0" encoding="UTF-8"?>
<svg xmlns="http://www.w3.org/2000/svg" xmlns:xlink="http://www.w3.org/1999/xlink" width="650" height="240" viewBox="0 0 650 240">
  <metadata><problem_id>P3_1_01_00040_02161</problem_id></metadata>
  <rect x="0" y="0" width="650" height="240" fill="#FFFFFF" />
  <line id="slot.expression_line.line" x1="38" y1="197" x2="154" y2="197" stroke="#333333" stroke-width="1" />
  <line id="slot.answer_line.line" x1="38" y1="220" x2="115" y2="220" stroke="#333333" stroke-width="1" />
  <rect id="slot.house_body.rect" x="42" y="64" width="42" height="34" fill="#E9A068" stroke="#B46F44" stroke-width="1.5" />
  <polygon id="slot.house_roof.polygon" points="34,67 63,45 92,67" stroke="#B94E3C" stroke-width="1.5" fill="#D9674E" />
  <rect id="slot.house_door.rect" x="58" y="78" width="11" height="20" fill="#8B5A3C" stroke="#6E442E" stroke-width="1" />
  <rect id="slot.house_window.rect" x="74" y="73" width="9" height="9" fill="#BFE5F7" stroke="#5D91A8" stroke-width="1" />
  <rect id="slot.house_chimney.rect" x="66" y="43" width="6" height="11" fill="#9B4B3C" stroke="#7A372E" stroke-width="1" />
  <rect id="slot.store_body.rect" x="226" y="47" width="50" height="56" fill="#D8EEF4" stroke="#6C929E" stroke-width="1.5" />
  <rect id="slot.store_sign.rect" x="229" y="50" width="44" height="15" fill="#F5E6CB" stroke="#B68E58" stroke-width="1" />
  <polygon id="slot.store_awning.polygon" points="229,66 273,66 268,76 234,76" stroke="#B94E4E" stroke-width="1" fill="#E56E6E" />
  <rect id="slot.store_door.rect" x="252" y="77" width="17" height="26" fill="#8EC4D5" stroke="#5E93A2" stroke-width="1" />
  <rect id="slot.store_window.rect" x="232" y="78" width="15" height="15" fill="#BDE5F2" stroke="#5E93A2" stroke-width="1" />
  <rect id="slot.school_body.rect" x="248" y="156" width="49" height="37" fill="#F4D37A" stroke="#B79A4E" stroke-width="1.5" />
  <polygon id="slot.school_roof.polygon" points="242,158 272,139 303,158" stroke="#62975A" stroke-width="1.5" fill="#8FC487" />
  <rect id="slot.school_door.rect" x="266" y="174" width="13" height="19" fill="#8AB8C8" stroke="#5C8998" stroke-width="1" />
  <rect id="slot.school_window_1.rect" x="253" y="164" width="8" height="8" fill="#BFE5F7" stroke="#5D91A8" stroke-width="1" />
  <rect id="slot.school_window_2.rect" x="284" y="164" width="8" height="8" fill="#BFE5F7" stroke="#5D91A8" stroke-width="1" />
  <line id="slot.route_home_store.line" x1="87" y1="83" x2="232" y2="93" stroke="#8A6A58" stroke-width="1.5" />
  <line id="slot.route_store_school.line" x1="232" y1="93" x2="268" y2="143" stroke="#8A6A58" stroke-width="2" />
  <circle id="slot.point_home.circle" cx="87" cy="83" r="3" stroke="#7A4A35" stroke-width="1" fill="#7A4A35" />
  <circle id="slot.point_store.circle" cx="232" cy="93" r="3" stroke="#7A4A35" stroke-width="1" fill="#7A4A35" />
  <circle id="slot.point_school.circle" cx="268" cy="143" r="3" stroke="#7A4A35" stroke-width="1" fill="#7A4A35" />
  <text id="slot.instruction.text" x="20" y="26" fill="#111111" font-family="Noto Sans KR, sans-serif" font-size="18" max_width="610" data-slot-kind="text_box" data-box-x="20" data-box-y="8" data-box-width="610" data-box-height="52" data-line-height="1.2" data-semantic-role="instruction" text-anchor="start" data-raw-text="송은이가 문방구를 들러 학교에 가려고 합니다. 집에서 학교까지의 거리를 구하시오.">
    <tspan x="20" y="26">송은이가 문방구를 들러 학교에 가려고 합니다. 집에서 학교까지의 거리를</tspan>
    <tspan x="20" y="47.599999999999994">구하시오.</tspan>
  </text>
  <text id="slot.expression_label.text" x="20" y="193" fill="#222222" font-family="Noto Sans KR, sans-serif" font-size="16">식</text>
  <text id="slot.answer_label.text" x="20" y="216" fill="#222222" font-family="Noto Sans KR, sans-serif" font-size="16">답</text>
  <text id="slot.house_label.text" x="24" y="116" fill="#444444" font-family="Noto Sans KR, sans-serif" font-size="14" text-anchor="start">송은이네 집</text>
  <text id="slot.store_label.text" x="283" y="86" fill="#444444" font-family="Noto Sans KR, sans-serif" font-size="14" text-anchor="start">문방구</text>
  <text id="slot.school_label.text" x="305" y="187" fill="#444444" font-family="Noto Sans KR, sans-serif" font-size="14" text-anchor="start">학교</text>
  <text id="slot.distance_487.text" x="157" y="73" fill="#222222" font-family="Noto Sans KR, sans-serif" font-size="16" text-anchor="middle">487 m</text>
  <text id="slot.distance_295.text" x="272" y="118" fill="#222222" font-family="Noto Sans KR, sans-serif" font-size="16" text-anchor="middle">295 m</text>
</svg>
