<?xml version="1.0" encoding="UTF-8"?>
<svg xmlns="http://www.w3.org/2000/svg" xmlns:xlink="http://www.w3.org/1999/xlink" width="619" height="300" viewBox="0 0 619 300">
  <metadata><problem_id>P3_1_01_00040_02164</problem_id></metadata>
  <rect x="0" y="0" width="619" height="300" fill="#FFFFFF" />
  <rect id="slot.example_box.rect" x="28.664" y="107.48" width="120" height="121" fill="#ffffff" stroke="#888888" stroke-width="1.2" data-semantic-role="example_container" />
  <path id="slot.example_circle.path" d="M 38.664 171.48 C 38.664 143.866 61.05 121.48 88.664 121.48 C 116.278 121.48 138.664 143.866 138.664 171.48 C 138.664 199.094 116.278 221.48 88.664 221.48 C 61.05 221.48 38.664 199.094 38.664 171.48 Z" stroke="#efc66a" stroke-width="1.1" fill="#fff5d9" data-semantic-role="addition_rule_diagram" />
  <path id="slot.example_horizontal_line.path" d="M 38.664 171.48 L 138.664 171.48" stroke="#efc66a" stroke-width="1.1" fill="none" data-semantic-role="partition_line" />
  <path id="slot.example_vertical_line.path" d="M 88.664 121.48 L 88.664 171.48" stroke="#efc66a" stroke-width="1.1" fill="none" data-semantic-role="partition_line" />
  <path id="slot.item_1_circle.path" d="M 194.933 171.52 C 194.933 144.458 216.871 122.52 243.933 122.52 C 270.995 122.52 292.933 144.458 292.933 171.52 C 292.933 198.582 270.995 220.52 243.933 220.52 C 216.871 220.52 194.933 198.582 194.933 171.52 Z" stroke="#efc66a" stroke-width="1.1" fill="#ffffff" data-semantic-role="answer_diagram" />
  <path id="slot.item_1_horizontal_line.path" d="M 194.933 171.52 L 292.933 171.52" stroke="#efc66a" stroke-width="1.1" fill="none" data-semantic-role="partition_line" />
  <path id="slot.item_1_vertical_line.path" d="M 243.933 122.52 L 243.933 171.52" stroke="#efc66a" stroke-width="1.1" fill="none" data-semantic-role="partition_line" />
  <path id="slot.item_2_circle.path" d="M 348.933 171.52 C 348.933 144.458 370.871 122.52 397.933 122.52 C 424.995 122.52 446.933 144.458 446.933 171.52 C 446.933 198.582 424.995 220.52 397.933 220.52 C 370.871 220.52 348.933 198.582 348.933 171.52 Z" stroke="#efc66a" stroke-width="1.1" fill="#ffffff" data-semantic-role="answer_diagram" />
  <path id="slot.item_2_horizontal_line.path" d="M 348.933 171.52 L 446.933 171.52" stroke="#efc66a" stroke-width="1.1" fill="none" data-semantic-role="partition_line" />
  <path id="slot.item_2_vertical_line.path" d="M 397.933 122.52 L 397.933 171.52" stroke="#efc66a" stroke-width="1.1" fill="none" data-semantic-role="partition_line" />
  <text id="slot.instruction.text" x="20" y="36.239999999999995" fill="#222222" font-family="Noto Sans KR, sans-serif" font-size="15" max_width="410" data-slot-kind="text_box" data-box-x="20" data-box-y="21.24" data-box-width="410" data-box-height="26" data-line-height="1.15" data-semantic-role="instruction" text-anchor="start">다음 &lt;보기&gt;와 같이 빈 곳에 알맞은 수를 써넣으시오.</text>
  <text id="slot.example_label.text" x="87.183" y="83.84" fill="#333333" font-family="Noto Sans KR, sans-serif" font-size="14" text-anchor="middle" data-semantic-role="example_label">&lt;보기&gt;</text>
  <text id="slot.example_left_value.text" x="64.664" y="157.48" fill="#222222" font-family="Noto Sans KR, sans-serif" font-size="15" text-anchor="middle" data-semantic-role="given_value">259</text>
  <text id="slot.example_right_value.text" x="112.664" y="157.48" fill="#222222" font-family="Noto Sans KR, sans-serif" font-size="15" text-anchor="middle" data-semantic-role="given_value">287</text>
  <text id="slot.example_sum.text" x="88.664" y="201.48" fill="#222222" font-family="Noto Sans KR, sans-serif" font-size="15" text-anchor="middle" data-semantic-role="example_result">546</text>
  <text id="slot.item_1_label.text" x="179.933" y="132.52" fill="#222222" font-family="Noto Sans KR, sans-serif" font-size="14" text-anchor="start" data-semantic-role="item_label">(1)</text>
  <text id="slot.item_1_left_value.text" x="219.933" y="157.52" fill="#222222" font-family="Noto Sans KR, sans-serif" font-size="15" text-anchor="middle" data-semantic-role="given_value">236</text>
  <text id="slot.item_1_right_value.text" x="267.933" y="157.52" fill="#222222" font-family="Noto Sans KR, sans-serif" font-size="15" text-anchor="middle" data-semantic-role="given_value">465</text>
  <text id="slot.item_2_label.text" x="327.933" y="132.52" fill="#222222" font-family="Noto Sans KR, sans-serif" font-size="14" text-anchor="start" data-semantic-role="item_label">(2)</text>
  <text id="slot.item_2_left_value.text" x="373.933" y="157.52" fill="#222222" font-family="Noto Sans KR, sans-serif" font-size="15" text-anchor="middle" data-semantic-role="given_value">756</text>
  <text id="slot.item_2_right_value.text" x="421.933" y="157.52" fill="#222222" font-family="Noto Sans KR, sans-serif" font-size="15" text-anchor="middle" data-semantic-role="given_value">549</text>
</svg>
