<?xml version="1.0" encoding="UTF-8"?>
<svg xmlns="http://www.w3.org/2000/svg" xmlns:xlink="http://www.w3.org/1999/xlink" width="365" height="125" viewBox="0 0 365 125">
  <metadata><problem_id>P3_1_01_00040_02159</problem_id></metadata>
  <rect x="0" y="0" width="365" height="125" fill="#FFFFFF" />
  <path id="slot.start_oval.path" d="M 21.127 97.381 C 21.127 82.381 77.127 82.381 77.127 97.381 C 77.127 112.381 21.127 112.381 21.127 97.381 Z" stroke="#ead5e9" stroke-width="1.2" fill="#fff7ff" data-semantic-role="given_value" />
  <rect id="slot.operation_1_box.rect" x="84.366" y="43.327" width="64" height="28" fill="#e9f8dd" stroke="#a9ce93" stroke-width="1.2" data-semantic-role="operation" />
  <path id="slot.answer_1_oval.path" d="M 146 96.072 C 146 81.072 202 81.072 202 96.072 C 202 111.072 146 111.072 146 96.072 Z" stroke="#ead5e9" stroke-width="1.2" fill="#ffffff" data-semantic-role="answer_blank" />
  <rect id="slot.operation_2_box.rect" x="207" y="45.072" width="64" height="28" fill="#e9f8dd" stroke="#a9ce93" stroke-width="1.2" data-semantic-role="operation" />
  <path id="slot.answer_2_oval.path" d="M 270 96.072 C 270 81.072 326 81.072 326 96.072 C 326 111.072 270 111.072 270 96.072 Z" stroke="#ead5e9" stroke-width="1.2" fill="#ffffff" data-semantic-role="answer_blank" />
  <path id="konva_1784592333289_arrow_2136844.path" d="M 52.83 81.62 L 79.46 58.49 M 79.46 58.49 L 75.11 68.59 M 79.46 58.49 L 68.85 61.39" stroke="#111827" stroke-width="1.2" fill="none" />
  <path id="konva_1784592333289_arrow_2144100.path" d="M 154.116 56.306 L 172.886 77.246 M 172.886 77.246 L 162.716 73.056 M 172.886 77.246 L 169.826 66.676" stroke="#111827" stroke-width="1.2" fill="none" />
  <path id="konva_1784592333289_arrow_2159396.path" d="M 184.25 79.44 L 204.33 58.5 M 204.33 58.5 L 200.92 68.96 M 204.33 58.5 L 194.03 62.35" stroke="#111827" stroke-width="1.2" fill="none" />
  <path id="konva_1784592333289_arrow_2165492.path" d="M 275.93 58.93 L 299.07 82.06 M 299.07 82.06 L 288.69 78.43 M 299.07 82.06 L 295.43 71.68" stroke="#111827" stroke-width="1.2" fill="none" />
  <text id="slot.instruction.text" x="16.254" y="22.545" fill="#111111" font-family="Noto Sans KR, sans-serif" font-size="15" max_width="222.057" data-slot-kind="text_box" data-box-x="16.254" data-box-y="7.545" data-box-width="222.057" data-box-height="43" data-line-height="1.15" data-semantic-role="instruction" text-anchor="start">빈 곳에 알맞은 수를 써넣으시오.</text>
  <text id="slot.start_value.text" x="50" y="102.072" fill="#111111" font-family="Noto Sans KR, sans-serif" font-size="15" text-anchor="middle" data-semantic-role="given_value">156</text>
  <text id="slot.operation_1.text" x="112" y="64.072" fill="#111111" font-family="Noto Sans KR, sans-serif" font-size="15" text-anchor="middle" data-semantic-role="operation">+278</text>
  <text id="slot.operation_2.text" x="236" y="64.072" fill="#111111" font-family="Noto Sans KR, sans-serif" font-size="15" text-anchor="middle" data-semantic-role="operation">+697</text>
</svg>
