<?xml version="1.0" encoding="UTF-8"?>
<svg xmlns="http://www.w3.org/2000/svg" width="960" height="580" viewBox="0 0 960 580">
  <metadata><problem_id>S3_초등_3_008682</problem_id></metadata>
  <rect x="0" y="0" width="960" height="580" fill="#FFFFFF" />
  <text id="slot.q1.text" x="74" y="34" fill="#111111" font-family="Noto Sans KR, sans-serif" font-size="28">    주어진 모양과 똑같은 그림을 그리는 방법을 설명한 것입니다. </text>
  <text id="slot.q2.text" x="74" y="70" fill="#111111" font-family="Noto Sans KR, sans-serif" font-size="28">알맞은 말을 선택하세요.</text>
  <path id="slot.grid.left.frame.path" d="M 239.0 86.0 L 431.0 86.0 L 431.0 278.0 L 239.0 278.0 Z" stroke="#37C7FF" stroke-width="1.4" fill="#ffffff" stroke-dasharray="4 3" />
  <path id="slot.grid.left.v1.path" d="M 263.0 86.0 L 263.0 278.0" stroke="#37C7FF" stroke-width="1" fill="none" stroke-dasharray="4 3" />
  <path id="slot.grid.left.h1.path" d="M 239.0 110.0 L 431.0 110.0" stroke="#37C7FF" stroke-width="1" fill="none" stroke-dasharray="4 3" />
  <path id="slot.grid.left.v2.path" d="M 287.0 86.0 L 287.0 278.0" stroke="#37C7FF" stroke-width="1" fill="none" stroke-dasharray="4 3" />
  <path id="slot.grid.left.h2.path" d="M 239.0 134.0 L 431.0 134.0" stroke="#37C7FF" stroke-width="1" fill="none" stroke-dasharray="4 3" />
  <path id="slot.grid.left.v3.path" d="M 311.0 86.0 L 311.0 278.0" stroke="#37C7FF" stroke-width="1" fill="none" stroke-dasharray="4 3" />
  <path id="slot.grid.left.h3.path" d="M 239.0 158.0 L 431.0 158.0" stroke="#37C7FF" stroke-width="1" fill="none" stroke-dasharray="4 3" />
  <path id="slot.grid.left.v4.path" d="M 335.0 86.0 L 335.0 278.0" stroke="#37C7FF" stroke-width="1" fill="none" stroke-dasharray="4 3" />
  <path id="slot.grid.left.h4.path" d="M 239.0 182.0 L 431.0 182.0" stroke="#37C7FF" stroke-width="1" fill="none" stroke-dasharray="4 3" />
  <path id="slot.grid.left.v5.path" d="M 359.0 86.0 L 359.0 278.0" stroke="#37C7FF" stroke-width="1" fill="none" stroke-dasharray="4 3" />
  <path id="slot.grid.left.h5.path" d="M 239.0 206.0 L 431.0 206.0" stroke="#37C7FF" stroke-width="1" fill="none" stroke-dasharray="4 3" />
  <path id="slot.grid.left.v6.path" d="M 383.0 86.0 L 383.0 278.0" stroke="#37C7FF" stroke-width="1" fill="none" stroke-dasharray="4 3" />
  <path id="slot.grid.left.h6.path" d="M 239.0 230.0 L 431.0 230.0" stroke="#37C7FF" stroke-width="1" fill="none" stroke-dasharray="4 3" />
  <path id="slot.grid.left.v7.path" d="M 407.0 86.0 L 407.0 278.0" stroke="#37C7FF" stroke-width="1" fill="none" stroke-dasharray="4 3" />
  <path id="slot.grid.left.h7.path" d="M 239.0 254.0 L 431.0 254.0" stroke="#37C7FF" stroke-width="1" fill="none" stroke-dasharray="4 3" />
  <circle id="slot.left.outer_circle.circle" cx="335" cy="182" r="96" stroke="#444444" stroke-width="1.6" fill="none" />
  <circle id="slot.left.inner_circle_1.circle" cx="287" cy="182" r="48" stroke="#444444" stroke-width="1.6" fill="none" />
  <circle id="slot.left.inner_circle_2.circle" cx="383" cy="182" r="48" stroke="#444444" stroke-width="1.6" fill="none" />
  <path id="slot.arrow.path" d="M 454 182 L 496 182 M 482 170 L 496 182 L 482 194" stroke="#444444" stroke-width="2" fill="none" />
  <path id="slot.grid.right.frame.path" d="M 562.0 86.0 L 754.0 86.0 L 754.0 278.0 L 562.0 278.0 Z" stroke="#37C7FF" stroke-width="1.4" fill="#ffffff" stroke-dasharray="4 3" />
  <path id="slot.grid.right.v1.path" d="M 586.0 86.0 L 586.0 278.0" stroke="#37C7FF" stroke-width="1" fill="none" stroke-dasharray="4 3" />
  <path id="slot.grid.right.h1.path" d="M 562.0 110.0 L 754.0 110.0" stroke="#37C7FF" stroke-width="1" fill="none" stroke-dasharray="4 3" />
  <path id="slot.grid.right.v2.path" d="M 610.0 86.0 L 610.0 278.0" stroke="#37C7FF" stroke-width="1" fill="none" stroke-dasharray="4 3" />
  <path id="slot.grid.right.h2.path" d="M 562.0 134.0 L 754.0 134.0" stroke="#37C7FF" stroke-width="1" fill="none" stroke-dasharray="4 3" />
  <path id="slot.grid.right.v3.path" d="M 634.0 86.0 L 634.0 278.0" stroke="#37C7FF" stroke-width="1" fill="none" stroke-dasharray="4 3" />
  <path id="slot.grid.right.h3.path" d="M 562.0 158.0 L 754.0 158.0" stroke="#37C7FF" stroke-width="1" fill="none" stroke-dasharray="4 3" />
  <path id="slot.grid.right.v4.path" d="M 658.0 86.0 L 658.0 278.0" stroke="#37C7FF" stroke-width="1" fill="none" stroke-dasharray="4 3" />
  <path id="slot.grid.right.h4.path" d="M 562.0 182.0 L 754.0 182.0" stroke="#37C7FF" stroke-width="1" fill="none" stroke-dasharray="4 3" />
  <path id="slot.grid.right.v5.path" d="M 682.0 86.0 L 682.0 278.0" stroke="#37C7FF" stroke-width="1" fill="none" stroke-dasharray="4 3" />
  <path id="slot.grid.right.h5.path" d="M 562.0 206.0 L 754.0 206.0" stroke="#37C7FF" stroke-width="1" fill="none" stroke-dasharray="4 3" />
  <path id="slot.grid.right.v6.path" d="M 706.0 86.0 L 706.0 278.0" stroke="#37C7FF" stroke-width="1" fill="none" stroke-dasharray="4 3" />
  <path id="slot.grid.right.h6.path" d="M 562.0 230.0 L 754.0 230.0" stroke="#37C7FF" stroke-width="1" fill="none" stroke-dasharray="4 3" />
  <path id="slot.grid.right.v7.path" d="M 730.0 86.0 L 730.0 278.0" stroke="#37C7FF" stroke-width="1" fill="none" stroke-dasharray="4 3" />
  <path id="slot.grid.right.h7.path" d="M 562.0 254.0 L 754.0 254.0" stroke="#37C7FF" stroke-width="1" fill="none" stroke-dasharray="4 3" />
  <path id="slot.boy.bubble.path" d="M 195 342 C 195 312 240 302 310 302 C 380 302 425 312 425 342 C 425 377 380 387 310 387 C 240 387 195 377 195 342 Z" stroke="#222222" stroke-width="1.6" fill="#ffffff" />
  <polygon id="slot.boy.person.body.polygon" points="281,518 337,518 327,482 291,482" stroke="none" stroke-width="2" fill="#58C7BC" />
  <circle id="slot.boy.person.head.circle" cx="309" cy="445" r="28" stroke="none" stroke-width="2" fill="#ffd9ad" />
  <path id="slot.boy.person.hair.cap.path" d="M 281 444 C 283 415 334 410 338 444 C 319 428 297 435 281 444 Z" stroke="none" stroke-width="2" fill="#3B2417" />
  <path id="slot.boy.person.smile.path" d="M 302 461 Q 309 467 316 461" stroke="#b86e39" stroke-width="1.3" fill="none" />
  <rect id="slot.name.boy.box.rect" x="273" y="518" width="72" height="36" fill="#e9f7dd" stroke="#6fcf83" stroke-width="2" rx="9" ry="9" />
  <path id="slot.girl.bubble.path" d="M 461.93731689453125 343.228759765625 C 461.93731689453125 300.748759765625 516.0873168945312 284.228759765625 604.4373168945312 284.228759765625 C 692.7873168945313 284.228759765625 746.9373168945312 300.748759765625 746.9373168945312 343.228759765625 C 746.9373168945312 385.708759765625 692.7873168945313 402.228759765625 604.4373168945312 402.228759765625 C 516.0873168945312 402.228759765625 461.93731689453125 385.708759765625 461.93731689453125 343.228759765625 Z" stroke="#222222" stroke-width="1.6" fill="#ffffff" />
  <polygon id="slot.girl.person.body.polygon" points="577,533 633,533 623,497 587,497" stroke="none" stroke-width="2" fill="#F16078" />
  <circle id="slot.girl.person.head.circle" cx="605" cy="435" r="28" stroke="none" stroke-width="2" fill="#ffd9ad" />
  <path id="slot.girl.person.hair.cap.path" d="M 577 434 C 579 405 630 400 634 434 C 615 418 593 425 577 434 Z" stroke="none" stroke-width="2" fill="#4B260B" />
  <path id="slot.girl.person.smile.path" d="M 598 451 Q 605 457 612 451" stroke="#b86e39" stroke-width="1.3" fill="none" />
  <path id="slot.girl.person.tail.left.path" d="M 578 432 C 553 436 567 477 555 483" stroke="#4B260B" stroke-width="7" fill="none" />
  <path id="slot.girl.person.tail.right.path" d="M 632 432 C 657 436 643 477 655 483" stroke="#4B260B" stroke-width="7" fill="none" />
  <polygon id="slot.girl.person.bow.left.polygon" points="598,478 579,470 591,491" stroke="none" stroke-width="2" fill="#E85BA6" />
  <polygon id="slot.girl.person.bow.right.polygon" points="612,478 631,470 619,491" stroke="none" stroke-width="2" fill="#E85BA6" />
  <rect id="slot.name.girl.box.rect" x="569" y="523" width="72" height="36" fill="#e9f7dd" stroke="#6fcf83" stroke-width="2" rx="9" ry="9" />
  <circle id="slot.boy.person.eye.left.circle" cx="299" cy="449" r="2.3" stroke="none" stroke-width="2" fill="#2b2118" />
  <circle id="slot.boy.person.eye.right.circle" cx="319" cy="449" r="2.3" stroke="none" stroke-width="2" fill="#2b2118" />
  <circle id="slot.girl.person.eye.left.circle" cx="595" cy="439" r="2.3" stroke="none" stroke-width="2" fill="#2b2118" />
  <circle id="slot.girl.person.eye.right.circle" cx="615" cy="439" r="2.3" stroke="none" stroke-width="2" fill="#2b2118" />
  <text id="slot.boy.text.text" x="310" y="340" fill="#111111" font-family="Noto Sans KR, sans-serif" font-size="25" text-anchor="middle" data-raw-text="큰 원을
먼저 그려.">
    <tspan x="310" dy="0">큰 원을</tspan>
    <tspan x="310" dy="1.2em">먼저 그려.</tspan>
  </text>
  <text id="slot.name.boy.text.text" x="309" y="544" fill="#111111" font-family="Noto Sans KR, sans-serif" font-size="25" text-anchor="middle">민수</text>
  <text id="slot.girl.text.text" x="610" y="318" fill="#111111" font-family="Noto Sans KR, sans-serif" font-size="25" text-anchor="middle" data-raw-text="큰 원의 반지름을
( 지름, 반지름 )으로 하는
작은 원을 2개 그려.">
    <tspan x="610" dy="0">큰 원의 반지름을</tspan>
    <tspan x="610" dy="1.2em">( 지름, 반지름 )으로 하는</tspan>
    <tspan x="610" dy="1.2em">작은 원을 2개 그려.</tspan>
  </text>
  <text id="slot.name.girl.text.text" x="605" y="549" fill="#111111" font-family="Noto Sans KR, sans-serif" font-size="25" text-anchor="middle">지혜</text>
</svg>
