<?xml version="1.0" encoding="UTF-8"?>
<svg xmlns="http://www.w3.org/2000/svg" width="940" height="350" viewBox="0 0 940 350">
  <metadata><problem_id>S3_초등_3_008654</problem_id></metadata>
  <rect x="0" y="0" width="940" height="350" fill="#FFFFFF" />
  <text id="slot.q1.text" x="10" y="30" fill="#111111" font-family="Noto Sans KR, sans-serif" font-size="25">가와 나는 규칙에 따라 원을 그린 것입니다. 알맞은 것을 선택해 두 모양</text>
  <text id="slot.q2.text" x="8" y="66" fill="#111111" font-family="Noto Sans KR, sans-serif" font-size="24">을 그린 규칙의 같은 점과 다른 점을 설명해 보세요.</text>
  <path id="slot.ga.grid.frame.path" d="M 250.0 84.0 L 430.0 84.0 L 430.0 264.0 L 250.0 264.0 Z" stroke="#37C7FF" stroke-width="1.2" fill="#ffffff" stroke-dasharray="4 3" />
  <path id="slot.ga.grid.v1.path" d="M 280.0 84.0 L 280.0 264.0" stroke="#37C7FF" stroke-width="1" fill="none" stroke-dasharray="4 3" />
  <path id="slot.ga.grid.h1.path" d="M 250.0 114.0 L 430.0 114.0" stroke="#37C7FF" stroke-width="1" fill="none" stroke-dasharray="4 3" />
  <path id="slot.ga.grid.v2.path" d="M 310.0 84.0 L 310.0 264.0" stroke="#37C7FF" stroke-width="1" fill="none" stroke-dasharray="4 3" />
  <path id="slot.ga.grid.h2.path" d="M 250.0 144.0 L 430.0 144.0" stroke="#37C7FF" stroke-width="1" fill="none" stroke-dasharray="4 3" />
  <path id="slot.ga.grid.v3.path" d="M 340.0 84.0 L 340.0 264.0" stroke="#37C7FF" stroke-width="1" fill="none" stroke-dasharray="4 3" />
  <path id="slot.ga.grid.h3.path" d="M 250.0 174.0 L 430.0 174.0" stroke="#37C7FF" stroke-width="1" fill="none" stroke-dasharray="4 3" />
  <path id="slot.ga.grid.v4.path" d="M 370.0 84.0 L 370.0 264.0" stroke="#37C7FF" stroke-width="1" fill="none" stroke-dasharray="4 3" />
  <path id="slot.ga.grid.h4.path" d="M 250.0 204.0 L 430.0 204.0" stroke="#37C7FF" stroke-width="1" fill="none" stroke-dasharray="4 3" />
  <path id="slot.ga.grid.v5.path" d="M 400.0 84.0 L 400.0 264.0" stroke="#37C7FF" stroke-width="1" fill="none" stroke-dasharray="4 3" />
  <path id="slot.ga.grid.h5.path" d="M 250.0 234.0 L 430.0 234.0" stroke="#37C7FF" stroke-width="1" fill="none" stroke-dasharray="4 3" />
  <circle id="slot.ga.circle1.r1.circle" cx="280" cy="174" r="30" stroke="#444444" stroke-width="1.4" fill="none" />
  <circle id="slot.ga.circle2.r2.circle" cx="310" cy="174" r="60" stroke="#444444" stroke-width="1.4" fill="none" />
  <circle id="slot.ga.circle3.r3.circle" cx="340" cy="174" r="90" stroke="#444444" stroke-width="1.4" fill="none" />
  <text id="slot.label.ga.text" x="220" y="103" fill="#111111" font-family="Noto Sans KR, sans-serif" font-size="24">가</text>
  <path id="slot.na.grid.frame.path" d="M 535.0 84.0 L 715.0 84.0 L 715.0 264.0 L 535.0 264.0 Z" stroke="#37C7FF" stroke-width="1.2" fill="#ffffff" stroke-dasharray="4 3" />
  <path id="slot.na.grid.v1.path" d="M 565.0 84.0 L 565.0 264.0" stroke="#37C7FF" stroke-width="1" fill="none" stroke-dasharray="4 3" />
  <path id="slot.na.grid.h1.path" d="M 535.0 114.0 L 715.0 114.0" stroke="#37C7FF" stroke-width="1" fill="none" stroke-dasharray="4 3" />
  <path id="slot.na.grid.v2.path" d="M 595.0 84.0 L 595.0 264.0" stroke="#37C7FF" stroke-width="1" fill="none" stroke-dasharray="4 3" />
  <path id="slot.na.grid.h2.path" d="M 535.0 144.0 L 715.0 144.0" stroke="#37C7FF" stroke-width="1" fill="none" stroke-dasharray="4 3" />
  <path id="slot.na.grid.v3.path" d="M 625.0 84.0 L 625.0 264.0" stroke="#37C7FF" stroke-width="1" fill="none" stroke-dasharray="4 3" />
  <path id="slot.na.grid.h3.path" d="M 535.0 174.0 L 715.0 174.0" stroke="#37C7FF" stroke-width="1" fill="none" stroke-dasharray="4 3" />
  <path id="slot.na.grid.v4.path" d="M 655.0 84.0 L 655.0 264.0" stroke="#37C7FF" stroke-width="1" fill="none" stroke-dasharray="4 3" />
  <path id="slot.na.grid.h4.path" d="M 535.0 204.0 L 715.0 204.0" stroke="#37C7FF" stroke-width="1" fill="none" stroke-dasharray="4 3" />
  <path id="slot.na.grid.v5.path" d="M 685.0 84.0 L 685.0 264.0" stroke="#37C7FF" stroke-width="1" fill="none" stroke-dasharray="4 3" />
  <path id="slot.na.grid.h5.path" d="M 535.0 234.0 L 715.0 234.0" stroke="#37C7FF" stroke-width="1" fill="none" stroke-dasharray="4 3" />
  <circle id="slot.na.circle1.r1.circle" cx="625" cy="174" r="30" stroke="#444444" stroke-width="1.4" fill="none" />
  <circle id="slot.na.circle2.r2.circle" cx="625" cy="174" r="60" stroke="#444444" stroke-width="1.4" fill="none" />
  <circle id="slot.na.circle3.r3.circle" cx="625" cy="174" r="90" stroke="#444444" stroke-width="1.4" fill="none" />
  <text id="slot.label.na.text" x="505" y="103" fill="#111111" font-family="Noto Sans KR, sans-serif" font-size="24">나</text>
  <text id="slot.choice1.text" x="15" y="300" fill="#111111" font-family="Noto Sans KR, sans-serif" font-size="25">    다른 점: (가,나)는 원의 중심을 옮겨가며 그렸고, (가,나)는 원의 중심이 모두</text>
  <text id="slot.choice1.copy1.text" x="15" y="335" fill="#111111" font-family="Noto Sans KR, sans-serif" font-size="25">같게 그렸습니다.  </text>
</svg>
