<?xml version="1.0" encoding="UTF-8"?>
<svg xmlns="http://www.w3.org/2000/svg" width="940" height="366" viewBox="0 0 940 366">
  <metadata><problem_id>S3_초등_3_008657</problem_id></metadata>
  <rect x="0" y="0" width="940" height="366" fill="#FFFFFF" />
  <text id="slot.title.text.text" x="80" y="40" fill="#111111" font-family="Noto Sans KR, sans-serif" font-size="30">원을 그릴 때 컴퍼스를 바르게 사용한 것을 찾아 선택해 보세요.</text>
  <rect id="slot.box.rect" x="194" y="52" width="578" height="190" fill="none" stroke="#18B7AF" stroke-width="2" />
  <circle id="slot.opt.a.circle.circle" cx="294" cy="178" r="42" stroke="#9A9A9A" stroke-width="1.4" fill="none" />
  <rect id="slot.opt.a.compass.head.rect" x="287.7" y="69.38" width="8.6" height="15.48" fill="#8B9195" stroke="#42474B" stroke-width="1" rx="1.72" ry="1.72" />
  <rect id="slot.opt.a.compass.knob.rect" x="290.28" y="58.2" width="3.44" height="10.32" fill="#7F8589" stroke="#42474B" stroke-width="0.8" />
  <rect id="slot.opt.a.compass.clamp.rect" x="329.98" y="150.48000000000002" width="12.04" height="6.88" fill="#6D7378" stroke="#42474B" stroke-width="0.8" />
  <rect id="slot.opt.a.compass.pencil.body.rect" x="333.42" y="110.92" width="5.16" height="64.5" fill="#A9B84B" stroke="#879036" stroke-width="0.9" />
  <polygon id="slot.opt.a.compass.pencil.tip.polygon" points="331.7,174.56 340.3,174.56 336,185.74" stroke="#9E7130" stroke-width="0.8" fill="#E8B55D" />
  <circle id="slot.opt.b.circle.circle" cx="475" cy="178" r="42" stroke="#9A9A9A" stroke-width="1.4" fill="none" />
  <rect id="slot.opt.b.compass.head.rect" x="491.7" y="69.38" width="8.6" height="15.48" fill="#8B9195" stroke="#42474B" stroke-width="1" rx="1.72" ry="1.72" />
  <rect id="slot.opt.b.compass.knob.rect" x="494.28" y="58.2" width="3.44" height="10.32" fill="#7F8589" stroke="#42474B" stroke-width="0.8" />
  <rect id="slot.opt.b.compass.clamp.rect" x="510.98" y="150.48000000000002" width="12.04" height="6.88" fill="#6D7378" stroke="#42474B" stroke-width="0.8" />
  <rect id="slot.opt.b.compass.pencil.body.rect" x="514.42" y="110.92" width="5.16" height="64.5" fill="#A9B84B" stroke="#879036" stroke-width="0.9" />
  <polygon id="slot.opt.b.compass.pencil.tip.polygon" points="512.7,174.56 521.3,174.56 517,185.74" stroke="#9E7130" stroke-width="0.8" fill="#E8B55D" />
  <circle id="slot.opt.c.circle.circle" cx="656" cy="178" r="42" stroke="#9A9A9A" stroke-width="1.4" fill="none" />
  <rect id="slot.opt.c.compass.head.rect" x="671.7" y="69.38" width="8.6" height="15.48" fill="#8B9195" stroke="#42474B" stroke-width="1" rx="1.72" ry="1.72" />
  <rect id="slot.opt.c.compass.knob.rect" x="674.28" y="58.2" width="3.44" height="10.32" fill="#7F8589" stroke="#42474B" stroke-width="0.8" />
  <rect id="slot.opt.c.compass.clamp.rect" x="649.98" y="150.48000000000002" width="12.04" height="6.88" fill="#6D7378" stroke="#42474B" stroke-width="0.8" />
  <rect id="slot.opt.c.compass.pencil.body.rect" x="653.42" y="110.92" width="5.16" height="64.5" fill="#A9B84B" stroke="#879036" stroke-width="0.9" />
  <polygon id="slot.opt.c.compass.pencil.tip.polygon" points="651.7,174.56 660.3,174.56 656,185.74" stroke="#9E7130" stroke-width="0.8" fill="#E8B55D" />
  <line id="slot.opt.a.compass.leg.left.outer.line" x1="288.56" y1="90.88" x2="252" y2="178" stroke="#42474B" stroke-width="1.2" />
  <line id="slot.opt.a.compass.leg.left.inner.line" x1="292.86" y1="90.88" x2="256.3" y2="178" stroke="#C7DCE3" stroke-width="3" />
  <line id="slot.opt.a.compass.leg.right.outer.line" x1="295.44" y1="90.88" x2="336" y2="173.7" stroke="#42474B" stroke-width="1.2" />
  <line id="slot.opt.a.compass.leg.right.inner.line" x1="291.14" y1="90.88" x2="330.84" y2="162.52" stroke="#C7DCE3" stroke-width="3" />
  <line id="slot.opt.a.compass.bar.left.line" x1="266.4" y1="144.16" x2="321.48" y2="146.98000000000002" stroke="#6D7378" stroke-width="1.2" />
  <line id="slot.opt.a.compass.needle.tip.line" x1="252" y1="171.12" x2="252" y2="184.88" stroke="#42474B" stroke-width="1.2" />
  <line id="slot.opt.b.compass.leg.left.outer.line" x1="492.56" y1="90.88" x2="475" y2="178" stroke="#42474B" stroke-width="1.2" />
  <line id="slot.opt.b.compass.leg.left.inner.line" x1="496.86" y1="90.88" x2="479.3" y2="178" stroke="#C7DCE3" stroke-width="3" />
  <line id="slot.opt.b.compass.leg.right.outer.line" x1="499.44" y1="90.88" x2="517" y2="173.7" stroke="#42474B" stroke-width="1.2" />
  <line id="slot.opt.b.compass.leg.right.inner.line" x1="495.14" y1="90.88" x2="511.84" y2="162.52" stroke="#C7DCE3" stroke-width="3" />
  <line id="slot.opt.b.compass.bar.left.line" x1="482.56" y1="144.16" x2="510.07" y2="146.98000000000002" stroke="#6D7378" stroke-width="1.2" />
  <line id="slot.opt.b.compass.needle.tip.line" x1="475" y1="171.12" x2="475" y2="184.88" stroke="#42474B" stroke-width="1.2" />
  <line id="slot.opt.c.compass.leg.left.outer.line" x1="672.56" y1="90.88" x2="698" y2="178" stroke="#42474B" stroke-width="1.2" />
  <line id="slot.opt.c.compass.leg.left.inner.line" x1="676.86" y1="90.88" x2="702.3" y2="178" stroke="#C7DCE3" stroke-width="3" />
  <line id="slot.opt.c.compass.leg.right.outer.line" x1="679.44" y1="90.88" x2="656" y2="173.7" stroke="#42474B" stroke-width="1.2" />
  <line id="slot.opt.c.compass.leg.right.inner.line" x1="675.14" y1="90.88" x2="650.84" y2="162.52" stroke="#C7DCE3" stroke-width="3" />
  <line id="slot.opt.c.compass.bar.left.line" x1="690.08" y1="144.16" x2="662.6" y2="146.98000000000002" stroke="#6D7378" stroke-width="1.2" />
  <line id="slot.opt.c.compass.needle.tip.line" x1="698" y1="171.12" x2="698" y2="184.88" stroke="#42474B" stroke-width="1.2" />
  <circle id="slot.opt.a.center.dot.circle" cx="294" cy="178" r="3" stroke="#111111" stroke-width="2" fill="#E91E63" />
  <circle id="slot.opt.a.center.mark.circle" cx="294" cy="192" r="4" stroke="#555555" stroke-width="1.4" fill="none" />
  <circle id="slot.opt.a.compass.hinge.circle" cx="292" cy="84" r="5.16" stroke="#42474B" stroke-width="1" fill="#AEB4B7" />
  <circle id="slot.opt.b.center.dot.circle" cx="475" cy="178" r="3" stroke="#111111" stroke-width="2" fill="#E91E63" />
  <circle id="slot.opt.b.center.mark.circle" cx="475" cy="192" r="4" stroke="#555555" stroke-width="1.4" fill="none" />
  <circle id="slot.opt.b.compass.hinge.circle" cx="496" cy="84" r="5.16" stroke="#42474B" stroke-width="1" fill="#AEB4B7" />
  <circle id="slot.opt.c.center.dot.circle" cx="656" cy="178" r="3" stroke="#111111" stroke-width="2" fill="#E91E63" />
  <circle id="slot.opt.c.center.mark.circle" cx="656" cy="192" r="4" stroke="#555555" stroke-width="1.4" fill="none" />
  <circle id="slot.opt.c.compass.hinge.circle" cx="676" cy="84" r="5.16" stroke="#42474B" stroke-width="1" fill="#AEB4B7" />
  <text id="slot.opt.a.label.text" x="216" y="92" fill="#111111" font-family="Noto Sans KR, sans-serif" font-size="28">가</text>
  <text id="slot.opt.b.label.text" x="396" y="92" fill="#111111" font-family="Noto Sans KR, sans-serif" font-size="28">나</text>
  <text id="slot.opt.c.label.text" x="577" y="92" fill="#111111" font-family="Noto Sans KR, sans-serif" font-size="28">다</text>
</svg>
