<?xml version="1.0" encoding="UTF-8"?>
<svg xmlns="http://www.w3.org/2000/svg" width="940" height="594" viewBox="0 0 940 594">
  <metadata><problem_id>S3_초등_3_008684</problem_id></metadata>
  <rect x="0" y="0" width="940" height="594" fill="#FFFFFF" />
  <text id="slot.qnum.text" x="20" y="30" max_width="812" fill="#111111" font-family="Noto Sans KR, sans-serif" font-size="28">□ 72.  누름 못과 띠 종이를 이용하여 원을 그렸습니다. 그림을 보고 알맞은 말을</text>
  <text id="slot.qtext1.text" x="20" y="66" max_width="812" fill="#111111" font-family="Noto Sans KR, sans-serif" font-size="28">선택하세요.</text>
  <text id="slot.right.text1.text" x="480" y="204" max_width="812" fill="#111111" font-family="Noto Sans KR, sans-serif" font-size="28">② 다른 구멍에</text>
  <text id="slot.right.text2.text" x="480" y="234" max_width="812" fill="#111111" font-family="Noto Sans KR, sans-serif" font-size="28">연필을 꽂고</text>
  <text id="slot.right.text3.text" x="480" y="264" max_width="812" fill="#111111" font-family="Noto Sans KR, sans-serif" font-size="28">한 바퀴 돌려</text>
  <text id="slot.right.text4.text" x="480" y="294" max_width="812" fill="#111111" font-family="Noto Sans KR, sans-serif" font-size="28">원을 그려요.</text>
  <rect id="slot.left.frame.rect" x="240" y="122" width="214" height="214" fill="none" stroke="#111111" stroke-width="1.5" />
  <circle id="slot.left.circle.circle" cx="344" cy="226" r="103" stroke="#111111" stroke-width="2" fill="none" />
  <rect id="slot.left.ribbon.rect" x="308" y="142" width="122" height="34" fill="none" stroke="#111111" stroke-width="1.5" />
  <circle id="slot.left.pin.circle" cx="310" cy="223" r="4" stroke="#111111" stroke-width="2" fill="#6AA84F" />
  <path id="slot.left.hand.path" d="M 313.0 290.0 L 333.0 267.0 L 347.0 268.0 L 361.0 286.0 L 360.0 322.0 L 336.0 332.0 L 316.0 312.0 Z" stroke="#111111" stroke-width="2" fill="none" />
  <path id="slot.left.pencil.path" d="M 356.0 148.0 L 410.0 185.0" stroke="#111111" stroke-width="2" fill="none" />
  <path id="slot.left.arrow1.path" d="M 303.0 210.0 C 250.0 195.0, 236.0 186.0, 214.0 188.0" stroke="#111111" stroke-width="2" fill="none" />
  <path id="slot.left.arrow2.path" d="M 410.0 206.0 C 434.0 208.0, 451.0 221.0, 452.0 237.0" stroke="#111111" stroke-width="2" fill="none" />
  <text id="slot.left.text1.text" x="108" y="205" max_width="812" fill="#111111" font-family="Noto Sans KR, sans-serif" font-size="28">① 한쪽 구멍에</text>
  <text id="slot.left.text2.text" x="108" y="235" max_width="812" fill="#111111" font-family="Noto Sans KR, sans-serif" font-size="28">누름 못을 꽂아</text>
  <rect id="slot.right.frame.rect" x="670" y="122" width="190" height="214" fill="none" stroke="#111111" stroke-width="1.5" />
  <circle id="slot.right.circle.circle" cx="765" cy="226" r="103" stroke="#111111" stroke-width="2" fill="none" />
  <circle id="slot.right.center.circle" cx="765" cy="226" r="5" stroke="#111111" stroke-width="2" fill="none" />
  <circle id="slot.right.p1.circle" cx="765" cy="122" r="3.5" stroke="#111111" stroke-width="2" fill="#222222" />
  <circle id="slot.right.p2.circle" cx="860" cy="226" r="3.5" stroke="#111111" stroke-width="2" fill="#222222" />
  <circle id="slot.right.p3.circle" cx="765" cy="336" r="3.5" stroke="#111111" stroke-width="2" fill="#222222" />
  <circle id="slot.right.p4.circle" cx="670" cy="226" r="3.5" stroke="#111111" stroke-width="2" fill="#222222" />
  <line id="slot.right.cross_v.line" x1="765" y1="122" x2="765" y2="336" stroke="#111111" stroke-width="2" />
  <line id="slot.right.cross_h.line" x1="670" y1="226" x2="860" y2="226" stroke="#111111" stroke-width="2" />
  <rect id="slot.choice.frame.rect" x="98" y="368" width="734" height="118" fill="none" stroke="#111111" stroke-width="1.5" />
  <text id="slot.choice.text1.text" x="124" y="414" max_width="812" fill="#111111" font-family="Noto Sans KR, sans-serif" font-size="28">누름 못이 꽂힌 점에서 원 위에 찍은 4개의 점까지의 길이는</text>
  <text id="slot.choice.text2.text" x="275" y="448" max_width="812" fill="#111111" font-family="Noto Sans KR, sans-serif" font-size="28">모두 ( 같습니다, 다릅니다 ).</text>
</svg>
