<?xml version="1.0" encoding="UTF-8"?>
<svg xmlns="http://www.w3.org/2000/svg" width="950" height="410" viewBox="0 0 950 410">
  <metadata><problem_id>S3_초등_3_008691</problem_id></metadata>
  <rect x="0" y="0" width="950" height="410" fill="#FFFFFF" />
  <path id="slot.inserted.arc.1.copy5.copy7.copy10.path" d="M 245 135 A 65 10 0 0 1 390 135" stroke="#111827" stroke-width="1.5" fill="#ffffff" transform="rotate(-395 317.5 121.06)" stroke-dasharray="10 6" />
  <path id="slot.inserted.arc.1.copy5.copy7.copy10.copy11.path" d="M 202 176 A 110 25 0 0 1 442 176" stroke="#111827" stroke-width="1.5" fill="#ffffff" transform="rotate(-450 369.5 162.06)" stroke-dasharray="10 6" />
  <path id="slot.inserted.arc.1.copy5.copy7.copy10.copy11.copy12.path" d="M 390 205 A 50 10 0 0 1 510 205" stroke="#111827" stroke-width="1.5" fill="#ffffff" transform="rotate(-360 512 192.05)" stroke-dasharray="10 6" />
  <text id="slot.qtext1.text" x="40" y="35" fill="#111111" font-family="Noto Sans KR, sans-serif" font-size="28">원의 반지름과 지름을 나타내는 선분을 각각 찾아 보세요.</text>
  <text id="slot.lb.da_text.copy1.text" x="365" y="205" fill="#111111" font-family="Noto Sans KR, sans-serif" font-size="20">ㅇ</text>
  <text id="slot.lb.ga_text.text" x="305" y="125" fill="#111111" font-family="Noto Sans KR, sans-serif" font-size="20">ㄱ</text>
  <text id="slot.lb.na_text.text" x="330" y="215" fill="#111111" font-family="Noto Sans KR, sans-serif" font-size="20">ㄴ</text>
  <text id="slot.lb.da_text.text" x="435" y="180" fill="#111111" font-family="Noto Sans KR, sans-serif" font-size="20">ㄷ</text>
  <circle id="slot.circle.circle" cx="385" cy="210" r="125" stroke="#111111" stroke-width="2" fill="none" />
  <line id="slot.line.c.line" x1="385" y1="210" x2="510" y2="210" stroke="#111111" stroke-width="2" />
  <line id="slot.line.j.line" x1="385" y1="85" x2="385" y2="335" stroke="#111111" stroke-width="2" />
  <line id="slot.line.k.line" x1="265" y1="170" x2="385" y2="85" stroke="#111111" stroke-width="2" />
  <circle id="slot.pt.center.circle" cx="385" cy="210" r="5" stroke="#111111" stroke-width="2" fill="#ff4da6" />
  <text id="slot.choice.text" x="70" y="390" fill="#111111" font-family="Noto Sans KR, sans-serif" font-size="30">원의 반지름 (ㄱ, ㄴ, ㄷ), 원의 지름 (ㄱ, ㄴ, ㄷ)</text>
</svg>
