<?xml version="1.0" encoding="UTF-8"?>
<svg xmlns="http://www.w3.org/2000/svg" width="960" height="392" viewBox="0 0 960 392">
  <metadata><problem_id>S3_초등_3_008689</problem_id></metadata>
  <rect x="0" y="0" width="960" height="392" fill="#FFFFFF" />
  <path id="slot.inserted.arc.1.path" d="M 250 235 A 70 20 0 0 1 385 235" stroke="#111827" stroke-width="1.5" fill="#ffffff" transform="rotate(90 317.5 231.32)" stroke-dasharray="10 6" />
  <path id="slot.inserted.arc.1.copy5.path" d="M 375 207 A 45 20 0 0 1 475 207" stroke="#111827" stroke-width="1.5" fill="#ffffff" transform="rotate(-40 418 199)" stroke-dasharray="10 6" />
  <path id="slot.inserted.arc.1.copy6.path" d="M 290 250 A 105 30 0 0 1 495 250" stroke="#111827" stroke-width="1.5" fill="#ffffff" transform="rotate(-220 392.5 242.17)" stroke-dasharray="10 6" />
  <text id="slot.q1.text" x="65" y="40" fill="#111111" font-family="Noto Sans KR, sans-serif" font-size="30">        원의 반지름과 지름을 나타내는 선분을 각각 찾아      </text>
  <text id="slot.q1.copy6.text" x="65" y="85" fill="#111111" font-family="Noto Sans KR, sans-serif" font-size="30">기호를 선택해       보세요      </text>
  <circle id="slot.circle.outer.circle" cx="390" cy="235" r="105" stroke="#111111" stroke-width="2" fill="none" />
  <line id="slot.line.a.line" x1="315" y1="160" x2="310" y2="305" stroke="#111111" stroke-width="2" />
  <line id="slot.line.c.line" x1="470" y1="165" x2="310" y2="305" stroke="#111111" stroke-width="2" />
  <circle id="slot.pt.center.circle" cx="390" cy="235" r="5" stroke="#111111" stroke-width="2" fill="#d81b60" />
  <text id="slot.lb.o.text" x="400" y="245" fill="#111111" font-family="Noto Sans KR, sans-serif" font-size="20">ㅇ</text>
  <text id="slot.lb.ga.text" x="330" y="235" fill="#111111" font-family="Noto Sans KR, sans-serif" font-size="25">ㄱ</text>
  <text id="slot.lb.na.text" x="400" y="280" fill="#111111" font-family="Noto Sans KR, sans-serif" font-size="25">ㄴ</text>
  <text id="slot.lb.da.text" x="390" y="180" fill="#111111" font-family="Noto Sans KR, sans-serif" font-size="25">ㄷ</text>
  <text id="slot.choice.text" x="60" y="380" fill="#111111" font-family="Noto Sans KR, sans-serif" font-size="30">원의 반지름 ( ㄱ , ㄴ , ㄷ ), 원의 지름 ( ㄱ , ㄴ , ㄷ )</text>
</svg>
