<?xml version="1.0" encoding="UTF-8"?>
<svg xmlns="http://www.w3.org/2000/svg" width="960" height="420" viewBox="0 0 960 420">
  <metadata><problem_id>S3_초등_3_008713</problem_id></metadata>
  <rect x="0" y="0" width="960" height="420" fill="#FFFFFF" />
  <text id="slot.stem.text" x="15" y="35" fill="#111111" font-family="Noto Sans KR, sans-serif" font-size="30">반지름이 1 cm인 원을 그리는 순서를 바르게 나타낸 것을 고르세요.</text>
  <rect id="slot.box.rect" x="30" y="60" width="720" height="220" fill="#ffffff" stroke="#111111" stroke-width="1.5" />
  <circle id="slot.circle.main.circle" cx="190" cy="182" r="48" stroke="#111111" stroke-width="2" fill="#FFFFFF" />
  <rect id="slot.step.d.ruler.body.rect" x="560" y="199" width="144" height="32" fill="#DDF6FF" stroke="#19B5F2" stroke-width="1.2" />
  <rect id="slot.step.d.compass.head.rect" x="566.4" y="104.76" width="7.199999999999999" height="12.959999999999999" fill="#8B9195" stroke="#42474B" stroke-width="1" rx="1.44" ry="1.44" />
  <rect id="slot.step.d.compass.knob.rect" x="568.56" y="95.4" width="2.88" height="8.64" fill="#7F8589" stroke="#42474B" stroke-width="0.8" />
  <rect id="slot.step.d.compass.clamp.rect" x="602.96" y="170.20000000000002" width="10.08" height="5.76" fill="#6D7378" stroke="#42474B" stroke-width="0.8" />
  <rect id="slot.step.d.compass.pencil.body.rect" x="605.84" y="137.08" width="4.32" height="54" fill="#A9B84B" stroke="#879036" stroke-width="0.9" />
  <polygon id="slot.step.d.compass.pencil.tip.polygon" points="604.4,190.36 611.6,190.36 608,199.72" stroke="#9E7130" stroke-width="0.8" fill="#E8B55D" />
  <line id="slot.step.d.ruler.top.line" x1="560" y1="207" x2="704" y2="207" stroke="#19B5F2" stroke-width="1.1" />
  <line id="slot.step.d.ruler.tick.00.line" x1="560" y1="207" x2="560" y2="219" stroke="#19B5F2" stroke-width="1" />
  <line id="slot.step.d.ruler.tick.01.line" x1="564.8" y1="207" x2="564.8" y2="213" stroke="#19B5F2" stroke-width="0.7" />
  <line id="slot.step.d.ruler.tick.02.line" x1="569.6" y1="207" x2="569.6" y2="213" stroke="#19B5F2" stroke-width="0.7" />
  <line id="slot.step.d.ruler.tick.03.line" x1="574.4" y1="207" x2="574.4" y2="213" stroke="#19B5F2" stroke-width="0.7" />
  <line id="slot.step.d.ruler.tick.04.line" x1="579.2" y1="207" x2="579.2" y2="213" stroke="#19B5F2" stroke-width="0.7" />
  <line id="slot.step.d.ruler.tick.05.line" x1="584" y1="207" x2="584" y2="216" stroke="#19B5F2" stroke-width="0.85" />
  <line id="slot.step.d.ruler.tick.06.line" x1="588.8" y1="207" x2="588.8" y2="213" stroke="#19B5F2" stroke-width="0.7" />
  <line id="slot.step.d.ruler.tick.07.line" x1="593.6" y1="207" x2="593.6" y2="213" stroke="#19B5F2" stroke-width="0.7" />
  <line id="slot.step.d.ruler.tick.08.line" x1="598.4" y1="207" x2="598.4" y2="213" stroke="#19B5F2" stroke-width="0.7" />
  <line id="slot.step.d.ruler.tick.09.line" x1="603.2" y1="207" x2="603.2" y2="213" stroke="#19B5F2" stroke-width="0.7" />
  <line id="slot.step.d.ruler.tick.10.line" x1="608" y1="207" x2="608" y2="219" stroke="#19B5F2" stroke-width="1" />
  <line id="slot.step.d.ruler.tick.11.line" x1="612.8" y1="207" x2="612.8" y2="213" stroke="#19B5F2" stroke-width="0.7" />
  <line id="slot.step.d.ruler.tick.12.line" x1="617.6" y1="207" x2="617.6" y2="213" stroke="#19B5F2" stroke-width="0.7" />
  <line id="slot.step.d.ruler.tick.13.line" x1="622.4" y1="207" x2="622.4" y2="213" stroke="#19B5F2" stroke-width="0.7" />
  <line id="slot.step.d.ruler.tick.14.line" x1="627.2" y1="207" x2="627.2" y2="213" stroke="#19B5F2" stroke-width="0.7" />
  <line id="slot.step.d.ruler.tick.15.line" x1="632" y1="207" x2="632" y2="216" stroke="#19B5F2" stroke-width="0.85" />
  <line id="slot.step.d.ruler.tick.16.line" x1="636.8" y1="207" x2="636.8" y2="213" stroke="#19B5F2" stroke-width="0.7" />
  <line id="slot.step.d.ruler.tick.17.line" x1="641.6" y1="207" x2="641.6" y2="213" stroke="#19B5F2" stroke-width="0.7" />
  <line id="slot.step.d.ruler.tick.18.line" x1="646.4" y1="207" x2="646.4" y2="213" stroke="#19B5F2" stroke-width="0.7" />
  <line id="slot.step.d.ruler.tick.19.line" x1="651.2" y1="207" x2="651.2" y2="213" stroke="#19B5F2" stroke-width="0.7" />
  <line id="slot.step.d.ruler.tick.20.line" x1="656" y1="207" x2="656" y2="219" stroke="#19B5F2" stroke-width="1" />
  <line id="slot.step.d.ruler.tick.21.line" x1="660.8" y1="207" x2="660.8" y2="213" stroke="#19B5F2" stroke-width="0.7" />
  <line id="slot.step.d.ruler.tick.22.line" x1="665.6" y1="207" x2="665.6" y2="213" stroke="#19B5F2" stroke-width="0.7" />
  <line id="slot.step.d.ruler.tick.23.line" x1="670.4" y1="207" x2="670.4" y2="213" stroke="#19B5F2" stroke-width="0.7" />
  <line id="slot.step.d.ruler.tick.24.line" x1="675.2" y1="207" x2="675.2" y2="213" stroke="#19B5F2" stroke-width="0.7" />
  <line id="slot.step.d.ruler.tick.25.line" x1="680" y1="207" x2="680" y2="216" stroke="#19B5F2" stroke-width="0.85" />
  <line id="slot.step.d.ruler.tick.26.line" x1="684.8" y1="207" x2="684.8" y2="213" stroke="#19B5F2" stroke-width="0.7" />
  <line id="slot.step.d.ruler.tick.27.line" x1="689.6" y1="207" x2="689.6" y2="213" stroke="#19B5F2" stroke-width="0.7" />
  <line id="slot.step.d.ruler.tick.28.line" x1="694.4" y1="207" x2="694.4" y2="213" stroke="#19B5F2" stroke-width="0.7" />
  <line id="slot.step.d.ruler.tick.29.line" x1="699.2" y1="207" x2="699.2" y2="213" stroke="#19B5F2" stroke-width="0.7" />
  <line id="slot.step.d.ruler.tick.30.line" x1="704" y1="207" x2="704" y2="219" stroke="#19B5F2" stroke-width="1" />
  <line id="slot.step.d.compass.leg.left.outer.line" x1="567.12" y1="122.76" x2="560" y2="193.24" stroke="#42474B" stroke-width="1.2" />
  <line id="slot.step.d.compass.leg.left.inner.line" x1="570.72" y1="122.76" x2="563.6" y2="193.24" stroke="#C7DCE3" stroke-width="3" />
  <line id="slot.step.d.compass.leg.right.outer.line" x1="572.88" y1="122.76" x2="608" y2="189.64000000000001" stroke="#42474B" stroke-width="1.2" />
  <line id="slot.step.d.compass.leg.right.inner.line" x1="569.28" y1="122.76" x2="603.68" y2="180.28" stroke="#C7DCE3" stroke-width="3" />
  <line id="slot.step.d.compass.bar.left.line" x1="563.6" y1="165.7936" x2="595.46" y2="168.0808" stroke="#6D7378" stroke-width="1.2" />
  <line id="slot.step.d.compass.needle.tip.line" x1="560" y1="187.48000000000002" x2="560" y2="199" stroke="#42474B" stroke-width="1.2" />
  <circle id="slot.dot.center.circle" cx="190" cy="182" r="2.4" stroke="#111111" stroke-width="2" fill="#222222" />
  <circle id="slot.dot.inner.circle" cx="174.11114501953125" cy="190" r="5" stroke="#111111" stroke-width="2" fill="#FFFFFF" />
  <circle id="slot.point.mid.circle" cx="387" cy="166" r="2.4" stroke="#111111" stroke-width="2" fill="#222222" />
  <circle id="slot.ring.mid.circle" cx="382" cy="179" r="4.5" stroke="#111111" stroke-width="2" fill="#FFFFFF" />
  <circle id="slot.step.d.compass.hinge.circle" cx="570" cy="117" r="4.32" stroke="#42474B" stroke-width="1" fill="#AEB4B7" />
  <text id="slot.option.1.text" x="65" y="105" fill="#111111" font-family="Noto Sans KR, sans-serif" font-size="30">ㄱ</text>
  <text id="slot.option.2.text" x="280" y="335" fill="#111111" font-family="Noto Sans KR, sans-serif" font-size="30">② ㄴ, ㄷ, ㄱ</text>
  <text id="slot.option.3.text" x="525" y="335" fill="#111111" font-family="Noto Sans KR, sans-serif" font-size="30">③ ㄷ, ㄱ, ㄴ</text>
  <text id="slot.option.4.text" x="25" y="375" fill="#111111" font-family="Noto Sans KR, sans-serif" font-size="30">④ ㄱ, ㄷ, ㄴ</text>
  <text id="slot.option.5.text" x="280" y="375" fill="#111111" font-family="Noto Sans KR, sans-serif" font-size="30">⑤ ㄴ, ㄱ, ㄷ</text>
  <text id="slot.option.1.copy1.text" x="25" y="332" fill="#111111" font-family="Noto Sans KR, sans-serif" font-size="30">① ㄱ, ㄴ, ㄷ</text>
  <text id="slot.option.1.copy2.text" x="300" y="110" fill="#111111" font-family="Noto Sans KR, sans-serif" font-size="30">ㄴ</text>
  <text id="slot.option.1.copy3.text" x="495" y="115" fill="#111111" font-family="Noto Sans KR, sans-serif" font-size="30">ㄷ</text>
  <text id="slot.step.d.ruler.label.0.text" x="560" y="223" fill="#333333" font-family="Noto Sans KR, sans-serif" font-size="15" text-anchor="middle">0</text>
  <text id="slot.step.d.ruler.label.1.text" x="608" y="223" fill="#333333" font-family="Noto Sans KR, sans-serif" font-size="15" text-anchor="middle">1</text>
  <text id="slot.step.d.ruler.label.2.text" x="656" y="223" fill="#333333" font-family="Noto Sans KR, sans-serif" font-size="15" text-anchor="middle">2</text>
  <text id="slot.step.d.ruler.label.3.text" x="704" y="223" fill="#333333" font-family="Noto Sans KR, sans-serif" font-size="15" text-anchor="middle">3</text>
</svg>
