<?xml version="1.0" encoding="UTF-8"?>
<svg xmlns="http://www.w3.org/2000/svg" width="680" height="480" viewBox="0 0 680 480">
  <metadata><problem_id>S3_초등_3_008692</problem_id></metadata>
  <rect x="0" y="0" width="680" height="480" fill="#FFFFFF" />
  <line id="slot.graphpaper.v0.line" x1="155" y1="95" x2="155" y2="435" stroke="#2563eb" stroke-width="1" />
  <line id="slot.graphpaper.v1.line" x1="190" y1="95" x2="190" y2="435" stroke="#2563eb" stroke-width="1" />
  <line id="slot.graphpaper.v2.line" x1="225" y1="95" x2="225" y2="435" stroke="#2563eb" stroke-width="1" />
  <line id="slot.graphpaper.v3.line" x1="260" y1="95" x2="260" y2="435" stroke="#2563eb" stroke-width="1" />
  <line id="slot.graphpaper.v4.line" x1="295" y1="95" x2="295" y2="435" stroke="#2563eb" stroke-width="1" />
  <line id="slot.graphpaper.v5.line" x1="330" y1="95" x2="330" y2="435" stroke="#2563eb" stroke-width="1" />
  <line id="slot.graphpaper.v6.line" x1="365" y1="95" x2="365" y2="435" stroke="#2563eb" stroke-width="1" />
  <line id="slot.graphpaper.v7.line" x1="400" y1="95" x2="400" y2="435" stroke="#2563eb" stroke-width="1" />
  <line id="slot.graphpaper.v8.line" x1="435" y1="95" x2="435" y2="435" stroke="#2563eb" stroke-width="1" />
  <line id="slot.graphpaper.v9.line" x1="470" y1="95" x2="470" y2="435" stroke="#2563eb" stroke-width="1" />
  <line id="slot.graphpaper.v10.line" x1="505" y1="95" x2="505" y2="435" stroke="#2563eb" stroke-width="1" />
  <line id="slot.graphpaper.h0.line" x1="155" y1="95" x2="505" y2="95" stroke="#2563eb" stroke-width="1" />
  <line id="slot.graphpaper.h1.line" x1="155" y1="129" x2="505" y2="129" stroke="#2563eb" stroke-width="1" />
  <line id="slot.graphpaper.h2.line" x1="155" y1="163" x2="505" y2="163" stroke="#2563eb" stroke-width="1" />
  <line id="slot.graphpaper.h3.line" x1="155" y1="197" x2="505" y2="197" stroke="#2563eb" stroke-width="1" />
  <line id="slot.graphpaper.h4.line" x1="155" y1="231" x2="505" y2="231" stroke="#2563eb" stroke-width="1" />
  <line id="slot.graphpaper.h5.line" x1="155" y1="265" x2="505" y2="265" stroke="#2563eb" stroke-width="1" />
  <line id="slot.graphpaper.h6.line" x1="155" y1="299" x2="505" y2="299" stroke="#2563eb" stroke-width="1" />
  <line id="slot.graphpaper.h7.line" x1="155" y1="333" x2="505" y2="333" stroke="#2563eb" stroke-width="1" />
  <line id="slot.graphpaper.h8.line" x1="155" y1="367" x2="505" y2="367" stroke="#2563eb" stroke-width="1" />
  <line id="slot.graphpaper.h9.line" x1="155" y1="401" x2="505" y2="401" stroke="#2563eb" stroke-width="1" />
  <line id="slot.graphpaper.h10.line" x1="155" y1="435" x2="505" y2="435" stroke="#2563eb" stroke-width="1" />
  <text id="slot.q.text.text" x="35" y="75" fill="#111111" font-family="Noto Sans KR, sans-serif" font-size="30">원의 중심을 찾아 기호를 선택해 보세요.</text>
  <circle id="slot.circle.circle" cx="330" cy="265" r="135" stroke="#111111" stroke-width="2" fill="none" />
  <circle id="slot.pt.a.circle" cx="330" cy="193" r="5" stroke="#111111" stroke-width="2" fill="#e94f9a" />
  <circle id="slot.pt.b.circle" cx="330" cy="265" r="5" stroke="#111111" stroke-width="2" fill="#e94f9a" />
  <circle id="slot.pt.c.circle" cx="260" cy="301" r="5" stroke="#111111" stroke-width="2" fill="#e94f9a" />
  <circle id="slot.pt.d.circle" cx="434" cy="265" r="5" stroke="#111111" stroke-width="2" fill="#e94f9a" />
  <text id="slot.lb.a.text" x="300" y="185" fill="#111111" font-family="Noto Sans KR, sans-serif" font-size="30">ㄱ</text>
  <text id="slot.lb.b.text" x="295" y="260" fill="#111111" font-family="Noto Sans KR, sans-serif" font-size="30">ㄴ</text>
  <text id="slot.lb.c.text" x="220" y="305" fill="#111111" font-family="Noto Sans KR, sans-serif" font-size="30">ㄷ</text>
  <text id="slot.lb.d.text" x="420" y="255" fill="#111111" font-family="Noto Sans KR, sans-serif" font-size="30">ㄹ</text>
</svg>
