<?xml version="1.0" encoding="UTF-8"?>
<svg xmlns="http://www.w3.org/2000/svg" width="960" height="392" viewBox="0 0 960 392">
  <metadata><problem_id>S3_초등_3_008690</problem_id></metadata>
  <rect x="0" y="0" width="960" height="392" fill="#FFFFFF" />
  <path id="slot.inserted.arc.1.copy5.copy7.path" d="M 295 210 A 90 25 0 0 1 505 210" stroke="#111827" stroke-width="1.5" fill="#ffffff" transform="rotate(27 400 195.11)" stroke-dasharray="10 6" />
  <path id="slot.inserted.arc.1.copy5.copy7.copy8.path" d="M 290 235 A 45 15 0 0 1 390 235" stroke="#111827" stroke-width="1.5" fill="#ffffff" transform="rotate(-28 332.5 221.73)" stroke-dasharray="10 6" />
  <path id="slot.inserted.arc.1.copy5.copy7.copy9.path" d="M 335 285 A 85 20 0 0 1 520 285" stroke="#111827" stroke-width="1.5" fill="#ffffff" transform="rotate(-180 410 270.42)" stroke-dasharray="10 6" />
  <text id="slot.q1.text" x="20" y="50" fill="#111111" font-family="Noto Sans KR, sans-serif" font-size="30">        원의 반지름과 지름을 나타내는 선분을 각각 찾아</text>
  <text id="slot.q2.text" x="40" y="375" fill="#111111" font-family="Noto Sans KR, sans-serif" font-size="30">원의 반지름 ( ㄱ, ㄴ, ㄷ ), 원의 지름 ( ㄱ, ㄴ, ㄷ )</text>
  <text id="slot.q5.text" x="20" y="90" fill="#111111" font-family="Noto Sans KR, sans-serif" font-size="30">기호를 선택해 보세요.</text>
  <circle id="slot.circle.outer.circle" cx="393" cy="208" r="105" stroke="#111111" stroke-width="2" fill="none" />
  <line id="slot.diagram.radius1.line" x1="300" y1="255" x2="395" y2="205" stroke="#111111" stroke-width="2" />
  <line id="slot.diagram.diameter.line" x1="300" y1="160" x2="485" y2="255" stroke="#111111" stroke-width="2" />
  <line id="slot.diagram.arc3.line" x1="300" y1="255" x2="485" y2="255" stroke="#111111" stroke-width="2" />
  <circle id="slot.diagram.center.circle" cx="393" cy="207" r="5" stroke="#111111" stroke-width="2" fill="#ff3ea5" />
  <text id="slot.diagram.label.ga.text" x="410" y="175" fill="#111111" font-family="Noto Sans KR, sans-serif" font-size="20">ㄱ</text>
  <text id="slot.diagram.label.na.text" x="320" y="210" fill="#111111" font-family="Noto Sans KR, sans-serif" font-size="20">ㄴ</text>
  <text id="slot.diagram.label.da.text" x="380" y="300" fill="#111111" font-family="Noto Sans KR, sans-serif" font-size="20">ㄷ</text>
  <text id="slot.diagram.label.da.copy1.text" x="385" y="230" fill="#111111" font-family="Noto Sans KR, sans-serif" font-size="20">ㅇ</text>
</svg>
