<?xml version="1.0" encoding="UTF-8"?>
<svg xmlns="http://www.w3.org/2000/svg" width="550" height="400" viewBox="0 0 550 400">
  <metadata><problem_id>S3_초등_3_008659</problem_id></metadata>
  <rect x="0" y="0" width="550" height="400" fill="#FFFFFF" />
  <text id="slot.question.text" x="72" y="26" fill="#111111" font-family="Noto Sans KR, sans-serif" font-size="26">그림에서 원의 중심을 선택해 보세요.</text>
  <circle id="slot.circle.circle" cx="278" cy="164" r="81" stroke="#222222" stroke-width="1.5" fill="none" />
  <line id="slot.grid.v0.line" x1="170" y1="56" x2="170" y2="272" stroke="#19BDF2" stroke-width="1.1" stroke-dasharray="4 3" />
  <line id="slot.grid.v1.line" x1="197" y1="56" x2="197" y2="272" stroke="#19BDF2" stroke-width="1.1" stroke-dasharray="4 3" />
  <line id="slot.grid.v2.line" x1="224" y1="56" x2="224" y2="272" stroke="#19BDF2" stroke-width="1.1" stroke-dasharray="4 3" />
  <line id="slot.grid.v3.line" x1="251" y1="56" x2="251" y2="272" stroke="#19BDF2" stroke-width="1.1" stroke-dasharray="4 3" />
  <line id="slot.grid.v4.line" x1="278" y1="56" x2="278" y2="272" stroke="#19BDF2" stroke-width="1.1" stroke-dasharray="4 3" />
  <line id="slot.grid.v5.line" x1="305" y1="56" x2="305" y2="272" stroke="#19BDF2" stroke-width="1.1" stroke-dasharray="4 3" />
  <line id="slot.grid.v6.line" x1="332" y1="56" x2="332" y2="272" stroke="#19BDF2" stroke-width="1.1" stroke-dasharray="4 3" />
  <line id="slot.grid.v7.line" x1="359" y1="56" x2="359" y2="272" stroke="#19BDF2" stroke-width="1.1" stroke-dasharray="4 3" />
  <line id="slot.grid.v8.line" x1="386" y1="56" x2="386" y2="272" stroke="#19BDF2" stroke-width="1.1" stroke-dasharray="4 3" />
  <line id="slot.grid.h0.line" x1="170" y1="56" x2="386" y2="56" stroke="#19BDF2" stroke-width="1.1" stroke-dasharray="4 3" />
  <line id="slot.grid.h1.line" x1="170" y1="83" x2="386" y2="83" stroke="#19BDF2" stroke-width="1.1" stroke-dasharray="4 3" />
  <line id="slot.grid.h2.line" x1="170" y1="110" x2="386" y2="110" stroke="#19BDF2" stroke-width="1.1" stroke-dasharray="4 3" />
  <line id="slot.grid.h3.line" x1="170" y1="137" x2="386" y2="137" stroke="#19BDF2" stroke-width="1.1" stroke-dasharray="4 3" />
  <line id="slot.grid.h4.line" x1="170" y1="164" x2="386" y2="164" stroke="#19BDF2" stroke-width="1.1" stroke-dasharray="4 3" />
  <line id="slot.grid.h5.line" x1="170" y1="191" x2="386" y2="191" stroke="#19BDF2" stroke-width="1.1" stroke-dasharray="4 3" />
  <line id="slot.grid.h6.line" x1="170" y1="218" x2="386" y2="218" stroke="#19BDF2" stroke-width="1.1" stroke-dasharray="4 3" />
  <line id="slot.grid.h7.line" x1="170" y1="245" x2="386" y2="245" stroke="#19BDF2" stroke-width="1.1" stroke-dasharray="4 3" />
  <line id="slot.grid.h8.line" x1="170" y1="272" x2="386" y2="272" stroke="#19BDF2" stroke-width="1.1" stroke-dasharray="4 3" />
  <circle id="slot.pt.giyeok.point.circle" cx="197" cy="164" r="4" stroke="#E91E63" stroke-width="1" fill="#E91E63" />
  <circle id="slot.pt.nieun.point.circle" cx="224" cy="137" r="4" stroke="#E91E63" stroke-width="1" fill="#E91E63" />
  <circle id="slot.pt.digeut.point.circle" cx="278" cy="110" r="4" stroke="#E91E63" stroke-width="1" fill="#E91E63" />
  <circle id="slot.pt.rieul.point.circle" cx="278" cy="164" r="4" stroke="#E91E63" stroke-width="1" fill="#E91E63" />
  <text id="slot.pt.giyeok.label.text" x="179" y="182" fill="#111111" font-family="Noto Sans KR, sans-serif" font-size="24">ㄱ</text>
  <text id="slot.pt.nieun.label.text" x="232" y="155" fill="#111111" font-family="Noto Sans KR, sans-serif" font-size="24">ㄴ</text>
  <text id="slot.pt.digeut.label.text" x="286" y="126" fill="#111111" font-family="Noto Sans KR, sans-serif" font-size="24">ㄷ</text>
  <text id="slot.pt.rieul.label.text" x="286" y="182" fill="#111111" font-family="Noto Sans KR, sans-serif" font-size="24">ㄹ</text>
</svg>
