<?xml version="1.0" encoding="UTF-8"?>
<svg xmlns="http://www.w3.org/2000/svg" width="640" height="520" viewBox="0 0 640 520">
  <metadata><problem_id>S3_초등_3_008670</problem_id></metadata>
  <rect x="0" y="0" width="640" height="520" fill="#FFFFFF" />
  <text id="slot.q1.text" x="35" y="42" fill="#111111" font-family="Noto Sans KR, sans-serif" font-size="24" max_width="560" data-raw-text="규칙에 따라 원을 4개 더 그리려고 합니다. 바르게 그린 것을 선택하세요.">
    <tspan x="35" dy="0">규칙에 따라 원을 4개 더 그리려고 합니다. 바르게 그린</tspan>
    <tspan x="35" dy="1.2em">것을 선택하세요.</tspan>
  </text>
  <rect id="slot.top1.box.rect" x="70" y="95" width="480" height="160" fill="none" stroke="#1EA7FF" stroke-width="2" />
  <circle id="slot.top1.c1.r3.circle" cx="150" cy="175" r="60" stroke="#222222" stroke-width="2.2" fill="none" />
  <circle id="slot.top1.c1.r1.circle" cx="150" cy="175" r="20" stroke="#222222" stroke-width="2.2" fill="none" />
  <circle id="slot.top1.c2.r3.circle" cx="230" cy="175" r="60" stroke="#222222" stroke-width="2.2" fill="none" />
  <circle id="slot.top1.c2.r1.circle" cx="230" cy="175" r="20" stroke="#222222" stroke-width="2.2" fill="none" />
  <circle id="slot.top1.c3.r3.circle" cx="310" cy="175" r="60" stroke="#222222" stroke-width="2.2" fill="none" />
  <circle id="slot.top1.c3.r1.circle" cx="310" cy="175" r="20" stroke="#222222" stroke-width="2.2" fill="none" />
  <circle id="slot.top1.c4.r3.circle" cx="370" cy="175" r="60" stroke="#1EA7FF" stroke-width="2.2" fill="none" />
  <circle id="slot.top1.c4.r1.circle" cx="370" cy="175" r="20" stroke="#1EA7FF" stroke-width="2.2" fill="none" />
  <circle id="slot.top1.c5.r3.circle" cx="430" cy="175" r="60" stroke="#1EA7FF" stroke-width="2.2" fill="none" />
  <circle id="slot.top1.c5.r1.circle" cx="430" cy="175" r="20" stroke="#1EA7FF" stroke-width="2.2" fill="none" />
  <line id="slot.top1.grid.v1.line" x1="90" y1="95" x2="90" y2="255" stroke="#1EA7FF" stroke-width="1" />
  <line id="slot.top1.grid.v2.line" x1="110" y1="95" x2="110" y2="255" stroke="#1EA7FF" stroke-width="1" />
  <line id="slot.top1.grid.v3.line" x1="130" y1="95" x2="130" y2="255" stroke="#1EA7FF" stroke-width="1" />
  <line id="slot.top1.grid.v4.line" x1="150" y1="95" x2="150" y2="255" stroke="#1EA7FF" stroke-width="1" />
  <line id="slot.top1.grid.v5.line" x1="170" y1="95" x2="170" y2="255" stroke="#1EA7FF" stroke-width="1" />
  <line id="slot.top1.grid.v6.line" x1="190" y1="95" x2="190" y2="255" stroke="#1EA7FF" stroke-width="1" />
  <line id="slot.top1.grid.v7.line" x1="210" y1="95" x2="210" y2="255" stroke="#1EA7FF" stroke-width="1" />
  <line id="slot.top1.grid.v8.line" x1="230" y1="95" x2="230" y2="255" stroke="#1EA7FF" stroke-width="1" />
  <line id="slot.top1.grid.v9.line" x1="250" y1="95" x2="250" y2="255" stroke="#1EA7FF" stroke-width="1" />
  <line id="slot.top1.grid.v10.line" x1="270" y1="95" x2="270" y2="255" stroke="#1EA7FF" stroke-width="1" />
  <line id="slot.top1.grid.v11.line" x1="290" y1="95" x2="290" y2="255" stroke="#1EA7FF" stroke-width="1" />
  <line id="slot.top1.grid.v12.line" x1="310" y1="95" x2="310" y2="255" stroke="#1EA7FF" stroke-width="1" />
  <line id="slot.top1.grid.v13.line" x1="330" y1="95" x2="330" y2="255" stroke="#1EA7FF" stroke-width="1" />
  <line id="slot.top1.grid.v14.line" x1="350" y1="95" x2="350" y2="255" stroke="#1EA7FF" stroke-width="1" />
  <line id="slot.top1.grid.v15.line" x1="370" y1="95" x2="370" y2="255" stroke="#1EA7FF" stroke-width="1" />
  <line id="slot.top1.grid.v16.line" x1="390" y1="95" x2="390" y2="255" stroke="#1EA7FF" stroke-width="1" />
  <line id="slot.top1.grid.v17.line" x1="410" y1="95" x2="410" y2="255" stroke="#1EA7FF" stroke-width="1" />
  <line id="slot.top1.grid.v18.line" x1="430" y1="95" x2="430" y2="255" stroke="#1EA7FF" stroke-width="1" />
  <line id="slot.top1.grid.v19.line" x1="450" y1="95" x2="450" y2="255" stroke="#1EA7FF" stroke-width="1" />
  <line id="slot.top1.grid.v20.line" x1="470" y1="95" x2="470" y2="255" stroke="#1EA7FF" stroke-width="1" />
  <line id="slot.top1.grid.v21.line" x1="490" y1="95" x2="490" y2="255" stroke="#1EA7FF" stroke-width="1" />
  <line id="slot.top1.grid.v22.line" x1="510" y1="95" x2="510" y2="255" stroke="#1EA7FF" stroke-width="1" />
  <line id="slot.top1.grid.v23.line" x1="530" y1="95" x2="530" y2="255" stroke="#1EA7FF" stroke-width="1" />
  <line id="slot.top1.grid.h1.line" x1="70" y1="115" x2="550" y2="115" stroke="#1EA7FF" stroke-width="1" />
  <line id="slot.top1.grid.h2.line" x1="70" y1="135" x2="550" y2="135" stroke="#1EA7FF" stroke-width="1" />
  <line id="slot.top1.grid.h3.line" x1="70" y1="155" x2="550" y2="155" stroke="#1EA7FF" stroke-width="1" />
  <line id="slot.top1.grid.h4.line" x1="70" y1="175" x2="550" y2="175" stroke="#1EA7FF" stroke-width="1" />
  <line id="slot.top1.grid.h5.line" x1="70" y1="195" x2="550" y2="195" stroke="#1EA7FF" stroke-width="1" />
  <line id="slot.top1.grid.h6.line" x1="70" y1="215" x2="550" y2="215" stroke="#1EA7FF" stroke-width="1" />
  <line id="slot.top1.grid.h7.line" x1="70" y1="235" x2="550" y2="235" stroke="#1EA7FF" stroke-width="1" />
  <rect id="slot.top2.box.rect" x="70" y="305" width="480" height="160" fill="none" stroke="#1EA7FF" stroke-width="2" />
  <circle id="slot.top2.c1.r3.circle" cx="150" cy="385" r="60" stroke="#222222" stroke-width="2.2" fill="none" />
  <circle id="slot.top2.c1.r1.circle" cx="150" cy="385" r="20" stroke="#222222" stroke-width="2.2" fill="none" />
  <circle id="slot.top2.c2.r3.circle" cx="230" cy="385" r="60" stroke="#222222" stroke-width="2.2" fill="none" />
  <circle id="slot.top2.c2.r1.circle" cx="230" cy="385" r="20" stroke="#222222" stroke-width="2.2" fill="none" />
  <circle id="slot.top2.c3.r3.circle" cx="310" cy="385" r="60" stroke="#222222" stroke-width="2.2" fill="none" />
  <circle id="slot.top2.c3.r1.circle" cx="310" cy="385" r="20" stroke="#222222" stroke-width="2.2" fill="none" />
  <circle id="slot.top2.c4.r3.circle" cx="390" cy="385" r="60" stroke="#1EA7FF" stroke-width="2.2" fill="none" />
  <circle id="slot.top2.c4.r1.circle" cx="390" cy="385" r="20" stroke="#1EA7FF" stroke-width="2.2" fill="none" />
  <circle id="slot.top2.c5.r3.circle" cx="470" cy="385" r="60" stroke="#1EA7FF" stroke-width="2.2" fill="none" />
  <circle id="slot.top2.c5.r1.circle" cx="470" cy="385" r="20" stroke="#1EA7FF" stroke-width="2.2" fill="none" />
  <line id="slot.top2.grid.v1.line" x1="90" y1="305" x2="90" y2="465" stroke="#1EA7FF" stroke-width="1" />
  <line id="slot.top2.grid.v2.line" x1="110" y1="305" x2="110" y2="465" stroke="#1EA7FF" stroke-width="1" />
  <line id="slot.top2.grid.v3.line" x1="130" y1="305" x2="130" y2="465" stroke="#1EA7FF" stroke-width="1" />
  <line id="slot.top2.grid.v4.line" x1="150" y1="305" x2="150" y2="465" stroke="#1EA7FF" stroke-width="1" />
  <line id="slot.top2.grid.v5.line" x1="170" y1="305" x2="170" y2="465" stroke="#1EA7FF" stroke-width="1" />
  <line id="slot.top2.grid.v6.line" x1="190" y1="305" x2="190" y2="465" stroke="#1EA7FF" stroke-width="1" />
  <line id="slot.top2.grid.v7.line" x1="210" y1="305" x2="210" y2="465" stroke="#1EA7FF" stroke-width="1" />
  <line id="slot.top2.grid.v8.line" x1="230" y1="305" x2="230" y2="465" stroke="#1EA7FF" stroke-width="1" />
  <line id="slot.top2.grid.v9.line" x1="250" y1="305" x2="250" y2="465" stroke="#1EA7FF" stroke-width="1" />
  <line id="slot.top2.grid.v10.line" x1="270" y1="305" x2="270" y2="465" stroke="#1EA7FF" stroke-width="1" />
  <line id="slot.top2.grid.v11.line" x1="290" y1="305" x2="290" y2="465" stroke="#1EA7FF" stroke-width="1" />
  <line id="slot.top2.grid.v12.line" x1="310" y1="305" x2="310" y2="465" stroke="#1EA7FF" stroke-width="1" />
  <line id="slot.top2.grid.v13.line" x1="330" y1="305" x2="330" y2="465" stroke="#1EA7FF" stroke-width="1" />
  <line id="slot.top2.grid.v14.line" x1="350" y1="305" x2="350" y2="465" stroke="#1EA7FF" stroke-width="1" />
  <line id="slot.top2.grid.v15.line" x1="370" y1="305" x2="370" y2="465" stroke="#1EA7FF" stroke-width="1" />
  <line id="slot.top2.grid.v16.line" x1="390" y1="305" x2="390" y2="465" stroke="#1EA7FF" stroke-width="1" />
  <line id="slot.top2.grid.v17.line" x1="410" y1="305" x2="410" y2="465" stroke="#1EA7FF" stroke-width="1" />
  <line id="slot.top2.grid.v18.line" x1="430" y1="305" x2="430" y2="465" stroke="#1EA7FF" stroke-width="1" />
  <line id="slot.top2.grid.v19.line" x1="450" y1="305" x2="450" y2="465" stroke="#1EA7FF" stroke-width="1" />
  <line id="slot.top2.grid.v20.line" x1="470" y1="305" x2="470" y2="465" stroke="#1EA7FF" stroke-width="1" />
  <line id="slot.top2.grid.v21.line" x1="490" y1="305" x2="490" y2="465" stroke="#1EA7FF" stroke-width="1" />
  <line id="slot.top2.grid.v22.line" x1="510" y1="305" x2="510" y2="465" stroke="#1EA7FF" stroke-width="1" />
  <line id="slot.top2.grid.v23.line" x1="530" y1="305" x2="530" y2="465" stroke="#1EA7FF" stroke-width="1" />
  <line id="slot.top2.grid.h1.line" x1="70" y1="325" x2="550" y2="325" stroke="#1EA7FF" stroke-width="1" />
  <line id="slot.top2.grid.h2.line" x1="70" y1="345" x2="550" y2="345" stroke="#1EA7FF" stroke-width="1" />
  <line id="slot.top2.grid.h3.line" x1="70" y1="365" x2="550" y2="365" stroke="#1EA7FF" stroke-width="1" />
  <line id="slot.top2.grid.h4.line" x1="70" y1="385" x2="550" y2="385" stroke="#1EA7FF" stroke-width="1" />
  <line id="slot.top2.grid.h5.line" x1="70" y1="405" x2="550" y2="405" stroke="#1EA7FF" stroke-width="1" />
  <line id="slot.top2.grid.h6.line" x1="70" y1="425" x2="550" y2="425" stroke="#1EA7FF" stroke-width="1" />
  <line id="slot.top2.grid.h7.line" x1="70" y1="445" x2="550" y2="445" stroke="#1EA7FF" stroke-width="1" />
</svg>
