<?xml version="1.0" encoding="UTF-8"?>
<svg xmlns="http://www.w3.org/2000/svg" width="940" height="530" viewBox="0 0 940 530">
  <metadata><problem_id>S3_초등_3_008717</problem_id></metadata>
  <rect x="0" y="0" width="940" height="530" fill="#FFFFFF" />
  <line id="slot.graphpaper.v0.line" x1="355" y1="86" x2="355" y2="326" stroke="#2563eb" stroke-width="1" />
  <line id="slot.graphpaper.v1.line" x1="375" y1="86" x2="375" y2="326" stroke="#2563eb" stroke-width="1" />
  <line id="slot.graphpaper.v2.line" x1="395" y1="86" x2="395" y2="326" stroke="#2563eb" stroke-width="1" />
  <line id="slot.graphpaper.v3.line" x1="415" y1="86" x2="415" y2="326" stroke="#2563eb" stroke-width="1" />
  <line id="slot.graphpaper.v4.line" x1="435" y1="86" x2="435" y2="326" stroke="#2563eb" stroke-width="1" />
  <line id="slot.graphpaper.v5.line" x1="455" y1="86" x2="455" y2="326" stroke="#2563eb" stroke-width="1" />
  <line id="slot.graphpaper.v6.line" x1="475" y1="86" x2="475" y2="326" stroke="#2563eb" stroke-width="1" />
  <line id="slot.graphpaper.v7.line" x1="495" y1="86" x2="495" y2="326" stroke="#2563eb" stroke-width="1" />
  <line id="slot.graphpaper.v8.line" x1="515" y1="86" x2="515" y2="326" stroke="#2563eb" stroke-width="1" />
  <line id="slot.graphpaper.v9.line" x1="535" y1="86" x2="535" y2="326" stroke="#2563eb" stroke-width="1" />
  <line id="slot.graphpaper.v10.line" x1="555" y1="86" x2="555" y2="326" stroke="#2563eb" stroke-width="1" />
  <line id="slot.graphpaper.v11.line" x1="575" y1="86" x2="575" y2="326" stroke="#2563eb" stroke-width="1" />
  <line id="slot.graphpaper.v12.line" x1="595" y1="86" x2="595" y2="326" stroke="#2563eb" stroke-width="1" />
  <line id="slot.graphpaper.h0.line" x1="355" y1="86" x2="595" y2="86" stroke="#2563eb" stroke-width="1" />
  <line id="slot.graphpaper.h1.line" x1="355" y1="106" x2="595" y2="106" stroke="#2563eb" stroke-width="1" />
  <line id="slot.graphpaper.h2.line" x1="355" y1="126" x2="595" y2="126" stroke="#2563eb" stroke-width="1" />
  <line id="slot.graphpaper.h3.line" x1="355" y1="146" x2="595" y2="146" stroke="#2563eb" stroke-width="1" />
  <line id="slot.graphpaper.h4.line" x1="355" y1="166" x2="595" y2="166" stroke="#2563eb" stroke-width="1" />
  <line id="slot.graphpaper.h5.line" x1="355" y1="186" x2="595" y2="186" stroke="#2563eb" stroke-width="1" />
  <line id="slot.graphpaper.h6.line" x1="355" y1="206" x2="595" y2="206" stroke="#2563eb" stroke-width="1" />
  <line id="slot.graphpaper.h7.line" x1="355" y1="226" x2="595" y2="226" stroke="#2563eb" stroke-width="1" />
  <line id="slot.graphpaper.h8.line" x1="355" y1="246" x2="595" y2="246" stroke="#2563eb" stroke-width="1" />
  <line id="slot.graphpaper.h9.line" x1="355" y1="266" x2="595" y2="266" stroke="#2563eb" stroke-width="1" />
  <line id="slot.graphpaper.h10.line" x1="355" y1="286" x2="595" y2="286" stroke="#2563eb" stroke-width="1" />
  <line id="slot.graphpaper.h11.line" x1="355" y1="306" x2="595" y2="306" stroke="#2563eb" stroke-width="1" />
  <line id="slot.graphpaper.h12.line" x1="355" y1="326" x2="595" y2="326" stroke="#2563eb" stroke-width="1" />
  <text id="slot.q1.text" x="14" y="28" fill="#111111" font-family="Noto Sans KR, sans-serif" font-size="28">규칙에 따라 원을 그린 것입니다. 그린 규칙을 바르게 말한 사람을  </text>
  <text id="slot.q2.text" x="14" y="62" fill="#111111" font-family="Noto Sans KR, sans-serif" font-size="28">선택하세요.</text>
  <circle id="slot.circle1.circle" cx="475" cy="206" r="20" stroke="#111111" stroke-width="2" fill="none" />
  <circle id="slot.circle2.circle" cx="475" cy="206" r="60" stroke="#111111" stroke-width="2" fill="none" />
  <circle id="slot.circle3.circle" cx="475" cy="206" r="100" stroke="#111111" stroke-width="2" fill="none" />
  <circle id="slot.pt.center.circle" cx="476" cy="207" r="4" stroke="#111111" stroke-width="2" fill="#ff4aa2" />
  <rect id="slot.box.rect" x="20" y="345" width="885" height="90" fill="none" stroke="#7DAA00" stroke-width="1.4" />
  <text id="slot.s1.text" x="35" y="380" fill="#111111" font-family="Noto Sans KR, sans-serif" font-size="30">정은: 원의 중심이 모두 다르고 반지름이 모두 1칸씩 늘어나게 그렸어.</text>
  <text id="slot.s2.text" x="35" y="420" fill="#111111" font-family="Noto Sans KR, sans-serif" font-size="30">민수: 원의 중심이 모두 같고 반지름이 모두 2칸씩 늘어나게 그렸어.</text>
  <text id="slot.s3.text" x="350" y="475" fill="#111111" font-family="Noto Sans KR, sans-serif" font-size="30">( 정은 , 민수 )</text>
</svg>
