<?xml version="1.0" encoding="UTF-8"?>
<svg xmlns="http://www.w3.org/2000/svg" width="926" height="410" viewBox="0 0 926 410">
  <metadata><problem_id>S3_초등_3_008674</problem_id></metadata>
  <rect x="0" y="0" width="926" height="410" fill="#FFFFFF" />
  <text id="slot.header.text.text" x="74" y="30" fill="#111111" font-family="Noto Sans KR, sans-serif" font-size="26">원을 바르게 완성한 것을 선택하세요.</text>
  <text id="slot.header.text.copy1.text" x="95" y="245" fill="#111111" font-family="Noto Sans KR, sans-serif" font-size="25">가.</text>
  <text id="slot.header.text.copy1.copy2.text" x="365" y="245" fill="#111111" font-family="Noto Sans KR, sans-serif" font-size="25">나.</text>
  <text id="slot.header.text.copy1.copy3.text" x="630" y="245" fill="#111111" font-family="Noto Sans KR, sans-serif" font-size="25">다.</text>
  <rect id="slot.ref.square.rect" x="407" y="48" width="152" height="152" fill="#ffffff" stroke="#d5c400" stroke-width="2" />
  <path id="slot.ref.arc.path" d="M 483.0 48.0 A 76.0 76.0 0 1 0 559.0 124.0" stroke="#111111" stroke-width="2.1" fill="none" />
  <circle id="slot.ref.center.circle" cx="483" cy="124" r="3.5" stroke="none" stroke-width="0" fill="#e4007f" />
  <rect id="slot.choice.left.square.rect" x="138" y="226" width="152" height="152" fill="#ffffff" stroke="#d5c400" stroke-width="2" />
  <path id="slot.choice.left.base.path" d="M 214.0 226.0 A 76.0 76.0 0 1 0 290.0 302.0" stroke="#111111" stroke-width="2.1" fill="none" />
  <path id="slot.choice.left.red.path" d="M 214.0 226.0 A 76.0 76.0 0 0 0 290.0 302.0" stroke="#ff0000" stroke-width="2.1" fill="none" />
  <rect id="slot.choice.middle.square.rect" x="407" y="226" width="152" height="152" fill="#ffffff" stroke="#d5c400" stroke-width="2" />
  <path id="slot.choice.middle.base.path" d="M 483.0 226.0 A 76.0 76.0 0 1 0 559.0 302.0" stroke="#111111" stroke-width="2.1" fill="none" />
  <rect id="slot.choice.right.square.rect" x="676" y="226" width="152" height="152" fill="#ffffff" stroke="#d5c400" stroke-width="2" />
  <path id="slot.choice.right.base.path" d="M 752.0 226.0 A 76.0 76.0 0 1 0 828.0 302.0" stroke="#111111" stroke-width="2.1" fill="none" />
  <path id="slot.choice.right.red.path" d="M 752.0 226.0 A 76.0 76.0 0 0 1 828.0 302.0" stroke="#ff0000" stroke-width="2.1" fill="none" />
  <line id="slot.choice.middle.red.line" x1="483" y1="226" x2="559" y2="302" stroke="#ff0000" stroke-width="2.1" />
  <circle id="slot.choice.left.center.circle" cx="214" cy="302" r="3.5" stroke="none" stroke-width="0" fill="#e4007f" />
  <circle id="slot.choice.middle.center.circle" cx="483" cy="302" r="3.5" stroke="none" stroke-width="0" fill="#e4007f" />
  <circle id="slot.choice.right.center.circle" cx="752" cy="302" r="3.5" stroke="none" stroke-width="0" fill="#e4007f" />
</svg>
