<?xml version="1.0" encoding="UTF-8"?>
<svg xmlns="http://www.w3.org/2000/svg" width="960" height="620" viewBox="0 0 960 620">
  <metadata><problem_id>S3_초등_3_008652</problem_id></metadata>
  <rect x="0" y="0" width="960" height="620" fill="#FFFFFF" />
  <text id="slot.qtext1.text" x="35" y="35" fill="#111111" font-family="Noto Sans KR, sans-serif" font-size="25">규칙에 따라 원을 그린 것입니다. 그린 규칙을 바르게 말한 사람을 선택</text>
  <text id="slot.qtext2.text" x="36" y="70" fill="#111111" font-family="Noto Sans KR, sans-serif" font-size="24">해 보세요.</text>
  <path id="slot.grid.frame.path" d="M 118.0 150.0 L 400.0 150.0 L 400.0 432.0 L 118.0 432.0 Z" stroke="#37C7FF" stroke-width="1.4" fill="#ffffff" stroke-dasharray="4 3" />
  <path id="slot.grid.v1.path" d="M 141.50 150.0 L 141.50 432.0" stroke="#37C7FF" stroke-width="1" fill="none" stroke-dasharray="4 3" />
  <path id="slot.grid.h1.path" d="M 118.0 173.50 L 400.0 173.50" stroke="#37C7FF" stroke-width="1" fill="none" stroke-dasharray="4 3" />
  <path id="slot.grid.v2.path" d="M 165.00 150.0 L 165.00 432.0" stroke="#37C7FF" stroke-width="1" fill="none" stroke-dasharray="4 3" />
  <path id="slot.grid.h2.path" d="M 118.0 197.00 L 400.0 197.00" stroke="#37C7FF" stroke-width="1" fill="none" stroke-dasharray="4 3" />
  <path id="slot.grid.v3.path" d="M 188.50 150.0 L 188.50 432.0" stroke="#37C7FF" stroke-width="1" fill="none" stroke-dasharray="4 3" />
  <path id="slot.grid.h3.path" d="M 118.0 220.50 L 400.0 220.50" stroke="#37C7FF" stroke-width="1" fill="none" stroke-dasharray="4 3" />
  <path id="slot.grid.v4.path" d="M 212.00 150.0 L 212.00 432.0" stroke="#37C7FF" stroke-width="1" fill="none" stroke-dasharray="4 3" />
  <path id="slot.grid.h4.path" d="M 118.0 244.00 L 400.0 244.00" stroke="#37C7FF" stroke-width="1" fill="none" stroke-dasharray="4 3" />
  <path id="slot.grid.v5.path" d="M 235.50 150.0 L 235.50 432.0" stroke="#37C7FF" stroke-width="1" fill="none" stroke-dasharray="4 3" />
  <path id="slot.grid.h5.path" d="M 118.0 267.50 L 400.0 267.50" stroke="#37C7FF" stroke-width="1" fill="none" stroke-dasharray="4 3" />
  <path id="slot.grid.v6.path" d="M 259.00 150.0 L 259.00 432.0" stroke="#37C7FF" stroke-width="1" fill="none" stroke-dasharray="4 3" />
  <path id="slot.grid.h6.path" d="M 118.0 291.00 L 400.0 291.00" stroke="#37C7FF" stroke-width="1" fill="none" stroke-dasharray="4 3" />
  <path id="slot.grid.v7.path" d="M 282.50 150.0 L 282.50 432.0" stroke="#37C7FF" stroke-width="1" fill="none" stroke-dasharray="4 3" />
  <path id="slot.grid.h7.path" d="M 118.0 314.50 L 400.0 314.50" stroke="#37C7FF" stroke-width="1" fill="none" stroke-dasharray="4 3" />
  <path id="slot.grid.v8.path" d="M 306.00 150.0 L 306.00 432.0" stroke="#37C7FF" stroke-width="1" fill="none" stroke-dasharray="4 3" />
  <path id="slot.grid.h8.path" d="M 118.0 338.00 L 400.0 338.00" stroke="#37C7FF" stroke-width="1" fill="none" stroke-dasharray="4 3" />
  <path id="slot.grid.v9.path" d="M 329.50 150.0 L 329.50 432.0" stroke="#37C7FF" stroke-width="1" fill="none" stroke-dasharray="4 3" />
  <path id="slot.grid.h9.path" d="M 118.0 361.50 L 400.0 361.50" stroke="#37C7FF" stroke-width="1" fill="none" stroke-dasharray="4 3" />
  <path id="slot.grid.v10.path" d="M 353.00 150.0 L 353.00 432.0" stroke="#37C7FF" stroke-width="1" fill="none" stroke-dasharray="4 3" />
  <path id="slot.grid.h10.path" d="M 118.0 385.00 L 400.0 385.00" stroke="#37C7FF" stroke-width="1" fill="none" stroke-dasharray="4 3" />
  <path id="slot.grid.v11.path" d="M 376.50 150.0 L 376.50 432.0" stroke="#37C7FF" stroke-width="1" fill="none" stroke-dasharray="4 3" />
  <path id="slot.grid.h11.path" d="M 118.0 408.50 L 400.0 408.50" stroke="#37C7FF" stroke-width="1" fill="none" stroke-dasharray="4 3" />
  <circle id="slot.circle.outer.circle" cx="259" cy="291" r="118" stroke="#444444" stroke-width="1.4" fill="none" />
  <circle id="slot.circle.middle.circle" cx="259" cy="291" r="71" stroke="#444444" stroke-width="1.4" fill="none" />
  <circle id="slot.circle.inner.circle" cx="259" cy="291" r="23.5" stroke="#444444" stroke-width="1.4" fill="none" />
  <circle id="slot.center.circle" cx="259" cy="291" r="4" stroke="none" stroke-width="2" fill="#E11A86" />
  <polygon id="slot.sunga.character.body.polygon" points="497,259 567,259 556,206 508,206" stroke="none" stroke-width="2" fill="#F16078" />
  <circle id="slot.sunga.character.ear.left.circle" cx="501" cy="167" r="9" stroke="none" stroke-width="2" fill="#ffd8b3" />
  <circle id="slot.sunga.character.ear.right.circle" cx="563" cy="167" r="9" stroke="none" stroke-width="2" fill="#ffd8b3" />
  <circle id="slot.sunga.character.head.circle" cx="532" cy="164" r="29" stroke="none" stroke-width="2" fill="#ffd8b3" />
  <path id="slot.sunga.character.hair.cap.path" d="M 503.0 163.0 C 505.0 132.0, 560.0 129.0, 562.0 163.0 C 547.0 146.0, 535.0 156.0, 528.0 144.0 C 520.0 157.0, 510.0 146.0, 503.0 163.0 Z" stroke="none" stroke-width="2" fill="#3A2116" />
  <path id="slot.sunga.character.smile.path" d="M 524.0 182.0 Q 532.0 189.0 540.0 182.0" stroke="#b76b3a" stroke-width="1.6" fill="none" />
  <rect id="slot.sunga.namebox.rect" x="493" y="236" width="74" height="38" fill="#FCE6F5" stroke="#D77BBE" stroke-width="1.4" rx="10" ry="10" />
  <path id="slot.sunga.bubble.path" d="M 605.0 181.0 C 605.0 113.14, 655.4 94.0, 725.0 94.0 C 794.6 94.0, 845.0 113.14, 845.0 181.0 C 845.0 248.86, 794.6 268.0, 725.0 268.0 C 655.4 268.0, 605.0 248.86, 605.0 181.0 Z" stroke="#222222" stroke-width="1.6" fill="#ffffff" />
  <polygon id="slot.jaewon.character.body.polygon" points="497,433 567,433 556,380 508,380" stroke="none" stroke-width="2" fill="#1E8AD6" />
  <circle id="slot.jaewon.character.ear.left.circle" cx="501" cy="341" r="9" stroke="none" stroke-width="2" fill="#ffd8b3" />
  <circle id="slot.jaewon.character.ear.right.circle" cx="563" cy="341" r="9" stroke="none" stroke-width="2" fill="#ffd8b3" />
  <circle id="slot.jaewon.character.head.circle" cx="532" cy="338" r="29" stroke="none" stroke-width="2" fill="#ffd8b3" />
  <path id="slot.jaewon.character.hair.cap.path" d="M 503.0 337.0 C 505.0 306.0, 560.0 303.0, 562.0 337.0 C 547.0 320.0, 535.0 330.0, 528.0 318.0 C 520.0 331.0, 510.0 320.0, 503.0 337.0 Z" stroke="none" stroke-width="2" fill="#4B260B" />
  <path id="slot.jaewon.character.smile.path" d="M 524.0 356.0 Q 532.0 363.0 540.0 356.0" stroke="#b76b3a" stroke-width="1.6" fill="none" />
  <rect id="slot.jaewon.namebox.rect" x="493" y="416" width="74" height="38" fill="#FCE6F5" stroke="#D77BBE" stroke-width="1.4" rx="10" ry="10" />
  <path id="slot.jaewon.bubble.path" d="M 605.0 363.0 C 605.0 295.14, 655.4 276.0, 725.0 276.0 C 794.6 276.0, 845.0 295.14, 845.0 363.0 C 845.0 430.86, 794.6 450.0, 725.0 450.0 C 655.4 450.0, 605.0 430.86, 605.0 363.0 Z" stroke="#222222" stroke-width="1.6" fill="#ffffff" />
  <circle id="slot.sunga.character.eye.left.circle" cx="522" cy="170" r="3.8" stroke="none" stroke-width="2" fill="#2b2118" />
  <circle id="slot.sunga.character.eye.right.circle" cx="542" cy="170" r="3.8" stroke="none" stroke-width="2" fill="#2b2118" />
  <circle id="slot.jaewon.character.eye.left.circle" cx="522" cy="344" r="3.8" stroke="none" stroke-width="2" fill="#2b2118" />
  <circle id="slot.jaewon.character.eye.right.circle" cx="542" cy="344" r="3.8" stroke="none" stroke-width="2" fill="#2b2118" />
  <text id="slot.sunga.name.text" x="530" y="263" fill="#333333" font-family="Noto Sans KR, sans-serif" font-size="23" text-anchor="middle">승아</text>
  <text id="slot.sunga.text1.text" x="725" y="137" fill="#111111" font-family="Noto Sans KR, sans-serif" font-size="23" text-anchor="middle">원의 중심이 모두</text>
  <text id="slot.sunga.text2.text" x="725" y="172" fill="#111111" font-family="Noto Sans KR, sans-serif" font-size="23" text-anchor="middle">다르고 원의 반지름이</text>
  <text id="slot.sunga.text3.text" x="725" y="207" fill="#111111" font-family="Noto Sans KR, sans-serif" font-size="23" text-anchor="middle">모눈 1칸씩 늘어나게</text>
  <text id="slot.sunga.text4.text" x="725" y="242" fill="#111111" font-family="Noto Sans KR, sans-serif" font-size="23" text-anchor="middle">그렸어요.</text>
  <text id="slot.jaewon.name.text" x="530" y="443" fill="#333333" font-family="Noto Sans KR, sans-serif" font-size="23" text-anchor="middle">재원</text>
  <text id="slot.jaewon.text1.text" x="725" y="319" fill="#111111" font-family="Noto Sans KR, sans-serif" font-size="23" text-anchor="middle">원의 중심이 모두</text>
  <text id="slot.jaewon.text2.text" x="725" y="354" fill="#111111" font-family="Noto Sans KR, sans-serif" font-size="23" text-anchor="middle">같고 원의 반지름이</text>
  <text id="slot.jaewon.text3.text" x="725" y="389" fill="#111111" font-family="Noto Sans KR, sans-serif" font-size="23" text-anchor="middle">모눈 2칸씩 늘어나게</text>
  <text id="slot.jaewon.text4.text" x="725" y="424" fill="#111111" font-family="Noto Sans KR, sans-serif" font-size="23" text-anchor="middle">그렸어요.</text>
</svg>
