<?xml version="1.0" encoding="UTF-8"?>
<svg xmlns="http://www.w3.org/2000/svg" width="920" height="560" viewBox="0 0 920 560">
  <metadata><problem_id>S3_초등_3_008658</problem_id></metadata>
  <rect x="0" y="0" width="920" height="560" fill="#FFFFFF" />
  <text id="slot.q1.text" x="95" y="15" fill="#111111" font-family="Noto Sans KR, sans-serif" font-size="25" data-raw-text="
    
    주어진 모양을 그리기 위하여 컴퍼스의 침을 꽂아야 할 곳을 모두
    선택해보세요  
  ">
    <tspan x="95" dy="0"></tspan>
    <tspan x="95" dy="1.2em">    </tspan>
    <tspan x="95" dy="1.2em">    주어진 모양을 그리기 위하여 컴퍼스의 침을 꽂아야 할 곳을 모두</tspan>
    <tspan x="95" dy="1.2em">    선택해보세요  </tspan>
    <tspan x="95" dy="1.2em">  </tspan>
  </text>
  <circle id="slot.circle.giyeok.circle" cx="372" cy="264" r="34" stroke="#333333" stroke-width="1.5" fill="none" />
  <circle id="slot.circle.nieun.circle" cx="406" cy="264" r="68" stroke="#333333" stroke-width="1.5" fill="none" />
  <circle id="slot.circle.digeut.circle" cx="440" cy="264" r="102" stroke="#333333" stroke-width="1.5" fill="none" />
  <circle id="slot.circle.rieul.circle" cx="474" cy="264" r="136" stroke="#333333" stroke-width="1.5" fill="none" />
  <line id="slot.grid.v0.line" x1="304" y1="94" x2="304" y2="434" stroke="#19BDF2" stroke-width="1.2" stroke-dasharray="5 3" />
  <line id="slot.grid.v1.line" x1="338" y1="94" x2="338" y2="434" stroke="#19BDF2" stroke-width="1.2" stroke-dasharray="5 3" />
  <line id="slot.grid.v2.line" x1="372" y1="94" x2="372" y2="434" stroke="#19BDF2" stroke-width="1.2" stroke-dasharray="5 3" />
  <line id="slot.grid.v3.line" x1="406" y1="94" x2="406" y2="434" stroke="#19BDF2" stroke-width="1.2" stroke-dasharray="5 3" />
  <line id="slot.grid.v4.line" x1="440" y1="94" x2="440" y2="434" stroke="#19BDF2" stroke-width="1.2" stroke-dasharray="5 3" />
  <line id="slot.grid.v5.line" x1="474" y1="94" x2="474" y2="434" stroke="#19BDF2" stroke-width="1.2" stroke-dasharray="5 3" />
  <line id="slot.grid.v6.line" x1="508" y1="94" x2="508" y2="434" stroke="#19BDF2" stroke-width="1.2" stroke-dasharray="5 3" />
  <line id="slot.grid.v7.line" x1="542" y1="94" x2="542" y2="434" stroke="#19BDF2" stroke-width="1.2" stroke-dasharray="5 3" />
  <line id="slot.grid.v8.line" x1="576" y1="94" x2="576" y2="434" stroke="#19BDF2" stroke-width="1.2" stroke-dasharray="5 3" />
  <line id="slot.grid.v9.line" x1="610" y1="94" x2="610" y2="434" stroke="#19BDF2" stroke-width="1.2" stroke-dasharray="5 3" />
  <line id="slot.grid.v10.line" x1="644" y1="94" x2="644" y2="434" stroke="#19BDF2" stroke-width="1.2" stroke-dasharray="5 3" />
  <line id="slot.grid.h0.line" x1="304" y1="94" x2="644" y2="94" stroke="#19BDF2" stroke-width="1.2" stroke-dasharray="5 3" />
  <line id="slot.grid.h1.line" x1="304" y1="128" x2="644" y2="128" stroke="#19BDF2" stroke-width="1.2" stroke-dasharray="5 3" />
  <line id="slot.grid.h2.line" x1="304" y1="162" x2="644" y2="162" stroke="#19BDF2" stroke-width="1.2" stroke-dasharray="5 3" />
  <line id="slot.grid.h3.line" x1="304" y1="196" x2="644" y2="196" stroke="#19BDF2" stroke-width="1.2" stroke-dasharray="5 3" />
  <line id="slot.grid.h4.line" x1="304" y1="230" x2="644" y2="230" stroke="#19BDF2" stroke-width="1.2" stroke-dasharray="5 3" />
  <line id="slot.grid.h5.line" x1="304" y1="264" x2="644" y2="264" stroke="#19BDF2" stroke-width="1.2" stroke-dasharray="5 3" />
  <line id="slot.grid.h6.line" x1="304" y1="298" x2="644" y2="298" stroke="#19BDF2" stroke-width="1.2" stroke-dasharray="5 3" />
  <line id="slot.grid.h7.line" x1="304" y1="332" x2="644" y2="332" stroke="#19BDF2" stroke-width="1.2" stroke-dasharray="5 3" />
  <line id="slot.grid.h8.line" x1="304" y1="366" x2="644" y2="366" stroke="#19BDF2" stroke-width="1.2" stroke-dasharray="5 3" />
  <line id="slot.grid.h9.line" x1="304" y1="400" x2="644" y2="400" stroke="#19BDF2" stroke-width="1.2" stroke-dasharray="5 3" />
  <line id="slot.grid.h10.line" x1="304" y1="434" x2="644" y2="434" stroke="#19BDF2" stroke-width="1.2" stroke-dasharray="5 3" />
  <circle id="slot.pt.giyeok.point.circle" cx="372" cy="264" r="4.4" stroke="#EC1685" stroke-width="1" fill="#EC1685" />
  <circle id="slot.pt.nieun.point.circle" cx="406" cy="264" r="4.4" stroke="#EC1685" stroke-width="1" fill="#EC1685" />
  <circle id="slot.pt.digeut.point.circle" cx="440" cy="264" r="4.4" stroke="#EC1685" stroke-width="1" fill="#EC1685" />
  <circle id="slot.pt.rieul.point.circle" cx="474" cy="264" r="4.4" stroke="#EC1685" stroke-width="1" fill="#EC1685" />
  <circle id="slot.pt.mieum.point.circle" cx="508" cy="264" r="4.4" stroke="#EC1685" stroke-width="1" fill="#EC1685" />
  <circle id="slot.pt.bieup.point.circle" cx="542" cy="264" r="4.4" stroke="#EC1685" stroke-width="1" fill="#EC1685" />
  <text id="slot.pt.giyeok.label.text" x="354" y="244" fill="#111111" font-family="Noto Sans KR, sans-serif" font-size="24">ㄱ</text>
  <text id="slot.pt.nieun.label.text" x="388" y="244" fill="#111111" font-family="Noto Sans KR, sans-serif" font-size="24">ㄴ</text>
  <text id="slot.pt.digeut.label.text" x="422" y="244" fill="#111111" font-family="Noto Sans KR, sans-serif" font-size="24">ㄷ</text>
  <text id="slot.pt.rieul.label.text" x="456" y="244" fill="#111111" font-family="Noto Sans KR, sans-serif" font-size="24">ㄹ</text>
  <text id="slot.pt.mieum.label.text" x="490" y="244" fill="#111111" font-family="Noto Sans KR, sans-serif" font-size="24">ㅁ</text>
  <text id="slot.pt.bieup.label.text" x="524" y="244" fill="#111111" font-family="Noto Sans KR, sans-serif" font-size="24">ㅂ</text>
</svg>
