<?xml version="1.0" encoding="UTF-8"?>
<svg xmlns="http://www.w3.org/2000/svg" width="896" height="480" viewBox="0 0 896 480">
  <metadata><problem_id>S3_초등_3_008702</problem_id></metadata>
  <rect x="0" y="0" width="896" height="480" fill="#FFFFFF" />
  <line id="slot.graphpaper.v0.line" x1="140" y1="70" x2="140" y2="420" stroke="#2563eb" stroke-width="1" />
  <line id="slot.graphpaper.v1.line" x1="185" y1="70" x2="185" y2="420" stroke="#2563eb" stroke-width="1" />
  <line id="slot.graphpaper.v2.line" x1="225" y1="70" x2="225" y2="420" stroke="#2563eb" stroke-width="1" />
  <line id="slot.graphpaper.v3.line" x1="270" y1="70" x2="270" y2="420" stroke="#2563eb" stroke-width="1" />
  <line id="slot.graphpaper.v4.line" x1="310" y1="70" x2="310" y2="420" stroke="#2563eb" stroke-width="1" />
  <line id="slot.graphpaper.v5.line" x1="355" y1="70" x2="355" y2="420" stroke="#2563eb" stroke-width="1" />
  <line id="slot.graphpaper.v6.line" x1="405" y1="70" x2="405" y2="420" stroke="#2563eb" stroke-width="1" />
  <line id="slot.graphpaper.v7.line" x1="445" y1="70" x2="445" y2="420" stroke="#2563eb" stroke-width="1" />
  <line id="slot.graphpaper.v8.line" x1="485" y1="70" x2="485" y2="420" stroke="#2563eb" stroke-width="1" />
  <line id="slot.graphpaper.v9.line" x1="525" y1="70" x2="525" y2="420" stroke="#2563eb" stroke-width="1" />
  <line id="slot.graphpaper.v10.line" x1="570" y1="70" x2="570" y2="420" stroke="#2563eb" stroke-width="1" />
  <line id="slot.graphpaper.h0.line" x1="140" y1="70" x2="570" y2="70" stroke="#2563eb" stroke-width="1" />
  <line id="slot.graphpaper.h1.line" x1="140" y1="115" x2="570" y2="115" stroke="#2563eb" stroke-width="1" />
  <line id="slot.graphpaper.h2.line" x1="140" y1="155" x2="570" y2="155" stroke="#2563eb" stroke-width="1" />
  <line id="slot.graphpaper.h3.line" x1="140" y1="200" x2="570" y2="200" stroke="#2563eb" stroke-width="1" />
  <line id="slot.graphpaper.h4.line" x1="140" y1="240" x2="570" y2="240" stroke="#2563eb" stroke-width="1" />
  <line id="slot.graphpaper.h5.line" x1="140" y1="290" x2="570" y2="290" stroke="#2563eb" stroke-width="1" />
  <line id="slot.graphpaper.h6.line" x1="140" y1="330" x2="570" y2="330" stroke="#2563eb" stroke-width="1" />
  <line id="slot.graphpaper.h7.line" x1="140" y1="375" x2="570" y2="375" stroke="#2563eb" stroke-width="1" />
  <line id="slot.graphpaper.h8.line" x1="140" y1="420" x2="570" y2="420" stroke="#2563eb" stroke-width="1" />
  <text id="slot.q1.text" x="18" y="44" fill="#111111" font-family="Noto Sans KR, sans-serif" font-size="28">원에 지름을 그을 때 반드시 지나는 점을 찾아 선택해 보세요.  </text>
  <text id="slot.q2.text" x="0" y="0" fill="#111111" font-family="Noto Sans KR, sans-serif" font-size="28"></text>
  <circle id="slot.circle.circle" cx="355" cy="245" r="130" stroke="#111111" stroke-width="2" fill="none" />
  <circle id="slot.pt.g.circle" cx="270" cy="200" r="5" stroke="#111111" stroke-width="2" fill="#d94b89" />
  <circle id="slot.pt.n.circle" cx="355" cy="241" r="5" stroke="#111111" stroke-width="2" fill="#d94b89" />
  <circle id="slot.pt.d.circle" cx="355" cy="375" r="5" stroke="#111111" stroke-width="2" fill="#d94b89" />
  <circle id="slot.pt.r.circle" cx="447" cy="241" r="5" stroke="#111111" stroke-width="2" fill="#d94b89" />
  <text id="slot.lb.g.text" x="275" y="200" fill="#111111" font-family="Noto Sans KR, sans-serif" font-size="20">ㄱ</text>
  <text id="slot.lb.n.text" x="360" y="265" fill="#111111" font-family="Noto Sans KR, sans-serif" font-size="20">ㄴ</text>
  <text id="slot.lb.d.text" x="360" y="395" fill="#111111" font-family="Noto Sans KR, sans-serif" font-size="20">ㄷ</text>
  <text id="slot.lb.r.text" x="450" y="265" fill="#111111" font-family="Noto Sans KR, sans-serif" font-size="20">ㄹ</text>
</svg>
