<?xml version="1.0" encoding="UTF-8"?>
<svg xmlns="http://www.w3.org/2000/svg" width="600" height="400" viewBox="0 0 600 400">
  <metadata><problem_id>S3_초등_3_008643</problem_id></metadata>
  <rect x="0" y="0" width="600" height="400" fill="#FFFFFF" />
  <text id="slot.qtext.text" x="105" y="70" fill="#111111" font-family="Noto Sans KR, sans-serif" font-size="30">원의 중심을 찾아 선택해 보세요.</text>
  <rect id="slot.answer_blank.rect" x="72" y="269" width="22" height="22" fill="none" stroke="none" stroke-width="1.5" />
  <circle id="slot.top.circle.circle" cx="295" cy="195" r="70" stroke="#333333" stroke-width="1.8" fill="none" />
  <line id="slot.top.grid.v0.line" x1="200" y1="100" x2="200" y2="292" stroke="#5FCBFF" stroke-width="1.2" stroke-dasharray="5 3" />
  <line id="slot.top.grid.v1.line" x1="224" y1="100" x2="224" y2="292" stroke="#5FCBFF" stroke-width="1.2" stroke-dasharray="5 3" />
  <line id="slot.top.grid.v2.line" x1="248" y1="100" x2="248" y2="292" stroke="#5FCBFF" stroke-width="1.2" stroke-dasharray="5 3" />
  <line id="slot.top.grid.v3.line" x1="272" y1="100" x2="272" y2="292" stroke="#5FCBFF" stroke-width="1.2" stroke-dasharray="5 3" />
  <line id="slot.top.grid.v4.line" x1="296" y1="100" x2="296" y2="292" stroke="#5FCBFF" stroke-width="1.2" stroke-dasharray="5 3" />
  <line id="slot.top.grid.v5.line" x1="320" y1="100" x2="320" y2="292" stroke="#5FCBFF" stroke-width="1.2" stroke-dasharray="5 3" />
  <line id="slot.top.grid.v6.line" x1="344" y1="100" x2="344" y2="292" stroke="#5FCBFF" stroke-width="1.2" stroke-dasharray="5 3" />
  <line id="slot.top.grid.v7.line" x1="368" y1="100" x2="368" y2="292" stroke="#5FCBFF" stroke-width="1.2" stroke-dasharray="5 3" />
  <line id="slot.top.grid.v8.line" x1="392" y1="100" x2="392" y2="292" stroke="#5FCBFF" stroke-width="1.2" stroke-dasharray="5 3" />
  <line id="slot.top.grid.h0.line" x1="200" y1="100" x2="392" y2="100" stroke="#5FCBFF" stroke-width="1.2" stroke-dasharray="5 3" />
  <line id="slot.top.grid.h1.line" x1="200" y1="124" x2="392" y2="124" stroke="#5FCBFF" stroke-width="1.2" stroke-dasharray="5 3" />
  <line id="slot.top.grid.h2.line" x1="200" y1="148" x2="392" y2="148" stroke="#5FCBFF" stroke-width="1.2" stroke-dasharray="5 3" />
  <line id="slot.top.grid.h3.line" x1="200" y1="172" x2="392" y2="172" stroke="#5FCBFF" stroke-width="1.2" stroke-dasharray="5 3" />
  <line id="slot.top.grid.h4.line" x1="200" y1="196" x2="392" y2="196" stroke="#5FCBFF" stroke-width="1.2" stroke-dasharray="5 3" />
  <line id="slot.top.grid.h5.line" x1="200" y1="220" x2="392" y2="220" stroke="#5FCBFF" stroke-width="1.2" stroke-dasharray="5 3" />
  <line id="slot.top.grid.h6.line" x1="200" y1="244" x2="392" y2="244" stroke="#5FCBFF" stroke-width="1.2" stroke-dasharray="5 3" />
  <line id="slot.top.grid.h7.line" x1="200" y1="268" x2="392" y2="268" stroke="#5FCBFF" stroke-width="1.2" stroke-dasharray="5 3" />
  <line id="slot.top.grid.h8.line" x1="200" y1="292" x2="392" y2="292" stroke="#5FCBFF" stroke-width="1.2" stroke-dasharray="5 3" />
  <circle id="slot.top.pt.ga.circle" cx="297" cy="196" r="5" stroke="#111111" stroke-width="2" fill="#ff3aa8" />
  <circle id="slot.top.pt.na.circle" cx="345" cy="197" r="5" stroke="#111111" stroke-width="2" fill="#ff3aa8" />
  <circle id="slot.top.pt.da.circle" cx="344" cy="243" r="5" stroke="#111111" stroke-width="2" fill="#ff3aa8" />
  <circle id="slot.top.pt.db.circle" cx="249" cy="245" r="5" stroke="#111111" stroke-width="2" fill="#ff3aa8" />
  <circle id="slot.top.pt.dc.circle" cx="297" cy="125" r="5" stroke="#111111" stroke-width="2" fill="#ff3aa8" />
  <text id="slot.top.lb.ga.text" x="270" y="125" fill="#111111" font-family="Noto Sans KR, sans-serif" font-size="25">ㄱ</text>
  <text id="slot.top.lb.na.text" x="270" y="190" fill="#111111" font-family="Noto Sans KR, sans-serif" font-size="25">ㄴ</text>
  <text id="slot.top.lb.da.text" x="320" y="190" fill="#111111" font-family="Noto Sans KR, sans-serif" font-size="25">ㄷ</text>
  <text id="slot.top.lb.na.copy1.text" x="225" y="265" fill="#111111" font-family="Noto Sans KR, sans-serif" font-size="25">ㄹ</text>
  <text id="slot.top.lb.na.copy2.text" x="345" y="265" fill="#111111" font-family="Noto Sans KR, sans-serif" font-size="25">ㅁ</text>
</svg>
