<?xml version="1.0" encoding="UTF-8"?>
<svg xmlns="http://www.w3.org/2000/svg" width="920" height="300" viewBox="0 0 920 300">
  <metadata><problem_id>S3_초등_3_008703</problem_id></metadata>
  <rect x="0" y="0" width="920" height="300" fill="#FFFFFF" />
  <text id="slot.q.text.text" x="10" y="31" fill="#111111" font-family="Noto Sans KR, sans-serif" font-size="24">컴퍼스를 2 cm가 되도록 벌린 것을 찾아 선택하세요.</text>
  <rect id="slot.choice1.ruler.body.rect" x="74" y="211" width="186" height="32" fill="#DDF6FF" stroke="#19B5F2" stroke-width="1.2" />
  <rect id="slot.choice1.compass.head.rect" x="134.16" y="62.64" width="10.8" height="19.44" fill="#8B9195" stroke="#42474B" stroke-width="1" rx="2.16" ry="2.16" />
  <rect id="slot.choice1.compass.knob.rect" x="137.4" y="48.599999999999994" width="4.32" height="12.96" fill="#7F8589" stroke="#42474B" stroke-width="0.8" />
  <rect id="slot.choice1.compass.clamp.rect" x="190.44" y="167.8" width="15.120000000000001" height="8.64" fill="#6D7378" stroke="#42474B" stroke-width="0.8" />
  <rect id="slot.choice1.compass.pencil.body.rect" x="194.76" y="118.12" width="6.48" height="81" fill="#A9B84B" stroke="#879036" stroke-width="0.9" />
  <polygon id="slot.choice1.compass.pencil.tip.polygon" points="192.6,198.04000000000002 203.4,198.04000000000002 198,212.08" stroke="#9E7130" stroke-width="0.8" fill="#E8B55D" />
  <rect id="slot.choice2.ruler.body.rect" x="369" y="211" width="186" height="32" fill="#DDF6FF" stroke="#19B5F2" stroke-width="1.2" />
  <rect id="slot.choice2.compass.head.rect" x="439.6" y="62.64" width="10.8" height="19.44" fill="#8B9195" stroke="#42474B" stroke-width="1" rx="2.16" ry="2.16" />
  <rect id="slot.choice2.compass.knob.rect" x="442.84" y="48.599999999999994" width="4.32" height="12.96" fill="#7F8589" stroke="#42474B" stroke-width="0.8" />
  <rect id="slot.choice2.compass.clamp.rect" x="485.44" y="167.8" width="15.120000000000001" height="8.64" fill="#6D7378" stroke="#42474B" stroke-width="0.8" />
  <rect id="slot.choice2.compass.pencil.body.rect" x="489.76" y="118.12" width="6.48" height="81" fill="#A9B84B" stroke="#879036" stroke-width="0.9" />
  <polygon id="slot.choice2.compass.pencil.tip.polygon" points="487.6,198.04000000000002 498.4,198.04000000000002 493,212.08" stroke="#9E7130" stroke-width="0.8" fill="#E8B55D" />
  <rect id="slot.choice3.ruler.body.rect" x="666" y="211" width="186" height="32" fill="#DDF6FF" stroke="#19B5F2" stroke-width="1.2" />
  <rect id="slot.choice3.compass.head.rect" x="764.6" y="62.64" width="10.8" height="19.44" fill="#8B9195" stroke="#42474B" stroke-width="1" rx="2.16" ry="2.16" />
  <rect id="slot.choice3.compass.knob.rect" x="767.84" y="48.599999999999994" width="4.32" height="12.96" fill="#7F8589" stroke="#42474B" stroke-width="0.8" />
  <rect id="slot.choice3.compass.clamp.rect" x="844.44" y="167.8" width="15.120000000000001" height="8.64" fill="#6D7378" stroke="#42474B" stroke-width="0.8" />
  <rect id="slot.choice3.compass.pencil.body.rect" x="848.76" y="118.12" width="6.48" height="81" fill="#A9B84B" stroke="#879036" stroke-width="0.9" />
  <polygon id="slot.choice3.compass.pencil.tip.polygon" points="846.6,198.04000000000002 857.4,198.04000000000002 852,212.08" stroke="#9E7130" stroke-width="0.8" fill="#E8B55D" />
  <line id="slot.choice1.ruler.top.line" x1="74" y1="219" x2="260" y2="219" stroke="#19B5F2" stroke-width="1.1" />
  <line id="slot.choice1.ruler.tick.00.line" x1="74" y1="219" x2="74" y2="231" stroke="#19B5F2" stroke-width="1" />
  <line id="slot.choice1.ruler.tick.01.line" x1="80.2" y1="219" x2="80.2" y2="225" stroke="#19B5F2" stroke-width="0.7" />
  <line id="slot.choice1.ruler.tick.02.line" x1="86.4" y1="219" x2="86.4" y2="225" stroke="#19B5F2" stroke-width="0.7" />
  <line id="slot.choice1.ruler.tick.03.line" x1="92.6" y1="219" x2="92.6" y2="225" stroke="#19B5F2" stroke-width="0.7" />
  <line id="slot.choice1.ruler.tick.04.line" x1="98.8" y1="219" x2="98.8" y2="225" stroke="#19B5F2" stroke-width="0.7" />
  <line id="slot.choice1.ruler.tick.05.line" x1="105" y1="219" x2="105" y2="228" stroke="#19B5F2" stroke-width="0.85" />
  <line id="slot.choice1.ruler.tick.06.line" x1="111.2" y1="219" x2="111.2" y2="225" stroke="#19B5F2" stroke-width="0.7" />
  <line id="slot.choice1.ruler.tick.07.line" x1="117.4" y1="219" x2="117.4" y2="225" stroke="#19B5F2" stroke-width="0.7" />
  <line id="slot.choice1.ruler.tick.08.line" x1="123.6" y1="219" x2="123.6" y2="225" stroke="#19B5F2" stroke-width="0.7" />
  <line id="slot.choice1.ruler.tick.09.line" x1="129.8" y1="219" x2="129.8" y2="225" stroke="#19B5F2" stroke-width="0.7" />
  <line id="slot.choice1.ruler.tick.10.line" x1="136" y1="219" x2="136" y2="231" stroke="#19B5F2" stroke-width="1" />
  <line id="slot.choice1.ruler.tick.11.line" x1="142.2" y1="219" x2="142.2" y2="225" stroke="#19B5F2" stroke-width="0.7" />
  <line id="slot.choice1.ruler.tick.12.line" x1="148.4" y1="219" x2="148.4" y2="225" stroke="#19B5F2" stroke-width="0.7" />
  <line id="slot.choice1.ruler.tick.13.line" x1="154.6" y1="219" x2="154.6" y2="225" stroke="#19B5F2" stroke-width="0.7" />
  <line id="slot.choice1.ruler.tick.14.line" x1="160.8" y1="219" x2="160.8" y2="225" stroke="#19B5F2" stroke-width="0.7" />
  <line id="slot.choice1.ruler.tick.15.line" x1="167" y1="219" x2="167" y2="228" stroke="#19B5F2" stroke-width="0.85" />
  <line id="slot.choice1.ruler.tick.16.line" x1="173.2" y1="219" x2="173.2" y2="225" stroke="#19B5F2" stroke-width="0.7" />
  <line id="slot.choice1.ruler.tick.17.line" x1="179.4" y1="219" x2="179.4" y2="225" stroke="#19B5F2" stroke-width="0.7" />
  <line id="slot.choice1.ruler.tick.18.line" x1="185.6" y1="219" x2="185.6" y2="225" stroke="#19B5F2" stroke-width="0.7" />
  <line id="slot.choice1.ruler.tick.19.line" x1="191.8" y1="219" x2="191.8" y2="225" stroke="#19B5F2" stroke-width="0.7" />
  <line id="slot.choice1.ruler.tick.20.line" x1="198" y1="219" x2="198" y2="231" stroke="#19B5F2" stroke-width="1" />
  <line id="slot.choice1.ruler.tick.21.line" x1="204.2" y1="219" x2="204.2" y2="225" stroke="#19B5F2" stroke-width="0.7" />
  <line id="slot.choice1.ruler.tick.22.line" x1="210.4" y1="219" x2="210.4" y2="225" stroke="#19B5F2" stroke-width="0.7" />
  <line id="slot.choice1.ruler.tick.23.line" x1="216.6" y1="219" x2="216.6" y2="225" stroke="#19B5F2" stroke-width="0.7" />
  <line id="slot.choice1.ruler.tick.24.line" x1="222.8" y1="219" x2="222.8" y2="225" stroke="#19B5F2" stroke-width="0.7" />
  <line id="slot.choice1.ruler.tick.25.line" x1="229" y1="219" x2="229" y2="228" stroke="#19B5F2" stroke-width="0.85" />
  <line id="slot.choice1.ruler.tick.26.line" x1="235.2" y1="219" x2="235.2" y2="225" stroke="#19B5F2" stroke-width="0.7" />
  <line id="slot.choice1.ruler.tick.27.line" x1="241.4" y1="219" x2="241.4" y2="225" stroke="#19B5F2" stroke-width="0.7" />
  <line id="slot.choice1.ruler.tick.28.line" x1="247.6" y1="219" x2="247.6" y2="225" stroke="#19B5F2" stroke-width="0.7" />
  <line id="slot.choice1.ruler.tick.29.line" x1="253.8" y1="219" x2="253.8" y2="225" stroke="#19B5F2" stroke-width="0.7" />
  <line id="slot.choice1.ruler.tick.30.line" x1="260" y1="219" x2="260" y2="231" stroke="#19B5F2" stroke-width="1" />
  <line id="slot.choice1.compass.leg.left.outer.line" x1="135.24" y1="89.64" x2="66.56" y2="202.36" stroke="#42474B" stroke-width="1.2" />
  <line id="slot.choice1.compass.leg.left.inner.line" x1="140.64000000000001" y1="89.64" x2="71.96000000000001" y2="202.36" stroke="#C7DCE3" stroke-width="3" />
  <line id="slot.choice1.compass.leg.right.outer.line" x1="143.88" y1="89.64" x2="198" y2="196.96" stroke="#42474B" stroke-width="1.2" />
  <line id="slot.choice1.compass.leg.right.inner.line" x1="138.48" y1="89.64" x2="191.52" y2="182.92000000000002" stroke="#C7DCE3" stroke-width="3" />
  <line id="slot.choice1.compass.bar.left.line" x1="92.84" y1="158.67040000000003" x2="178.7148" y2="162.3112" stroke="#6D7378" stroke-width="1.2" />
  <line id="slot.choice1.compass.needle.tip.line" x1="66.56" y1="193.72000000000003" x2="66.56" y2="211" stroke="#42474B" stroke-width="1.2" />
  <line id="slot.choice2.ruler.top.line" x1="369" y1="219" x2="555" y2="219" stroke="#19B5F2" stroke-width="1.1" />
  <line id="slot.choice2.ruler.tick.00.line" x1="369" y1="219" x2="369" y2="231" stroke="#19B5F2" stroke-width="1" />
  <line id="slot.choice2.ruler.tick.01.line" x1="375.2" y1="219" x2="375.2" y2="225" stroke="#19B5F2" stroke-width="0.7" />
  <line id="slot.choice2.ruler.tick.02.line" x1="381.4" y1="219" x2="381.4" y2="225" stroke="#19B5F2" stroke-width="0.7" />
  <line id="slot.choice2.ruler.tick.03.line" x1="387.6" y1="219" x2="387.6" y2="225" stroke="#19B5F2" stroke-width="0.7" />
  <line id="slot.choice2.ruler.tick.04.line" x1="393.8" y1="219" x2="393.8" y2="225" stroke="#19B5F2" stroke-width="0.7" />
  <line id="slot.choice2.ruler.tick.05.line" x1="400" y1="219" x2="400" y2="228" stroke="#19B5F2" stroke-width="0.85" />
  <line id="slot.choice2.ruler.tick.06.line" x1="406.2" y1="219" x2="406.2" y2="225" stroke="#19B5F2" stroke-width="0.7" />
  <line id="slot.choice2.ruler.tick.07.line" x1="412.4" y1="219" x2="412.4" y2="225" stroke="#19B5F2" stroke-width="0.7" />
  <line id="slot.choice2.ruler.tick.08.line" x1="418.6" y1="219" x2="418.6" y2="225" stroke="#19B5F2" stroke-width="0.7" />
  <line id="slot.choice2.ruler.tick.09.line" x1="424.8" y1="219" x2="424.8" y2="225" stroke="#19B5F2" stroke-width="0.7" />
  <line id="slot.choice2.ruler.tick.10.line" x1="431" y1="219" x2="431" y2="231" stroke="#19B5F2" stroke-width="1" />
  <line id="slot.choice2.ruler.tick.11.line" x1="437.2" y1="219" x2="437.2" y2="225" stroke="#19B5F2" stroke-width="0.7" />
  <line id="slot.choice2.ruler.tick.12.line" x1="443.4" y1="219" x2="443.4" y2="225" stroke="#19B5F2" stroke-width="0.7" />
  <line id="slot.choice2.ruler.tick.13.line" x1="449.6" y1="219" x2="449.6" y2="225" stroke="#19B5F2" stroke-width="0.7" />
  <line id="slot.choice2.ruler.tick.14.line" x1="455.8" y1="219" x2="455.8" y2="225" stroke="#19B5F2" stroke-width="0.7" />
  <line id="slot.choice2.ruler.tick.15.line" x1="462" y1="219" x2="462" y2="228" stroke="#19B5F2" stroke-width="0.85" />
  <line id="slot.choice2.ruler.tick.16.line" x1="468.2" y1="219" x2="468.2" y2="225" stroke="#19B5F2" stroke-width="0.7" />
  <line id="slot.choice2.ruler.tick.17.line" x1="474.4" y1="219" x2="474.4" y2="225" stroke="#19B5F2" stroke-width="0.7" />
  <line id="slot.choice2.ruler.tick.18.line" x1="480.6" y1="219" x2="480.6" y2="225" stroke="#19B5F2" stroke-width="0.7" />
  <line id="slot.choice2.ruler.tick.19.line" x1="486.8" y1="219" x2="486.8" y2="225" stroke="#19B5F2" stroke-width="0.7" />
  <line id="slot.choice2.ruler.tick.20.line" x1="493" y1="219" x2="493" y2="231" stroke="#19B5F2" stroke-width="1" />
  <line id="slot.choice2.ruler.tick.21.line" x1="499.2" y1="219" x2="499.2" y2="225" stroke="#19B5F2" stroke-width="0.7" />
  <line id="slot.choice2.ruler.tick.22.line" x1="505.4" y1="219" x2="505.4" y2="225" stroke="#19B5F2" stroke-width="0.7" />
  <line id="slot.choice2.ruler.tick.23.line" x1="511.6" y1="219" x2="511.6" y2="225" stroke="#19B5F2" stroke-width="0.7" />
  <line id="slot.choice2.ruler.tick.24.line" x1="517.8" y1="219" x2="517.8" y2="225" stroke="#19B5F2" stroke-width="0.7" />
  <line id="slot.choice2.ruler.tick.25.line" x1="524" y1="219" x2="524" y2="228" stroke="#19B5F2" stroke-width="0.85" />
  <line id="slot.choice2.ruler.tick.26.line" x1="530.2" y1="219" x2="530.2" y2="225" stroke="#19B5F2" stroke-width="0.7" />
  <line id="slot.choice2.ruler.tick.27.line" x1="536.4" y1="219" x2="536.4" y2="225" stroke="#19B5F2" stroke-width="0.7" />
  <line id="slot.choice2.ruler.tick.28.line" x1="542.6" y1="219" x2="542.6" y2="225" stroke="#19B5F2" stroke-width="0.7" />
  <line id="slot.choice2.ruler.tick.29.line" x1="548.8" y1="219" x2="548.8" y2="225" stroke="#19B5F2" stroke-width="0.7" />
  <line id="slot.choice2.ruler.tick.30.line" x1="555" y1="219" x2="555" y2="231" stroke="#19B5F2" stroke-width="1" />
  <line id="slot.choice2.compass.leg.left.outer.line" x1="440.68" y1="89.64" x2="369" y2="202.36" stroke="#42474B" stroke-width="1.2" />
  <line id="slot.choice2.compass.leg.left.inner.line" x1="446.08" y1="89.64" x2="374.4" y2="202.36" stroke="#C7DCE3" stroke-width="3" />
  <line id="slot.choice2.compass.leg.right.outer.line" x1="449.32" y1="89.64" x2="493" y2="196.96" stroke="#42474B" stroke-width="1.2" />
  <line id="slot.choice2.compass.leg.right.inner.line" x1="443.92" y1="89.64" x2="486.52" y2="182.92000000000002" stroke="#C7DCE3" stroke-width="3" />
  <line id="slot.choice2.compass.bar.left.line" x1="396.36" y1="158.67040000000003" x2="477.16" y2="162.3112" stroke="#6D7378" stroke-width="1.2" />
  <line id="slot.choice2.compass.needle.tip.line" x1="369" y1="193.72000000000003" x2="369" y2="211" stroke="#42474B" stroke-width="1.2" />
  <line id="slot.choice3.ruler.top.line" x1="666" y1="219" x2="852" y2="219" stroke="#19B5F2" stroke-width="1.1" />
  <line id="slot.choice3.ruler.tick.00.line" x1="666" y1="219" x2="666" y2="231" stroke="#19B5F2" stroke-width="1" />
  <line id="slot.choice3.ruler.tick.01.line" x1="672.2" y1="219" x2="672.2" y2="225" stroke="#19B5F2" stroke-width="0.7" />
  <line id="slot.choice3.ruler.tick.02.line" x1="678.4" y1="219" x2="678.4" y2="225" stroke="#19B5F2" stroke-width="0.7" />
  <line id="slot.choice3.ruler.tick.03.line" x1="684.6" y1="219" x2="684.6" y2="225" stroke="#19B5F2" stroke-width="0.7" />
  <line id="slot.choice3.ruler.tick.04.line" x1="690.8" y1="219" x2="690.8" y2="225" stroke="#19B5F2" stroke-width="0.7" />
  <line id="slot.choice3.ruler.tick.05.line" x1="697" y1="219" x2="697" y2="228" stroke="#19B5F2" stroke-width="0.85" />
  <line id="slot.choice3.ruler.tick.06.line" x1="703.2" y1="219" x2="703.2" y2="225" stroke="#19B5F2" stroke-width="0.7" />
  <line id="slot.choice3.ruler.tick.07.line" x1="709.4" y1="219" x2="709.4" y2="225" stroke="#19B5F2" stroke-width="0.7" />
  <line id="slot.choice3.ruler.tick.08.line" x1="715.6" y1="219" x2="715.6" y2="225" stroke="#19B5F2" stroke-width="0.7" />
  <line id="slot.choice3.ruler.tick.09.line" x1="721.8" y1="219" x2="721.8" y2="225" stroke="#19B5F2" stroke-width="0.7" />
  <line id="slot.choice3.ruler.tick.10.line" x1="728" y1="219" x2="728" y2="231" stroke="#19B5F2" stroke-width="1" />
  <line id="slot.choice3.ruler.tick.11.line" x1="734.2" y1="219" x2="734.2" y2="225" stroke="#19B5F2" stroke-width="0.7" />
  <line id="slot.choice3.ruler.tick.12.line" x1="740.4" y1="219" x2="740.4" y2="225" stroke="#19B5F2" stroke-width="0.7" />
  <line id="slot.choice3.ruler.tick.13.line" x1="746.6" y1="219" x2="746.6" y2="225" stroke="#19B5F2" stroke-width="0.7" />
  <line id="slot.choice3.ruler.tick.14.line" x1="752.8" y1="219" x2="752.8" y2="225" stroke="#19B5F2" stroke-width="0.7" />
  <line id="slot.choice3.ruler.tick.15.line" x1="759" y1="219" x2="759" y2="228" stroke="#19B5F2" stroke-width="0.85" />
  <line id="slot.choice3.ruler.tick.16.line" x1="765.2" y1="219" x2="765.2" y2="225" stroke="#19B5F2" stroke-width="0.7" />
  <line id="slot.choice3.ruler.tick.17.line" x1="771.4" y1="219" x2="771.4" y2="225" stroke="#19B5F2" stroke-width="0.7" />
  <line id="slot.choice3.ruler.tick.18.line" x1="777.6" y1="219" x2="777.6" y2="225" stroke="#19B5F2" stroke-width="0.7" />
  <line id="slot.choice3.ruler.tick.19.line" x1="783.8" y1="219" x2="783.8" y2="225" stroke="#19B5F2" stroke-width="0.7" />
  <line id="slot.choice3.ruler.tick.20.line" x1="790" y1="219" x2="790" y2="231" stroke="#19B5F2" stroke-width="1" />
  <line id="slot.choice3.ruler.tick.21.line" x1="796.2" y1="219" x2="796.2" y2="225" stroke="#19B5F2" stroke-width="0.7" />
  <line id="slot.choice3.ruler.tick.22.line" x1="802.4" y1="219" x2="802.4" y2="225" stroke="#19B5F2" stroke-width="0.7" />
  <line id="slot.choice3.ruler.tick.23.line" x1="808.6" y1="219" x2="808.6" y2="225" stroke="#19B5F2" stroke-width="0.7" />
  <line id="slot.choice3.ruler.tick.24.line" x1="814.8" y1="219" x2="814.8" y2="225" stroke="#19B5F2" stroke-width="0.7" />
  <line id="slot.choice3.ruler.tick.25.line" x1="821" y1="219" x2="821" y2="228" stroke="#19B5F2" stroke-width="0.85" />
  <line id="slot.choice3.ruler.tick.26.line" x1="827.2" y1="219" x2="827.2" y2="225" stroke="#19B5F2" stroke-width="0.7" />
  <line id="slot.choice3.ruler.tick.27.line" x1="833.4" y1="219" x2="833.4" y2="225" stroke="#19B5F2" stroke-width="0.7" />
  <line id="slot.choice3.ruler.tick.28.line" x1="839.6" y1="219" x2="839.6" y2="225" stroke="#19B5F2" stroke-width="0.7" />
  <line id="slot.choice3.ruler.tick.29.line" x1="845.8" y1="219" x2="845.8" y2="225" stroke="#19B5F2" stroke-width="0.7" />
  <line id="slot.choice3.ruler.tick.30.line" x1="852" y1="219" x2="852" y2="231" stroke="#19B5F2" stroke-width="1" />
  <line id="slot.choice3.compass.leg.left.outer.line" x1="765.68" y1="89.64" x2="666" y2="202.36" stroke="#42474B" stroke-width="1.2" />
  <line id="slot.choice3.compass.leg.left.inner.line" x1="771.08" y1="89.64" x2="671.4" y2="202.36" stroke="#C7DCE3" stroke-width="3" />
  <line id="slot.choice3.compass.leg.right.outer.line" x1="774.32" y1="89.64" x2="852" y2="196.96" stroke="#42474B" stroke-width="1.2" />
  <line id="slot.choice3.compass.leg.right.inner.line" x1="768.92" y1="89.64" x2="845.52" y2="182.92000000000002" stroke="#C7DCE3" stroke-width="3" />
  <line id="slot.choice3.compass.bar.left.line" x1="703.44" y1="158.67040000000003" x2="824.94" y2="162.3112" stroke="#6D7378" stroke-width="1.2" />
  <line id="slot.choice3.compass.needle.tip.line" x1="666" y1="193.72000000000003" x2="666" y2="211" stroke="#42474B" stroke-width="1.2" />
  <circle id="slot.choice1.compass.hinge.circle" cx="139.56" cy="81" r="6.48" stroke="#42474B" stroke-width="1" fill="#AEB4B7" />
  <circle id="slot.choice2.compass.hinge.circle" cx="445" cy="81" r="6.48" stroke="#42474B" stroke-width="1" fill="#AEB4B7" />
  <circle id="slot.choice3.compass.hinge.circle" cx="770" cy="81" r="6.48" stroke="#42474B" stroke-width="1" fill="#AEB4B7" />
  <text id="slot.choice1.ruler.label.0.text" x="74" y="235" fill="#333333" font-family="Noto Sans KR, sans-serif" font-size="15" text-anchor="middle">0</text>
  <text id="slot.choice1.ruler.label.1.text" x="136" y="235" fill="#333333" font-family="Noto Sans KR, sans-serif" font-size="15" text-anchor="middle">1</text>
  <text id="slot.choice1.ruler.label.2.text" x="198" y="235" fill="#333333" font-family="Noto Sans KR, sans-serif" font-size="15" text-anchor="middle">2</text>
  <text id="slot.choice1.ruler.label.3.text" x="260" y="235" fill="#333333" font-family="Noto Sans KR, sans-serif" font-size="15" text-anchor="middle">3</text>
  <text id="slot.choice2.ruler.label.0.text" x="369" y="235" fill="#333333" font-family="Noto Sans KR, sans-serif" font-size="15" text-anchor="middle">0</text>
  <text id="slot.choice2.ruler.label.1.text" x="431" y="235" fill="#333333" font-family="Noto Sans KR, sans-serif" font-size="15" text-anchor="middle">1</text>
  <text id="slot.choice2.ruler.label.2.text" x="493" y="235" fill="#333333" font-family="Noto Sans KR, sans-serif" font-size="15" text-anchor="middle">2</text>
  <text id="slot.choice2.ruler.label.3.text" x="555" y="235" fill="#333333" font-family="Noto Sans KR, sans-serif" font-size="15" text-anchor="middle">3</text>
  <text id="slot.choice3.ruler.label.0.text" x="666" y="235" fill="#333333" font-family="Noto Sans KR, sans-serif" font-size="15" text-anchor="middle">0</text>
  <text id="slot.choice3.ruler.label.1.text" x="728" y="235" fill="#333333" font-family="Noto Sans KR, sans-serif" font-size="15" text-anchor="middle">1</text>
  <text id="slot.choice3.ruler.label.2.text" x="790" y="235" fill="#333333" font-family="Noto Sans KR, sans-serif" font-size="15" text-anchor="middle">2</text>
  <text id="slot.choice3.ruler.label.3.text" x="852" y="235" fill="#333333" font-family="Noto Sans KR, sans-serif" font-size="15" text-anchor="middle">3</text>
</svg>
