<?xml version="1.0" encoding="UTF-8"?>
<svg xmlns="http://www.w3.org/2000/svg" width="820" height="390" viewBox="0 0 820 390">
  <metadata><problem_id>S3_초등_3_008608</problem_id></metadata>
  <rect x="0" y="0" width="820" height="390" fill="#FFFFFF" />
  <text id="slot.q1.text" x="125" y="55" fill="#111111" font-family="Noto Sans KR, sans-serif" font-size="30" max_width="690">몫이 다른 사람을 선택해 보세요.</text>
  <text id="slot.box.left.text.text" x="170" y="140" fill="#111111" font-family="Noto Sans KR, sans-serif" font-size="30">30 ÷ 3</text>
  <text id="slot.box.mid.text.text" x="385" y="145" fill="#111111" font-family="Noto Sans KR, sans-serif" font-size="30">40 ÷ 2</text>
  <text id="slot.box.right.text.text" x="610" y="145" fill="#111111" font-family="Noto Sans KR, sans-serif" font-size="30">70 ÷ 7</text>
  <polygon id="slot.figure.left.body.polygon" points="188,261 244,261 234,225 198,225" stroke="none" stroke-width="2" fill="#D7A0D7" />
  <circle id="slot.figure.left.head.circle" cx="216" cy="188" r="28" stroke="none" stroke-width="2" fill="#ffd9ad" />
  <path id="slot.figure.left.hair.cap.path" d="M 188.0 187.0 C 190.0 158.0, 241.0 153.0, 245.0 187.0 C 226.0 171.0, 204.0 178.0, 188.0 187.0 Z" stroke="none" stroke-width="2" fill="#4b1f16" />
  <path id="slot.figure.left.smile.path" d="M 209.0 204.0 Q 216.0 210.0 223.0 204.0" stroke="#b86e39" stroke-width="1.3" fill="none" />
  <polygon id="slot.figure.mid.body.polygon" points="409,261 465,261 455,225 419,225" stroke="none" stroke-width="2" fill="#8ED7E6" />
  <circle id="slot.figure.mid.head.circle" cx="437" cy="188" r="28" stroke="none" stroke-width="2" fill="#ffd9ad" />
  <path id="slot.figure.mid.hair.cap.path" d="M 409.0 187.0 C 411.0 158.0, 462.0 153.0, 466.0 187.0 C 447.0 171.0, 425.0 178.0, 409.0 187.0 Z" stroke="none" stroke-width="2" fill="#1d1714" />
  <path id="slot.figure.mid.smile.path" d="M 430.0 204.0 Q 437.0 210.0 444.0 204.0" stroke="#b86e39" stroke-width="1.3" fill="none" />
  <polygon id="slot.figure.right.body.polygon" points="629,261 685,261 675,225 639,225" stroke="none" stroke-width="2" fill="#F2C66D" />
  <circle id="slot.figure.right.head.circle" cx="657" cy="188" r="28" stroke="none" stroke-width="2" fill="#ffd9ad" />
  <path id="slot.figure.right.hair.cap.path" d="M 629.0 187.0 C 631.0 158.0, 682.0 153.0, 686.0 187.0 C 667.0 171.0, 645.0 178.0, 629.0 187.0 Z" stroke="none" stroke-width="2" fill="#5b3218" />
  <path id="slot.figure.right.smile.path" d="M 650.0 204.0 Q 657.0 210.0 664.0 204.0" stroke="#b86e39" stroke-width="1.3" fill="none" />
  <circle id="slot.figure.left.eye.left.circle" cx="206" cy="192" r="2.3" stroke="none" stroke-width="2" fill="#2b2118" />
  <circle id="slot.figure.left.eye.right.circle" cx="226" cy="192" r="2.3" stroke="none" stroke-width="2" fill="#2b2118" />
  <circle id="slot.figure.mid.eye.left.circle" cx="427" cy="192" r="2.3" stroke="none" stroke-width="2" fill="#2b2118" />
  <circle id="slot.figure.mid.eye.right.circle" cx="447" cy="192" r="2.3" stroke="none" stroke-width="2" fill="#2b2118" />
  <circle id="slot.figure.right.eye.left.circle" cx="647" cy="192" r="2.3" stroke="none" stroke-width="2" fill="#2b2118" />
  <circle id="slot.figure.right.eye.right.circle" cx="667" cy="192" r="2.3" stroke="none" stroke-width="2" fill="#2b2118" />
  <text id="slot.name.left.text" x="190" y="305" fill="#111111" font-family="Noto Sans KR, sans-serif" font-size="30">은재</text>
  <text id="slot.name.mid.text" x="415" y="305" fill="#111111" font-family="Noto Sans KR, sans-serif" font-size="30">성환</text>
  <text id="slot.name.right.text" x="635" y="305" fill="#111111" font-family="Noto Sans KR, sans-serif" font-size="30">기영</text>
</svg>
