<?xml version="1.0" encoding="UTF-8"?>
<svg xmlns="http://www.w3.org/2000/svg" width="894" height="343" viewBox="0 0 894 343">
  <metadata><problem_id>S3_초등_3_008542</problem_id></metadata>
  <rect x="0" y="0" width="894" height="343" fill="#FFFFFF" />
  <text id="slot.qtext.text" x="36" y="30" fill="#111111" font-family="Noto Sans KR, sans-serif" font-size="28">계산 결과가 3000보다 큰 곱셈식을 모두 선택하세요.</text>
  <polygon id="slot.house1.polygon" points="96,110 146,68 166,88 178,76 184,76 184,92 212,110 212,218 96,218" stroke="#111111" stroke-width="2" fill="none" />
  <polygon id="slot.house2.polygon" points="274,110 324,68 344,88 356,76 362,76 362,92 390,110 390,218 274,218" stroke="#111111" stroke-width="2" fill="none" />
  <polygon id="slot.house3.polygon" points="452,110 502,68 522,88 534,76 540,76 540,92 568,110 568,218 452,218" stroke="#111111" stroke-width="2" fill="none" />
  <polygon id="slot.house4.polygon" points="620,110 680,68 700,88 712,76 718,76 718,92 736,110 736,218 620,218" stroke="#111111" stroke-width="2" fill="none" />
  <text id="slot.house1.text.text" x="105" y="170" fill="#111111" font-family="Noto Sans KR, sans-serif" font-size="28">80 × 40</text>
  <text id="slot.house2.text.text" x="280" y="165" fill="#111111" font-family="Noto Sans KR, sans-serif" font-size="28">62 × 50</text>
  <text id="slot.house3.text.text" x="460" y="165" fill="#111111" font-family="Noto Sans KR, sans-serif" font-size="28">90 × 30</text>
  <text id="slot.house4.text.text" x="630" y="165" fill="#111111" font-family="Noto Sans KR, sans-serif" font-size="28">43 × 60</text>
</svg>
