<?xml version="1.0" encoding="UTF-8"?>
<svg xmlns="http://www.w3.org/2000/svg" width="920" height="380" viewBox="0 0 920 380">
  <metadata><problem_id>S3_초등_3_008663</problem_id></metadata>
  <rect x="0" y="0" width="920" height="380" fill="#FFFFFF" />
  <text id="slot.q.text1.text" x="35" y="30" fill="#111111" font-family="Noto Sans KR, sans-serif" font-size="25">다음 중 반지름이 3 cm인 원을 그릴 수 있도록 컴퍼스를 바르게 벌린 것</text>
  <text id="slot.q.text2.text" x="36" y="66" fill="#111111" font-family="Noto Sans KR, sans-serif" font-size="25">을 선택하세요.</text>
  <text id="slot.q.text2.copy1.text" x="155" y="110" fill="#111111" font-family="Noto Sans KR, sans-serif" font-size="25">㉠</text>
  <text id="slot.q.text2.copy2.text" x="390" y="110" fill="#111111" font-family="Noto Sans KR, sans-serif" font-size="25">㉡</text>
  <text id="slot.q.text2.copy3.text" x="620" y="110" fill="#111111" font-family="Noto Sans KR, sans-serif" font-size="25">㉢</text>
  <rect id="slot.choice1.ruler.body.rect" x="196" y="185" width="93" height="32" fill="#DDF6FF" stroke="#19B5F2" stroke-width="1.2" />
  <rect id="slot.choice1.compass.head.rect" x="209.4" y="69.36" width="9.200000000000001" height="16.560000000000002" fill="#8B9195" stroke="#42474B" stroke-width="1" rx="1.84" ry="1.84" />
  <rect id="slot.choice1.compass.knob.rect" x="212.16" y="57.4" width="3.68" height="11.040000000000001" fill="#7F8589" stroke="#42474B" stroke-width="0.8" />
  <rect id="slot.choice1.compass.clamp.rect" x="220.56" y="148.2" width="12.88" height="7.36" fill="#6D7378" stroke="#42474B" stroke-width="0.8" />
  <rect id="slot.choice1.compass.pencil.body.rect" x="224.24" y="105.87999999999998" width="5.5200000000000005" height="69" fill="#A9B84B" stroke="#879036" stroke-width="0.9" />
  <polygon id="slot.choice1.compass.pencil.tip.polygon" points="222.4,173.95999999999998 231.6,173.95999999999998 227,185.92" stroke="#9E7130" stroke-width="0.8" fill="#E8B55D" />
  <rect id="slot.choice2.ruler.body.rect" x="416" y="185" width="93" height="32" fill="#DDF6FF" stroke="#19B5F2" stroke-width="1.2" />
  <rect id="slot.choice2.compass.head.rect" x="444.4" y="69.36" width="9.200000000000001" height="16.560000000000002" fill="#8B9195" stroke="#42474B" stroke-width="1" rx="1.84" ry="1.84" />
  <rect id="slot.choice2.compass.knob.rect" x="447.16" y="57.4" width="3.68" height="11.040000000000001" fill="#7F8589" stroke="#42474B" stroke-width="0.8" />
  <rect id="slot.choice2.compass.clamp.rect" x="471.56" y="148.2" width="12.88" height="7.36" fill="#6D7378" stroke="#42474B" stroke-width="0.8" />
  <rect id="slot.choice2.compass.pencil.body.rect" x="475.24" y="105.87999999999998" width="5.5200000000000005" height="69" fill="#A9B84B" stroke="#879036" stroke-width="0.9" />
  <polygon id="slot.choice2.compass.pencil.tip.polygon" points="473.4,173.95999999999998 482.6,173.95999999999998 478,185.92" stroke="#9E7130" stroke-width="0.8" fill="#E8B55D" />
  <rect id="slot.choice3.ruler.body.rect" x="638" y="185" width="93" height="32" fill="#DDF6FF" stroke="#19B5F2" stroke-width="1.2" />
  <rect id="slot.choice3.compass.head.rect" x="681.4" y="69.36" width="9.200000000000001" height="16.560000000000002" fill="#8B9195" stroke="#42474B" stroke-width="1" rx="1.84" ry="1.84" />
  <rect id="slot.choice3.compass.knob.rect" x="684.16" y="57.4" width="3.68" height="11.040000000000001" fill="#7F8589" stroke="#42474B" stroke-width="0.8" />
  <rect id="slot.choice3.compass.clamp.rect" x="724.56" y="148.2" width="12.88" height="7.36" fill="#6D7378" stroke="#42474B" stroke-width="0.8" />
  <rect id="slot.choice3.compass.pencil.body.rect" x="728.24" y="105.87999999999998" width="5.5200000000000005" height="69" fill="#A9B84B" stroke="#879036" stroke-width="0.9" />
  <polygon id="slot.choice3.compass.pencil.tip.polygon" points="726.4,173.95999999999998 735.6,173.95999999999998 731,185.92" stroke="#9E7130" stroke-width="0.8" fill="#E8B55D" />
  <line id="slot.choice1.ruler.top.line" x1="196" y1="193" x2="289" y2="193" stroke="#19B5F2" stroke-width="1.1" />
  <line id="slot.choice1.ruler.tick.00.line" x1="196" y1="193" x2="196" y2="205" stroke="#19B5F2" stroke-width="1" />
  <line id="slot.choice1.ruler.tick.01.line" x1="199.1" y1="193" x2="199.1" y2="199" stroke="#19B5F2" stroke-width="0.7" />
  <line id="slot.choice1.ruler.tick.02.line" x1="202.2" y1="193" x2="202.2" y2="199" stroke="#19B5F2" stroke-width="0.7" />
  <line id="slot.choice1.ruler.tick.03.line" x1="205.3" y1="193" x2="205.3" y2="199" stroke="#19B5F2" stroke-width="0.7" />
  <line id="slot.choice1.ruler.tick.04.line" x1="208.4" y1="193" x2="208.4" y2="199" stroke="#19B5F2" stroke-width="0.7" />
  <line id="slot.choice1.ruler.tick.05.line" x1="211.5" y1="193" x2="211.5" y2="202" stroke="#19B5F2" stroke-width="0.85" />
  <line id="slot.choice1.ruler.tick.06.line" x1="214.6" y1="193" x2="214.6" y2="199" stroke="#19B5F2" stroke-width="0.7" />
  <line id="slot.choice1.ruler.tick.07.line" x1="217.7" y1="193" x2="217.7" y2="199" stroke="#19B5F2" stroke-width="0.7" />
  <line id="slot.choice1.ruler.tick.08.line" x1="220.8" y1="193" x2="220.8" y2="199" stroke="#19B5F2" stroke-width="0.7" />
  <line id="slot.choice1.ruler.tick.09.line" x1="223.9" y1="193" x2="223.9" y2="199" stroke="#19B5F2" stroke-width="0.7" />
  <line id="slot.choice1.ruler.tick.10.line" x1="227" y1="193" x2="227" y2="205" stroke="#19B5F2" stroke-width="1" />
  <line id="slot.choice1.ruler.tick.11.line" x1="230.1" y1="193" x2="230.1" y2="199" stroke="#19B5F2" stroke-width="0.7" />
  <line id="slot.choice1.ruler.tick.12.line" x1="233.2" y1="193" x2="233.2" y2="199" stroke="#19B5F2" stroke-width="0.7" />
  <line id="slot.choice1.ruler.tick.13.line" x1="236.3" y1="193" x2="236.3" y2="199" stroke="#19B5F2" stroke-width="0.7" />
  <line id="slot.choice1.ruler.tick.14.line" x1="239.4" y1="193" x2="239.4" y2="199" stroke="#19B5F2" stroke-width="0.7" />
  <line id="slot.choice1.ruler.tick.15.line" x1="242.5" y1="193" x2="242.5" y2="202" stroke="#19B5F2" stroke-width="0.85" />
  <line id="slot.choice1.ruler.tick.16.line" x1="245.6" y1="193" x2="245.6" y2="199" stroke="#19B5F2" stroke-width="0.7" />
  <line id="slot.choice1.ruler.tick.17.line" x1="248.7" y1="193" x2="248.7" y2="199" stroke="#19B5F2" stroke-width="0.7" />
  <line id="slot.choice1.ruler.tick.18.line" x1="251.8" y1="193" x2="251.8" y2="199" stroke="#19B5F2" stroke-width="0.7" />
  <line id="slot.choice1.ruler.tick.19.line" x1="254.9" y1="193" x2="254.9" y2="199" stroke="#19B5F2" stroke-width="0.7" />
  <line id="slot.choice1.ruler.tick.20.line" x1="258" y1="193" x2="258" y2="205" stroke="#19B5F2" stroke-width="1" />
  <line id="slot.choice1.ruler.tick.21.line" x1="261.1" y1="193" x2="261.1" y2="199" stroke="#19B5F2" stroke-width="0.7" />
  <line id="slot.choice1.ruler.tick.22.line" x1="264.2" y1="193" x2="264.2" y2="199" stroke="#19B5F2" stroke-width="0.7" />
  <line id="slot.choice1.ruler.tick.23.line" x1="267.3" y1="193" x2="267.3" y2="199" stroke="#19B5F2" stroke-width="0.7" />
  <line id="slot.choice1.ruler.tick.24.line" x1="270.4" y1="193" x2="270.4" y2="199" stroke="#19B5F2" stroke-width="0.7" />
  <line id="slot.choice1.ruler.tick.25.line" x1="273.5" y1="193" x2="273.5" y2="202" stroke="#19B5F2" stroke-width="0.85" />
  <line id="slot.choice1.ruler.tick.26.line" x1="276.6" y1="193" x2="276.6" y2="199" stroke="#19B5F2" stroke-width="0.7" />
  <line id="slot.choice1.ruler.tick.27.line" x1="279.7" y1="193" x2="279.7" y2="199" stroke="#19B5F2" stroke-width="0.7" />
  <line id="slot.choice1.ruler.tick.28.line" x1="282.8" y1="193" x2="282.8" y2="199" stroke="#19B5F2" stroke-width="0.7" />
  <line id="slot.choice1.ruler.tick.29.line" x1="285.9" y1="193" x2="285.9" y2="199" stroke="#19B5F2" stroke-width="0.7" />
  <line id="slot.choice1.ruler.tick.30.line" x1="289" y1="193" x2="289" y2="205" stroke="#19B5F2" stroke-width="1" />
  <line id="slot.choice1.compass.leg.left.outer.line" x1="210.32" y1="92.36" x2="196" y2="177.64" stroke="#42474B" stroke-width="1.2" />
  <line id="slot.choice1.compass.leg.left.inner.line" x1="214.92" y1="92.36" x2="200.6" y2="177.64" stroke="#C7DCE3" stroke-width="3" />
  <line id="slot.choice1.compass.leg.right.outer.line" x1="217.68" y1="92.36" x2="227" y2="173.04" stroke="#42474B" stroke-width="1.2" />
  <line id="slot.choice1.compass.leg.right.inner.line" x1="213.08" y1="92.36" x2="221.48" y2="161.07999999999998" stroke="#C7DCE3" stroke-width="3" />
  <line id="slot.choice1.compass.bar.left.line" x1="202.48" y1="144.2896" x2="222.71" y2="147.0688" stroke="#6D7378" stroke-width="1.2" />
  <line id="slot.choice1.compass.needle.tip.line" x1="196" y1="170.27999999999997" x2="196" y2="185" stroke="#42474B" stroke-width="1.2" />
  <line id="slot.choice2.ruler.top.line" x1="416" y1="193" x2="509" y2="193" stroke="#19B5F2" stroke-width="1.1" />
  <line id="slot.choice2.ruler.tick.00.line" x1="416" y1="193" x2="416" y2="205" stroke="#19B5F2" stroke-width="1" />
  <line id="slot.choice2.ruler.tick.01.line" x1="419.1" y1="193" x2="419.1" y2="199" stroke="#19B5F2" stroke-width="0.7" />
  <line id="slot.choice2.ruler.tick.02.line" x1="422.2" y1="193" x2="422.2" y2="199" stroke="#19B5F2" stroke-width="0.7" />
  <line id="slot.choice2.ruler.tick.03.line" x1="425.3" y1="193" x2="425.3" y2="199" stroke="#19B5F2" stroke-width="0.7" />
  <line id="slot.choice2.ruler.tick.04.line" x1="428.4" y1="193" x2="428.4" y2="199" stroke="#19B5F2" stroke-width="0.7" />
  <line id="slot.choice2.ruler.tick.05.line" x1="431.5" y1="193" x2="431.5" y2="202" stroke="#19B5F2" stroke-width="0.85" />
  <line id="slot.choice2.ruler.tick.06.line" x1="434.6" y1="193" x2="434.6" y2="199" stroke="#19B5F2" stroke-width="0.7" />
  <line id="slot.choice2.ruler.tick.07.line" x1="437.7" y1="193" x2="437.7" y2="199" stroke="#19B5F2" stroke-width="0.7" />
  <line id="slot.choice2.ruler.tick.08.line" x1="440.8" y1="193" x2="440.8" y2="199" stroke="#19B5F2" stroke-width="0.7" />
  <line id="slot.choice2.ruler.tick.09.line" x1="443.9" y1="193" x2="443.9" y2="199" stroke="#19B5F2" stroke-width="0.7" />
  <line id="slot.choice2.ruler.tick.10.line" x1="447" y1="193" x2="447" y2="205" stroke="#19B5F2" stroke-width="1" />
  <line id="slot.choice2.ruler.tick.11.line" x1="450.1" y1="193" x2="450.1" y2="199" stroke="#19B5F2" stroke-width="0.7" />
  <line id="slot.choice2.ruler.tick.12.line" x1="453.2" y1="193" x2="453.2" y2="199" stroke="#19B5F2" stroke-width="0.7" />
  <line id="slot.choice2.ruler.tick.13.line" x1="456.3" y1="193" x2="456.3" y2="199" stroke="#19B5F2" stroke-width="0.7" />
  <line id="slot.choice2.ruler.tick.14.line" x1="459.4" y1="193" x2="459.4" y2="199" stroke="#19B5F2" stroke-width="0.7" />
  <line id="slot.choice2.ruler.tick.15.line" x1="462.5" y1="193" x2="462.5" y2="202" stroke="#19B5F2" stroke-width="0.85" />
  <line id="slot.choice2.ruler.tick.16.line" x1="465.6" y1="193" x2="465.6" y2="199" stroke="#19B5F2" stroke-width="0.7" />
  <line id="slot.choice2.ruler.tick.17.line" x1="468.7" y1="193" x2="468.7" y2="199" stroke="#19B5F2" stroke-width="0.7" />
  <line id="slot.choice2.ruler.tick.18.line" x1="471.8" y1="193" x2="471.8" y2="199" stroke="#19B5F2" stroke-width="0.7" />
  <line id="slot.choice2.ruler.tick.19.line" x1="474.9" y1="193" x2="474.9" y2="199" stroke="#19B5F2" stroke-width="0.7" />
  <line id="slot.choice2.ruler.tick.20.line" x1="478" y1="193" x2="478" y2="205" stroke="#19B5F2" stroke-width="1" />
  <line id="slot.choice2.ruler.tick.21.line" x1="481.1" y1="193" x2="481.1" y2="199" stroke="#19B5F2" stroke-width="0.7" />
  <line id="slot.choice2.ruler.tick.22.line" x1="484.2" y1="193" x2="484.2" y2="199" stroke="#19B5F2" stroke-width="0.7" />
  <line id="slot.choice2.ruler.tick.23.line" x1="487.3" y1="193" x2="487.3" y2="199" stroke="#19B5F2" stroke-width="0.7" />
  <line id="slot.choice2.ruler.tick.24.line" x1="490.4" y1="193" x2="490.4" y2="199" stroke="#19B5F2" stroke-width="0.7" />
  <line id="slot.choice2.ruler.tick.25.line" x1="493.5" y1="193" x2="493.5" y2="202" stroke="#19B5F2" stroke-width="0.85" />
  <line id="slot.choice2.ruler.tick.26.line" x1="496.6" y1="193" x2="496.6" y2="199" stroke="#19B5F2" stroke-width="0.7" />
  <line id="slot.choice2.ruler.tick.27.line" x1="499.7" y1="193" x2="499.7" y2="199" stroke="#19B5F2" stroke-width="0.7" />
  <line id="slot.choice2.ruler.tick.28.line" x1="502.8" y1="193" x2="502.8" y2="199" stroke="#19B5F2" stroke-width="0.7" />
  <line id="slot.choice2.ruler.tick.29.line" x1="505.9" y1="193" x2="505.9" y2="199" stroke="#19B5F2" stroke-width="0.7" />
  <line id="slot.choice2.ruler.tick.30.line" x1="509" y1="193" x2="509" y2="205" stroke="#19B5F2" stroke-width="1" />
  <line id="slot.choice2.compass.leg.left.outer.line" x1="445.32" y1="92.36" x2="416" y2="177.64" stroke="#42474B" stroke-width="1.2" />
  <line id="slot.choice2.compass.leg.left.inner.line" x1="449.92" y1="92.36" x2="420.6" y2="177.64" stroke="#C7DCE3" stroke-width="3" />
  <line id="slot.choice2.compass.leg.right.outer.line" x1="452.68" y1="92.36" x2="478" y2="173.04" stroke="#42474B" stroke-width="1.2" />
  <line id="slot.choice2.compass.leg.right.inner.line" x1="448.08" y1="92.36" x2="472.48" y2="161.07999999999998" stroke="#C7DCE3" stroke-width="3" />
  <line id="slot.choice2.compass.bar.left.line" x1="427.88" y1="144.2896" x2="468.43" y2="147.0688" stroke="#6D7378" stroke-width="1.2" />
  <line id="slot.choice2.compass.needle.tip.line" x1="416" y1="170.27999999999997" x2="416" y2="185" stroke="#42474B" stroke-width="1.2" />
  <line id="slot.choice3.ruler.top.line" x1="638" y1="193" x2="731" y2="193" stroke="#19B5F2" stroke-width="1.1" />
  <line id="slot.choice3.ruler.tick.00.line" x1="638" y1="193" x2="638" y2="205" stroke="#19B5F2" stroke-width="1" />
  <line id="slot.choice3.ruler.tick.01.line" x1="641.1" y1="193" x2="641.1" y2="199" stroke="#19B5F2" stroke-width="0.7" />
  <line id="slot.choice3.ruler.tick.02.line" x1="644.2" y1="193" x2="644.2" y2="199" stroke="#19B5F2" stroke-width="0.7" />
  <line id="slot.choice3.ruler.tick.03.line" x1="647.3" y1="193" x2="647.3" y2="199" stroke="#19B5F2" stroke-width="0.7" />
  <line id="slot.choice3.ruler.tick.04.line" x1="650.4" y1="193" x2="650.4" y2="199" stroke="#19B5F2" stroke-width="0.7" />
  <line id="slot.choice3.ruler.tick.05.line" x1="653.5" y1="193" x2="653.5" y2="202" stroke="#19B5F2" stroke-width="0.85" />
  <line id="slot.choice3.ruler.tick.06.line" x1="656.6" y1="193" x2="656.6" y2="199" stroke="#19B5F2" stroke-width="0.7" />
  <line id="slot.choice3.ruler.tick.07.line" x1="659.7" y1="193" x2="659.7" y2="199" stroke="#19B5F2" stroke-width="0.7" />
  <line id="slot.choice3.ruler.tick.08.line" x1="662.8" y1="193" x2="662.8" y2="199" stroke="#19B5F2" stroke-width="0.7" />
  <line id="slot.choice3.ruler.tick.09.line" x1="665.9" y1="193" x2="665.9" y2="199" stroke="#19B5F2" stroke-width="0.7" />
  <line id="slot.choice3.ruler.tick.10.line" x1="669" y1="193" x2="669" y2="205" stroke="#19B5F2" stroke-width="1" />
  <line id="slot.choice3.ruler.tick.11.line" x1="672.1" y1="193" x2="672.1" y2="199" stroke="#19B5F2" stroke-width="0.7" />
  <line id="slot.choice3.ruler.tick.12.line" x1="675.2" y1="193" x2="675.2" y2="199" stroke="#19B5F2" stroke-width="0.7" />
  <line id="slot.choice3.ruler.tick.13.line" x1="678.3" y1="193" x2="678.3" y2="199" stroke="#19B5F2" stroke-width="0.7" />
  <line id="slot.choice3.ruler.tick.14.line" x1="681.4" y1="193" x2="681.4" y2="199" stroke="#19B5F2" stroke-width="0.7" />
  <line id="slot.choice3.ruler.tick.15.line" x1="684.5" y1="193" x2="684.5" y2="202" stroke="#19B5F2" stroke-width="0.85" />
  <line id="slot.choice3.ruler.tick.16.line" x1="687.6" y1="193" x2="687.6" y2="199" stroke="#19B5F2" stroke-width="0.7" />
  <line id="slot.choice3.ruler.tick.17.line" x1="690.7" y1="193" x2="690.7" y2="199" stroke="#19B5F2" stroke-width="0.7" />
  <line id="slot.choice3.ruler.tick.18.line" x1="693.8" y1="193" x2="693.8" y2="199" stroke="#19B5F2" stroke-width="0.7" />
  <line id="slot.choice3.ruler.tick.19.line" x1="696.9" y1="193" x2="696.9" y2="199" stroke="#19B5F2" stroke-width="0.7" />
  <line id="slot.choice3.ruler.tick.20.line" x1="700" y1="193" x2="700" y2="205" stroke="#19B5F2" stroke-width="1" />
  <line id="slot.choice3.ruler.tick.21.line" x1="703.1" y1="193" x2="703.1" y2="199" stroke="#19B5F2" stroke-width="0.7" />
  <line id="slot.choice3.ruler.tick.22.line" x1="706.2" y1="193" x2="706.2" y2="199" stroke="#19B5F2" stroke-width="0.7" />
  <line id="slot.choice3.ruler.tick.23.line" x1="709.3" y1="193" x2="709.3" y2="199" stroke="#19B5F2" stroke-width="0.7" />
  <line id="slot.choice3.ruler.tick.24.line" x1="712.4" y1="193" x2="712.4" y2="199" stroke="#19B5F2" stroke-width="0.7" />
  <line id="slot.choice3.ruler.tick.25.line" x1="715.5" y1="193" x2="715.5" y2="202" stroke="#19B5F2" stroke-width="0.85" />
  <line id="slot.choice3.ruler.tick.26.line" x1="718.6" y1="193" x2="718.6" y2="199" stroke="#19B5F2" stroke-width="0.7" />
  <line id="slot.choice3.ruler.tick.27.line" x1="721.7" y1="193" x2="721.7" y2="199" stroke="#19B5F2" stroke-width="0.7" />
  <line id="slot.choice3.ruler.tick.28.line" x1="724.8" y1="193" x2="724.8" y2="199" stroke="#19B5F2" stroke-width="0.7" />
  <line id="slot.choice3.ruler.tick.29.line" x1="727.9" y1="193" x2="727.9" y2="199" stroke="#19B5F2" stroke-width="0.7" />
  <line id="slot.choice3.ruler.tick.30.line" x1="731" y1="193" x2="731" y2="205" stroke="#19B5F2" stroke-width="1" />
  <line id="slot.choice3.compass.leg.left.outer.line" x1="682.32" y1="92.36" x2="638" y2="177.64" stroke="#42474B" stroke-width="1.2" />
  <line id="slot.choice3.compass.leg.left.inner.line" x1="686.92" y1="92.36" x2="642.6" y2="177.64" stroke="#C7DCE3" stroke-width="3" />
  <line id="slot.choice3.compass.leg.right.outer.line" x1="689.68" y1="92.36" x2="731" y2="173.04" stroke="#42474B" stroke-width="1.2" />
  <line id="slot.choice3.compass.leg.right.inner.line" x1="685.08" y1="92.36" x2="725.48" y2="161.07999999999998" stroke="#C7DCE3" stroke-width="3" />
  <line id="slot.choice3.compass.bar.left.line" x1="655.28" y1="144.2896" x2="716.15" y2="147.0688" stroke="#6D7378" stroke-width="1.2" />
  <line id="slot.choice3.compass.needle.tip.line" x1="638" y1="170.27999999999997" x2="638" y2="185" stroke="#42474B" stroke-width="1.2" />
  <circle id="slot.choice1.compass.hinge.circle" cx="214" cy="85" r="5.5200000000000005" stroke="#42474B" stroke-width="1" fill="#AEB4B7" />
  <circle id="slot.choice2.compass.hinge.circle" cx="449" cy="85" r="5.5200000000000005" stroke="#42474B" stroke-width="1" fill="#AEB4B7" />
  <circle id="slot.choice3.compass.hinge.circle" cx="686" cy="85" r="5.5200000000000005" stroke="#42474B" stroke-width="1" fill="#AEB4B7" />
  <text id="slot.choice1.ruler.label.0.text" x="196" y="209" fill="#333333" font-family="Noto Sans KR, sans-serif" font-size="15" text-anchor="middle">0</text>
  <text id="slot.choice1.ruler.label.1.text" x="227" y="209" fill="#333333" font-family="Noto Sans KR, sans-serif" font-size="15" text-anchor="middle">1</text>
  <text id="slot.choice1.ruler.label.2.text" x="258" y="209" fill="#333333" font-family="Noto Sans KR, sans-serif" font-size="15" text-anchor="middle">2</text>
  <text id="slot.choice1.ruler.label.3.text" x="289" y="209" fill="#333333" font-family="Noto Sans KR, sans-serif" font-size="15" text-anchor="middle">3</text>
  <text id="slot.choice2.ruler.label.0.text" x="416" y="209" fill="#333333" font-family="Noto Sans KR, sans-serif" font-size="15" text-anchor="middle">0</text>
  <text id="slot.choice2.ruler.label.1.text" x="447" y="209" fill="#333333" font-family="Noto Sans KR, sans-serif" font-size="15" text-anchor="middle">1</text>
  <text id="slot.choice2.ruler.label.2.text" x="478" y="209" fill="#333333" font-family="Noto Sans KR, sans-serif" font-size="15" text-anchor="middle">2</text>
  <text id="slot.choice2.ruler.label.3.text" x="509" y="209" fill="#333333" font-family="Noto Sans KR, sans-serif" font-size="15" text-anchor="middle">3</text>
  <text id="slot.choice3.ruler.label.0.text" x="638" y="209" fill="#333333" font-family="Noto Sans KR, sans-serif" font-size="15" text-anchor="middle">0</text>
  <text id="slot.choice3.ruler.label.1.text" x="669" y="209" fill="#333333" font-family="Noto Sans KR, sans-serif" font-size="15" text-anchor="middle">1</text>
  <text id="slot.choice3.ruler.label.2.text" x="700" y="209" fill="#333333" font-family="Noto Sans KR, sans-serif" font-size="15" text-anchor="middle">2</text>
  <text id="slot.choice3.ruler.label.3.text" x="731" y="209" fill="#333333" font-family="Noto Sans KR, sans-serif" font-size="15" text-anchor="middle">3</text>
</svg>
