<?xml version="1.0" encoding="UTF-8"?>
<svg xmlns="http://www.w3.org/2000/svg" width="960" height="425" viewBox="0 0 960 425">
  <metadata><problem_id>S3_초등_3_008706</problem_id></metadata>
  <rect x="0" y="0" width="960" height="425" fill="#FFFFFF" />
  <line id="slot.graphpaper.v0.line" x1="285" y1="110" x2="285" y2="390" stroke="#2563eb" stroke-width="1" />
  <line id="slot.graphpaper.v1.line" x1="320" y1="110" x2="320" y2="390" stroke="#2563eb" stroke-width="1" />
  <line id="slot.graphpaper.v2.line" x1="355" y1="110" x2="355" y2="390" stroke="#2563eb" stroke-width="1" />
  <line id="slot.graphpaper.v3.line" x1="390" y1="110" x2="390" y2="390" stroke="#2563eb" stroke-width="1" />
  <line id="slot.graphpaper.v4.line" x1="425" y1="110" x2="425" y2="390" stroke="#2563eb" stroke-width="1" />
  <line id="slot.graphpaper.v5.line" x1="460" y1="110" x2="460" y2="390" stroke="#2563eb" stroke-width="1" />
  <line id="slot.graphpaper.v6.line" x1="495" y1="110" x2="495" y2="390" stroke="#2563eb" stroke-width="1" />
  <line id="slot.graphpaper.v7.line" x1="530" y1="110" x2="530" y2="390" stroke="#2563eb" stroke-width="1" />
  <line id="slot.graphpaper.v8.line" x1="565" y1="110" x2="565" y2="390" stroke="#2563eb" stroke-width="1" />
  <line id="slot.graphpaper.h0.line" x1="285" y1="110" x2="565" y2="110" stroke="#2563eb" stroke-width="1" />
  <line id="slot.graphpaper.h1.line" x1="285" y1="145" x2="565" y2="145" stroke="#2563eb" stroke-width="1" />
  <line id="slot.graphpaper.h2.line" x1="285" y1="180" x2="565" y2="180" stroke="#2563eb" stroke-width="1" />
  <line id="slot.graphpaper.h3.line" x1="285" y1="215" x2="565" y2="215" stroke="#2563eb" stroke-width="1" />
  <line id="slot.graphpaper.h4.line" x1="285" y1="250" x2="565" y2="250" stroke="#2563eb" stroke-width="1" />
  <line id="slot.graphpaper.h5.line" x1="285" y1="285" x2="565" y2="285" stroke="#2563eb" stroke-width="1" />
  <line id="slot.graphpaper.h6.line" x1="285" y1="320" x2="565" y2="320" stroke="#2563eb" stroke-width="1" />
  <line id="slot.graphpaper.h7.line" x1="285" y1="355" x2="565" y2="355" stroke="#2563eb" stroke-width="1" />
  <line id="slot.graphpaper.h8.line" x1="285" y1="390" x2="565" y2="390" stroke="#2563eb" stroke-width="1" />
  <text id="slot.q1.text" x="18" y="28" fill="#111111" font-family="Noto Sans KR, sans-serif" font-size="28">힘찬이가 야구공을 그림과 같은 모양을 그렸습니다. 이 모양을    그릴  </text>
  <text id="slot.q2.text" x="18" y="66" fill="#111111" font-family="Noto Sans KR, sans-serif" font-size="28">때 컴퍼스의 침을 꽂지 않은 곳을 찾아 기호를 선택하세요.</text>
  <circle id="slot.circle.main.circle" cx="425" cy="250" r="105" stroke="#333333" stroke-width="1.6" fill="none" />
  <path id="slot.arc.tl.path" d="M 320 250 C 385 245 425 195 425 145" stroke="#333333" stroke-width="1.6" fill="none" />
  <path id="slot.arc.br.path" d="M 530 250 C 455 255 425 305 425 355" stroke="#333333" stroke-width="1.6" fill="none" />
  <circle id="slot.pt.kg.circle" cx="322" cy="145" r="5" stroke="#111111" stroke-width="2" fill="#E91E63" />
  <circle id="slot.pt.ng.circle" cx="532" cy="355" r="5" stroke="#111111" stroke-width="2" fill="#E91E63" />
  <circle id="slot.pt.dg.circle" cx="323" cy="356" r="5" stroke="#111111" stroke-width="2" fill="#E91E63" />
  <circle id="slot.pt.rg.circle" cx="426" cy="250" r="5" stroke="#111111" stroke-width="2" fill="#E91E63" />
  <text id="slot.dot.k1.text" x="300" y="135" fill="#111111" font-family="Noto Sans KR, sans-serif" font-size="20">ㄱ</text>
  <text id="slot.dot.n1.text" x="405" y="265" fill="#111111" font-family="Noto Sans KR, sans-serif" font-size="20">ㄴ</text>
  <text id="slot.dot.d1.text" x="300" y="370" fill="#111111" font-family="Noto Sans KR, sans-serif" font-size="20">ㄷ</text>
  <text id="slot.dot.r1.text" x="535" y="370" fill="#111111" font-family="Noto Sans KR, sans-serif" font-size="20">ㄹ</text>
</svg>
