<?xml version="1.0" encoding="UTF-8"?>
<svg xmlns="http://www.w3.org/2000/svg" width="944" height="695" viewBox="0 0 944 695">
  <metadata><problem_id>S3_초등_3_008710</problem_id></metadata>
  <rect x="0" y="0" width="944" height="695" fill="#FFFFFF" />
  <line id="slot.graphpaper.v0.line" x1="280" y1="50" x2="280" y2="526" stroke="#2563eb" stroke-width="1" />
  <line id="slot.graphpaper.v1.line" x1="308" y1="50" x2="308" y2="526" stroke="#2563eb" stroke-width="1" />
  <line id="slot.graphpaper.v2.line" x1="336" y1="50" x2="336" y2="526" stroke="#2563eb" stroke-width="1" />
  <line id="slot.graphpaper.v3.line" x1="364" y1="50" x2="364" y2="526" stroke="#2563eb" stroke-width="1" />
  <line id="slot.graphpaper.v4.line" x1="392" y1="50" x2="392" y2="526" stroke="#2563eb" stroke-width="1" />
  <line id="slot.graphpaper.v5.line" x1="420" y1="50" x2="420" y2="526" stroke="#2563eb" stroke-width="1" />
  <line id="slot.graphpaper.v6.line" x1="448" y1="50" x2="448" y2="526" stroke="#2563eb" stroke-width="1" />
  <line id="slot.graphpaper.v7.line" x1="476" y1="50" x2="476" y2="526" stroke="#2563eb" stroke-width="1" />
  <line id="slot.graphpaper.v8.line" x1="504" y1="50" x2="504" y2="526" stroke="#2563eb" stroke-width="1" />
  <line id="slot.graphpaper.v9.line" x1="532" y1="50" x2="532" y2="526" stroke="#2563eb" stroke-width="1" />
  <line id="slot.graphpaper.v10.line" x1="560" y1="50" x2="560" y2="526" stroke="#2563eb" stroke-width="1" />
  <line id="slot.graphpaper.v11.line" x1="588" y1="50" x2="588" y2="526" stroke="#2563eb" stroke-width="1" />
  <line id="slot.graphpaper.v12.line" x1="616" y1="50" x2="616" y2="526" stroke="#2563eb" stroke-width="1" />
  <line id="slot.graphpaper.h0.line" x1="280" y1="50" x2="616" y2="50" stroke="#2563eb" stroke-width="1" />
  <line id="slot.graphpaper.h1.line" x1="280" y1="78" x2="616" y2="78" stroke="#2563eb" stroke-width="1" />
  <line id="slot.graphpaper.h2.line" x1="280" y1="106" x2="616" y2="106" stroke="#2563eb" stroke-width="1" />
  <line id="slot.graphpaper.h3.line" x1="280" y1="134" x2="616" y2="134" stroke="#2563eb" stroke-width="1" />
  <line id="slot.graphpaper.h4.line" x1="280" y1="162" x2="616" y2="162" stroke="#2563eb" stroke-width="1" />
  <line id="slot.graphpaper.h5.line" x1="280" y1="190" x2="616" y2="190" stroke="#2563eb" stroke-width="1" />
  <line id="slot.graphpaper.h6.line" x1="280" y1="218" x2="616" y2="218" stroke="#2563eb" stroke-width="1" />
  <line id="slot.graphpaper.h7.line" x1="280" y1="246" x2="616" y2="246" stroke="#2563eb" stroke-width="1" />
  <line id="slot.graphpaper.h8.line" x1="280" y1="274" x2="616" y2="274" stroke="#2563eb" stroke-width="1" />
  <line id="slot.graphpaper.h9.line" x1="280" y1="302" x2="616" y2="302" stroke="#2563eb" stroke-width="1" />
  <line id="slot.graphpaper.h10.line" x1="280" y1="330" x2="616" y2="330" stroke="#2563eb" stroke-width="1" />
  <line id="slot.graphpaper.h11.line" x1="280" y1="358" x2="616" y2="358" stroke="#2563eb" stroke-width="1" />
  <line id="slot.graphpaper.h12.line" x1="280" y1="386" x2="616" y2="386" stroke="#2563eb" stroke-width="1" />
  <line id="slot.graphpaper.h13.line" x1="280" y1="414" x2="616" y2="414" stroke="#2563eb" stroke-width="1" />
  <line id="slot.graphpaper.h14.line" x1="280" y1="442" x2="616" y2="442" stroke="#2563eb" stroke-width="1" />
  <line id="slot.graphpaper.h15.line" x1="280" y1="470" x2="616" y2="470" stroke="#2563eb" stroke-width="1" />
  <line id="slot.graphpaper.h16.line" x1="280" y1="498" x2="616" y2="498" stroke="#2563eb" stroke-width="1" />
  <line id="slot.graphpaper.h17.line" x1="280" y1="526" x2="616" y2="526" stroke="#2563eb" stroke-width="1" />
  <text id="slot.title.text" x="11" y="30" fill="#111111" font-family="Noto Sans KR, sans-serif" font-size="28">원을 그린 규칙을 찾아 알맞은 것을 선택하세요.</text>
  <circle id="slot.circle.top.circle" cx="449" cy="161" r="83" stroke="#222222" stroke-width="1.5" fill="none" />
  <circle id="slot.circle.mid.circle" cx="448" cy="330" r="83" stroke="#222222" stroke-width="1.5" fill="none" />
  <circle id="slot.circle.bot.circle" cx="449" cy="245" r="83" stroke="#222222" stroke-width="1.5" fill="none" />
  <circle id="slot.pt.top.circle" cx="450" cy="160" r="5" stroke="#111111" stroke-width="2" fill="#E91E63" />
  <circle id="slot.pt.mid.circle" cx="450" cy="245" r="5" stroke="#111111" stroke-width="2" fill="#E91E63" />
  <circle id="slot.pt.bot.circle" cx="449" cy="329" r="5" stroke="#111111" stroke-width="2" fill="#E91E63" />
  <rect id="slot.rule_box.rect" x="15" y="560" width="830" height="120" fill="none" stroke="#FFA64D" stroke-width="1.5" />
  <text id="slot.rule_1.text" x="75" y="610" fill="#111111" font-family="Noto Sans KR, sans-serif" font-size="30">원의 중심이 ( 아래쪽 , 오른쪽 )으로 모든 3칸씩 옮겨 가고</text>
  <text id="slot.rule_2.text" x="70" y="655" fill="#111111" font-family="Noto Sans KR, sans-serif" font-size="30">원의 반지름이 모든 ( 2, 3, 6 )칸으로 같게 그린 규칙입니다.</text>
</svg>
