<?xml version="1.0" encoding="UTF-8"?>
<svg xmlns="http://www.w3.org/2000/svg" width="940" height="620" viewBox="0 0 940 620">
  <metadata><problem_id>S3_초등_3_008705</problem_id></metadata>
  <rect x="0" y="0" width="940" height="620" fill="#FFFFFF" />
  <line id="slot.graphpaper.v0.line" x1="150" y1="170" x2="150" y2="394" stroke="#2563eb" stroke-width="1" />
  <line id="slot.graphpaper.v1.line" x1="178" y1="170" x2="178" y2="394" stroke="#2563eb" stroke-width="1" />
  <line id="slot.graphpaper.v2.line" x1="206" y1="170" x2="206" y2="394" stroke="#2563eb" stroke-width="1" />
  <line id="slot.graphpaper.v3.line" x1="234" y1="170" x2="234" y2="394" stroke="#2563eb" stroke-width="1" />
  <line id="slot.graphpaper.v4.line" x1="262" y1="170" x2="262" y2="394" stroke="#2563eb" stroke-width="1" />
  <line id="slot.graphpaper.v5.line" x1="290" y1="170" x2="290" y2="394" stroke="#2563eb" stroke-width="1" />
  <line id="slot.graphpaper.v6.line" x1="318" y1="170" x2="318" y2="394" stroke="#2563eb" stroke-width="1" />
  <line id="slot.graphpaper.v7.line" x1="346" y1="170" x2="346" y2="394" stroke="#2563eb" stroke-width="1" />
  <line id="slot.graphpaper.v8.line" x1="374" y1="170" x2="374" y2="394" stroke="#2563eb" stroke-width="1" />
  <line id="slot.graphpaper.v9.line" x1="402" y1="170" x2="402" y2="394" stroke="#2563eb" stroke-width="1" />
  <line id="slot.graphpaper.v10.line" x1="430" y1="170" x2="430" y2="394" stroke="#2563eb" stroke-width="1" />
  <line id="slot.graphpaper.v11.line" x1="458" y1="170" x2="458" y2="394" stroke="#2563eb" stroke-width="1" />
  <line id="slot.graphpaper.v12.line" x1="486" y1="170" x2="486" y2="394" stroke="#2563eb" stroke-width="1" />
  <line id="slot.graphpaper.v13.line" x1="514" y1="170" x2="514" y2="394" stroke="#2563eb" stroke-width="1" />
  <line id="slot.graphpaper.v14.line" x1="542" y1="170" x2="542" y2="394" stroke="#2563eb" stroke-width="1" />
  <line id="slot.graphpaper.v15.line" x1="570" y1="170" x2="570" y2="394" stroke="#2563eb" stroke-width="1" />
  <line id="slot.graphpaper.v16.line" x1="598" y1="170" x2="598" y2="394" stroke="#2563eb" stroke-width="1" />
  <line id="slot.graphpaper.v17.line" x1="626" y1="170" x2="626" y2="394" stroke="#2563eb" stroke-width="1" />
  <line id="slot.graphpaper.v18.line" x1="654" y1="170" x2="654" y2="394" stroke="#2563eb" stroke-width="1" />
  <line id="slot.graphpaper.v19.line" x1="682" y1="170" x2="682" y2="394" stroke="#2563eb" stroke-width="1" />
  <line id="slot.graphpaper.v20.line" x1="710" y1="170" x2="710" y2="394" stroke="#2563eb" stroke-width="1" />
  <line id="slot.graphpaper.h0.line" x1="150" y1="170" x2="710" y2="170" stroke="#2563eb" stroke-width="1" />
  <line id="slot.graphpaper.h1.line" x1="150" y1="198" x2="710" y2="198" stroke="#2563eb" stroke-width="1" />
  <line id="slot.graphpaper.h2.line" x1="150" y1="226" x2="710" y2="226" stroke="#2563eb" stroke-width="1" />
  <line id="slot.graphpaper.h3.line" x1="150" y1="254" x2="710" y2="254" stroke="#2563eb" stroke-width="1" />
  <line id="slot.graphpaper.h4.line" x1="150" y1="282" x2="710" y2="282" stroke="#2563eb" stroke-width="1" />
  <line id="slot.graphpaper.h5.line" x1="150" y1="310" x2="710" y2="310" stroke="#2563eb" stroke-width="1" />
  <line id="slot.graphpaper.h6.line" x1="150" y1="338" x2="710" y2="338" stroke="#2563eb" stroke-width="1" />
  <line id="slot.graphpaper.h7.line" x1="150" y1="366" x2="710" y2="366" stroke="#2563eb" stroke-width="1" />
  <line id="slot.graphpaper.h8.line" x1="150" y1="394" x2="710" y2="394" stroke="#2563eb" stroke-width="1" />
  <text id="slot.qtext1.text" x="31" y="75" fill="#111111" font-family="Noto Sans KR, sans-serif" font-size="30">규칙에 따라 원을 그린 그림입니다. 그린 규칙을 바르게 설명했으면 ○표,</text>
  <text id="slot.qtext2.text" x="30" y="125" fill="#111111" font-family="Noto Sans KR, sans-serif" font-size="30">그렇지 않으면 ×표를 선택하세요.</text>
  <text id="slot.qtext2.copy14.copy15.text" x="305" y="700" fill="#111111" font-family="Noto Sans KR, sans-serif" font-size="30">원의 중심이 오른쪽으로 모눈 4칸씩 옮겨가고</text>
  <circle id="slot.circle2.circle" cx="263" cy="280" r="83" stroke="#111111" stroke-width="2" fill="none" />
  <circle id="slot.circle2.copy11.circle" cx="375" cy="280" r="85" stroke="#111111" stroke-width="2" fill="none" />
  <circle id="slot.circle2.copy11.copy12.circle" cx="485" cy="280" r="85" stroke="#111111" stroke-width="2" fill="none" />
  <circle id="slot.circle2.copy11.copy12.copy13.circle" cx="600" cy="280" r="85" stroke="#111111" stroke-width="2" fill="none" />
  <circle id="slot.center1.circle" cx="261" cy="280" r="5" stroke="#111111" stroke-width="2" fill="#ff4aa2" />
  <circle id="slot.center2.circle" cx="375" cy="280" r="5" stroke="#111111" stroke-width="2" fill="#ff4aa2" />
  <circle id="slot.center3.circle" cx="485" cy="280" r="5" stroke="#111111" stroke-width="2" fill="#ff4aa2" />
  <circle id="slot.center4.circle" cx="600" cy="280" r="5" stroke="#111111" stroke-width="2" fill="#ff4aa2" />
  <rect id="slot.bubble.rect" x="121" y="435" width="635" height="105" fill="#d9effb" stroke="#111111" stroke-width="1.5" />
  <text id="slot.qtext2.copy14.text" x="161" y="475" fill="#111111" font-family="Noto Sans KR, sans-serif" font-size="30">원의 중심이 오른쪽으로 모눈 4칸씩 옮겨가고</text>
  <text id="slot.qtext2.copy16.text" x="166" y="520" fill="#111111" font-family="Noto Sans KR, sans-serif" font-size="30">원의 반지름이 모눈 3칸씩 늘어나게 그렸어.</text>
</svg>
