<?xml version="1.0" encoding="UTF-8"?>
<svg xmlns="http://www.w3.org/2000/svg" width="940" height="900" viewBox="0 0 940 900">
  <metadata><problem_id>S3_초등_3_008683</problem_id></metadata>
  <rect x="0" y="0" width="940" height="900" fill="#FFFFFF" />
  <rect id="slot.box1.rect" x="80" y="195" width="760" height="120" fill="#dcd7ef" stroke="#111111" stroke-width="1.5" />
  <rect id="slot.diagram1.frame.rect" x="605" y="345" width="235" height="240" fill="#ffffff" stroke="#111111" stroke-width="1.5" />
  <circle id="slot.diagram1.circle.circle" cx="725" cy="465" r="120" stroke="#111111" stroke-width="2" fill="none" />
  <rect id="slot.box3.rect" x="85" y="672" width="760" height="115" fill="#ffffff" stroke="#111111" stroke-width="1.5" />
  <polygon id="slot.girl.person.body.polygon" points="320,645 420,645 405,580 335,580" stroke="none" stroke-width="2" fill="#F16078" />
  <circle id="slot.girl.person.head.circle" cx="370" cy="515" r="50" stroke="none" stroke-width="2" fill="#ffd9ad" />
  <path id="slot.girl.person.hair.cap.path" d="M 320 515 C 320 465 415 455 425 515 C 390 485 350 500 320 515 Z" stroke="none" stroke-width="2" fill="#4B260B" />
  <path id="slot.girl.person.smile.path" d="M 355 545 Q 370 555 385 545" stroke="#b86e39" stroke-width="1.3" fill="none" />
  <path id="slot.girl.person.tail.left.path" d="M 320 510 C 275 520 300 590 280 600" stroke="#4B260B" stroke-width="7" fill="none" />
  <path id="slot.girl.person.tail.right.path" d="M 420 510 C 465 520 440 590 460 600" stroke="#4B260B" stroke-width="7" fill="none" />
  <polygon id="slot.girl.person.bow.left.polygon" points="355,590 320,575 345,615" stroke="none" stroke-width="2" fill="#E85BA6" />
  <polygon id="slot.girl.person.bow.right.polygon" points="385,590 420,575 395,615" stroke="none" stroke-width="2" fill="#E85BA6" />
  <line id="slot.diagram1.ray1.line" x1="725" y1="465" x2="725" y2="345" stroke="#5dbbff" stroke-width="2" stroke-dasharray="6 6" />
  <line id="slot.diagram1.ray2.line" x1="725" y1="465" x2="785" y2="360" stroke="#5dbbff" stroke-width="2" stroke-dasharray="6 6" />
  <line id="slot.diagram1.ray3.line" x1="725" y1="465" x2="825" y2="405" stroke="#5dbbff" stroke-width="2" stroke-dasharray="6 6" />
  <line id="slot.diagram1.ray4.line" x1="725" y1="465" x2="840" y2="465" stroke="#5dbbff" stroke-width="2" stroke-dasharray="6 6" />
  <line id="slot.diagram1.ray5.line" x1="725" y1="465" x2="825" y2="525" stroke="#9aa0a6" stroke-width="2" stroke-dasharray="6 6" />
  <circle id="slot.diagram1.center.circle" cx="725" cy="465" r="5" stroke="#111111" stroke-width="2" fill="#ff4db8" />
  <circle id="slot.girl.person.eye.left.circle" cx="350" cy="525" r="5" stroke="none" stroke-width="2" fill="#2b2118" />
  <circle id="slot.girl.person.eye.right.circle" cx="390" cy="525" r="5" stroke="none" stroke-width="2" fill="#2b2118" />
  <text id="slot.q1.text" x="75" y="120" fill="#111111" font-family="Noto Sans KR, sans-serif" font-size="30">    다음과 같은 방법으로 원을 그렸습니다. 그린 원을 보고 </text>
  <text id="slot.q2.text" x="75" y="165" fill="#111111" font-family="Noto Sans KR, sans-serif" font-size="30">알맞은 말을 선택하세요.</text>
  <text id="slot.box2.text" x="115" y="240" fill="#111111" font-family="Noto Sans KR, sans-serif" font-size="30">① 빨간색 점에서 2 cm 떨어진 위치에 점을 찍습니다.</text>
  <text id="slot.box2_2.text" x="115" y="286" fill="#111111" font-family="Noto Sans KR, sans-serif" font-size="30">② 찍은 점들을 이어 원을 그립니다.</text>
  <text id="slot.diagram1.label1.text" x="730" y="380" fill="#111111" font-family="Noto Sans KR, sans-serif" font-size="30">2 cm</text>
  <text id="slot.diagram1.label2.text" x="685" y="415" fill="#111111" font-family="Noto Sans KR, sans-serif" font-size="30">2 cm</text>
  <text id="slot.diagram1.label3.text" x="765" y="420" fill="#111111" font-family="Noto Sans KR, sans-serif" font-size="30">2 cm</text>
  <text id="slot.diagram1.label4.text" x="780" y="470" fill="#111111" font-family="Noto Sans KR, sans-serif" font-size="30">2 cm</text>
  <text id="slot.diagram1.label5.text" x="770" y="500" fill="#111111" font-family="Noto Sans KR, sans-serif" font-size="30">2 cm</text>
  <text id="slot.bubble1.text" x="230" y="375" fill="#111111" font-family="Noto Sans KR, sans-serif" font-size="30">        줄로 연결한 막대를 돌려</text>
  <text id="slot.choice1.text" x="120" y="717" fill="#111111" font-family="Noto Sans KR, sans-serif" font-size="30">자를 이용하여 점을 더 ( 많이 , 적게 ) 찍은 다음, 점들을 이</text>
  <text id="slot.choice2.text" x="115" y="762" fill="#111111" font-family="Noto Sans KR, sans-serif" font-size="30">으면 원을 좀 더 정확하게 그릴 수 있습니다.</text>
  <text id="slot.bubble1.copy3.text" x="130" y="430" fill="#111111" font-family="Noto Sans KR, sans-serif" font-size="30">그린 원과 비슷한 원이 그려지는구나.  </text>
</svg>
