<?xml version="1.0" encoding="UTF-8"?>
<svg xmlns="http://www.w3.org/2000/svg" width="886" height="430" viewBox="0 0 886 430">
  <metadata><problem_id>S3_초등_3_008618</problem_id></metadata>
  <rect x="0" y="0" width="886" height="430" fill="#FFFFFF" />
  <text id="slot.qtext.text" x="84" y="30" max_width="758" fill="#111111" font-family="Noto Sans KR, sans-serif" font-size="28">몫이 가장 큰 나눗셈을 말한 사람을 선택해 보세요.</text>
  <path id="slot.left.bubble.path" d="M 147.0 78 C 147.0 59.28, 184.62 52.0, 246 52.0 C 307.38 52.0, 345.0 59.28, 345.0 78 C 345.0 96.72, 307.38 104.0, 246 104.0 C 184.62 104.0, 147.0 96.72, 147.0 78 Z" stroke="#f5a000" stroke-width="2" fill="#ffffff" />
  <polygon id="slot.left.tail.polygon" points="237,99 255,99 246,122" stroke="#f5a000" stroke-width="1.6" fill="#ffffff" />
  <polygon id="slot.left.person.body.polygon" points="218,237 274,237 264,201 228,201" stroke="none" stroke-width="2" fill="#f5b22a" />
  <circle id="slot.left.person.head.circle" cx="246" cy="164" r="28" stroke="none" stroke-width="2" fill="#ffd9ad" />
  <path id="slot.left.person.hair.cap.path" d="M 218 163 C 220 134, 271 129, 275 163 C 256 147, 234 154, 218 163 Z" stroke="none" stroke-width="2" fill="#8b3f24" />
  <circle id="slot.left.person.eye.left.circle" cx="236" cy="168" r="2.3" stroke="none" stroke-width="2" fill="#2b2118" />
  <circle id="slot.left.person.eye.right.circle" cx="256" cy="168" r="2.3" stroke="none" stroke-width="2" fill="#2b2118" />
  <path id="slot.left.person.smile.path" d="M 239 180 Q 246 186 253 180" stroke="#b86e39" stroke-width="1.3" fill="none" />
  <path id="slot.left.person.tail.left.path" d="M 219 161 C 194 165, 208 206, 196 212" stroke="#8b3f24" stroke-width="7" fill="none" />
  <path id="slot.left.person.tail.right.path" d="M 273 161 C 298 165, 284 206, 296 212" stroke="#8b3f24" stroke-width="7" fill="none" />
  <polygon id="slot.left.person.bow.left.polygon" points="239,207 220,199 232,220" stroke="none" stroke-width="2" fill="#ffffff" />
  <polygon id="slot.left.person.bow.right.polygon" points="253,207 272,199 260,220" stroke="none" stroke-width="2" fill="#ffffff" />
  <rect id="slot.name.left.box.rect" x="212" y="242" width="68" height="34" fill="#ffffff" stroke="#d58cc3" stroke-width="2" rx="8" ry="8" />
  <path id="slot.mid.bubble.path" d="M 391.0 78 C 391.0 59.28, 427.1 52.0, 486 52.0 C 544.9 52.0, 581.0 59.28, 581.0 78 C 581.0 96.72, 544.9 104.0, 486 104.0 C 427.1 104.0, 391.0 96.72, 391.0 78 Z" stroke="#f5a000" stroke-width="2" fill="#ffffff" />
  <polygon id="slot.mid.tail.polygon" points="477,99 495,99 486,122" stroke="#f5a000" stroke-width="1.6" fill="#ffffff" />
  <polygon id="slot.mid.person.body.polygon" points="458,237 514,237 504,201 468,201" stroke="none" stroke-width="2" fill="#21a85a" />
  <circle id="slot.mid.person.head.circle" cx="486" cy="164" r="28" stroke="none" stroke-width="2" fill="#ffd9ad" />
  <path id="slot.mid.person.hair.cap.path" d="M 458 163 C 460 134, 511 129, 515 163 C 496 147, 474 154, 458 163 Z" stroke="none" stroke-width="2" fill="#6b5846" />
  <circle id="slot.mid.person.eye.left.circle" cx="476" cy="168" r="2.3" stroke="none" stroke-width="2" fill="#2b2118" />
  <circle id="slot.mid.person.eye.right.circle" cx="496" cy="168" r="2.3" stroke="none" stroke-width="2" fill="#2b2118" />
  <path id="slot.mid.person.smile.path" d="M 479 180 Q 486 186 493 180" stroke="#b86e39" stroke-width="1.3" fill="none" />
  <rect id="slot.name.mid.box.rect" x="452" y="242" width="68" height="34" fill="#ffffff" stroke="#d58cc3" stroke-width="2" rx="8" ry="8" />
  <path id="slot.right.bubble.path" d="M 629.0 78 C 629.0 59.28, 665.1 52.0, 724 52.0 C 782.9 52.0, 819.0 59.28, 819.0 78 C 819.0 96.72, 782.9 104.0, 724 104.0 C 665.1 104.0, 629.0 96.72, 629.0 78 Z" stroke="#f5a000" stroke-width="2" fill="#ffffff" />
  <polygon id="slot.right.tail.polygon" points="715,99 733,99 724,122" stroke="#f5a000" stroke-width="1.6" fill="#ffffff" />
  <polygon id="slot.right.person.body.polygon" points="696,237 752,237 742,201 706,201" stroke="none" stroke-width="2" fill="#ffd44d" />
  <circle id="slot.right.person.head.circle" cx="724" cy="164" r="28" stroke="none" stroke-width="2" fill="#ffd9ad" />
  <path id="slot.right.person.hair.cap.path" d="M 696 163 C 698 134, 749 129, 753 163 C 734 147, 712 154, 696 163 Z" stroke="none" stroke-width="2" fill="#725442" />
  <circle id="slot.right.person.eye.left.circle" cx="714" cy="168" r="2.3" stroke="none" stroke-width="2" fill="#2b2118" />
  <circle id="slot.right.person.eye.right.circle" cx="734" cy="168" r="2.3" stroke="none" stroke-width="2" fill="#2b2118" />
  <path id="slot.right.person.smile.path" d="M 717 180 Q 724 186 731 180" stroke="#b86e39" stroke-width="1.3" fill="none" />
  <path id="slot.right.person.tail.left.path" d="M 697 161 C 672 165, 686 206, 674 212" stroke="#725442" stroke-width="7" fill="none" />
  <path id="slot.right.person.tail.right.path" d="M 751 161 C 776 165, 762 206, 774 212" stroke="#725442" stroke-width="7" fill="none" />
  <polygon id="slot.right.person.bow.left.polygon" points="717,207 698,199 710,220" stroke="none" stroke-width="2" fill="#d72b7b" />
  <polygon id="slot.right.person.bow.right.polygon" points="731,207 750,199 738,220" stroke="none" stroke-width="2" fill="#d72b7b" />
  <rect id="slot.name.right.box.rect" x="690" y="242" width="68" height="34" fill="#ffffff" stroke="#d58cc3" stroke-width="2" rx="8" ry="8" />
  <text id="slot.left.text.text" x="246" y="86" max_width="758" fill="#111111" font-family="Noto Sans KR, sans-serif" font-size="28" text-anchor="middle">262÷2</text>
  <text id="slot.name.left.text.text" x="246" y="267" max_width="758" fill="#111111" font-family="Noto Sans KR, sans-serif" font-size="25" text-anchor="middle">소진</text>
  <text id="slot.mid.text.text" x="486" y="86" max_width="758" fill="#111111" font-family="Noto Sans KR, sans-serif" font-size="28" text-anchor="middle">440÷5</text>
  <text id="slot.name.mid.text.text" x="486" y="267" max_width="758" fill="#111111" font-family="Noto Sans KR, sans-serif" font-size="25" text-anchor="middle">경수</text>
  <text id="slot.right.text.text" x="724" y="86" max_width="758" fill="#111111" font-family="Noto Sans KR, sans-serif" font-size="28" text-anchor="middle">552÷6</text>
  <text id="slot.name.right.text.text" x="724" y="267" max_width="758" fill="#111111" font-family="Noto Sans KR, sans-serif" font-size="25" text-anchor="middle">태희</text>
</svg>
