<?xml version="1.0" encoding="UTF-8"?>
<svg xmlns="http://www.w3.org/2000/svg" width="900" height="250" viewBox="0 0 900 250">
  <metadata><problem_id>S3_초등_3_008675</problem_id></metadata>
  <rect x="0" y="0" width="900" height="250" fill="#FFFFFF" />
  <text id="slot.header.text.text" x="72" y="29" fill="#111111" font-family="Noto Sans KR, sans-serif" font-size="26">원을 바르게 완성한 것을 선택하세요.</text>
  <text id="slot.header.text.copy4.text" x="90" y="95" fill="#111111" font-family="Noto Sans KR, sans-serif" font-size="25">가.</text>
  <text id="slot.header.text.copy4.copy5.text" x="345" y="95" fill="#111111" font-family="Noto Sans KR, sans-serif" font-size="25">나.</text>
  <text id="slot.header.text.copy4.copy5.copy6.text" x="625" y="95" fill="#111111" font-family="Noto Sans KR, sans-serif" font-size="25">다.</text>
  <rect id="slot.choice.left.square.rect" x="137" y="74" width="152" height="152" fill="#ffffff" stroke="#d5c400" stroke-width="2" />
  <path id="slot.choice.left.base.path" d="M 289.0 150.0 A 76.0 76.0 0 1 0 213.0 226.0" stroke="#111111" stroke-width="2.1" fill="none" />
  <rect id="slot.choice.middle.square.rect" x="410" y="74" width="152" height="152" fill="#ffffff" stroke="#d5c400" stroke-width="2" />
  <path id="slot.choice.middle.base.path" d="M 562 150 A 76 76 0 1 0 486 226" stroke="#111111" stroke-width="2.1" fill="none" />
  <path id="slot.choice.middle.red.path" d="M 486 226 A 76 76 0 0 0 562 150" stroke="#ff0000" stroke-width="2.1" fill="none" />
  <rect id="slot.choice.right.square.rect" x="672" y="74" width="152" height="152" fill="#ffffff" stroke="#d5c400" stroke-width="2" />
  <path id="slot.choice.right.base.path" d="M 824.0 150.0 A 76.0 76.0 0 1 0 748.0 226.0" stroke="#111111" stroke-width="2.1" fill="none" />
  <path id="slot.choice.right.red.path" d="M 748.0 226.0 A 76.0 76.0 0 0 1 824.0 150.0" stroke="#ff0000" stroke-width="2.1" fill="none" />
  <circle id="slot.choice.left.center.circle" cx="213" cy="150" r="3.5" stroke="none" stroke-width="0" fill="#e4007f" />
  <circle id="slot.choice.middle.center.circle" cx="486" cy="150" r="3.5" stroke="none" stroke-width="0" fill="#e4007f" />
  <circle id="slot.choice.right.center.circle" cx="748" cy="150" r="3.5" stroke="none" stroke-width="0" fill="#e4007f" />
</svg>
