<?xml version="1.0" encoding="UTF-8"?>
<svg xmlns="http://www.w3.org/2000/svg" width="760" height="367" viewBox="0 0 760 367">
  <metadata><problem_id>S3_초등_3_008561</problem_id></metadata>
  <rect x="0" y="0" width="760" height="367" fill="#FFFFFF" />
  <text id="slot.q_text.text" x="50" y="50" max_width="632" fill="#111111" font-family="Noto Sans KR, sans-serif" font-size="30">계산 결과가 2000보다 큰 곱셈식을 모두 선택해 보세요.</text>
  <rect id="slot.road.rect" x="130" y="140" width="505" height="80" fill="#D8D8D8" stroke="#111111" stroke-width="1.5" />
  <rect id="slot.car1.body.rect" x="180" y="100" width="125" height="55" fill="#BFE6E0" stroke="#111111" stroke-width="1.5" />
  <rect id="slot.car1.roof.rect" x="195" y="90" width="70" height="20" fill="#BFE6E0" stroke="#111111" stroke-width="1.5" />
  <circle id="slot.car1.wheel1.circle" cx="190" cy="155" r="10" stroke="#111111" stroke-width="2" fill="#7A7A7A" />
  <circle id="slot.car1.wheel2.circle" cx="275" cy="155" r="10" stroke="#111111" stroke-width="2" fill="#7A7A7A" />
  <rect id="slot.car1.window.rect" x="200" y="95" width="55" height="25" fill="#DDF3F1" stroke="#111111" stroke-width="1.5" />
  <rect id="slot.car2.body.rect" x="340" y="100" width="125" height="55" fill="#BFE6E0" stroke="#111111" stroke-width="1.5" />
  <rect id="slot.car2.roof.rect" x="355" y="90" width="70" height="20" fill="#BFE6E0" stroke="#111111" stroke-width="1.5" />
  <circle id="slot.car2.wheel1.circle" cx="350" cy="155" r="10" stroke="#111111" stroke-width="2" fill="#7A7A7A" />
  <circle id="slot.car2.wheel2.circle" cx="435" cy="155" r="10" stroke="#111111" stroke-width="2" fill="#7A7A7A" />
  <rect id="slot.car2.window.rect" x="365" y="95" width="55" height="25" fill="#DDF3F1" stroke="#111111" stroke-width="1.5" />
  <rect id="slot.car3.body.rect" x="500" y="100" width="125" height="55" fill="#BFE6E0" stroke="#111111" stroke-width="1.5" />
  <rect id="slot.car3.roof.rect" x="515" y="90" width="70" height="20" fill="#BFE6E0" stroke="#111111" stroke-width="1.5" />
  <circle id="slot.car3.wheel1.circle" cx="510" cy="155" r="10" stroke="#111111" stroke-width="2" fill="#7A7A7A" />
  <circle id="slot.car3.wheel2.circle" cx="595" cy="155" r="10" stroke="#111111" stroke-width="2" fill="#7A7A7A" />
  <rect id="slot.car3.window.rect" x="525" y="95" width="55" height="25" fill="#DDF3F1" stroke="#111111" stroke-width="1.5" />
  <line id="slot.road_dash.line" x1="130" y1="180" x2="640" y2="180" stroke="#F4F4F4" stroke-width="2" stroke-dasharray="8 5" />
  <text id="slot.car1.text.text" x="195" y="140" max_width="632" fill="#111111" font-family="Noto Sans KR, sans-serif" font-size="25">37 × 60</text>
  <text id="slot.car2.text.text" x="355" y="140" max_width="632" fill="#111111" font-family="Noto Sans KR, sans-serif" font-size="25">80 × 20</text>
  <text id="slot.car3.text.text" x="515" y="140" max_width="632" fill="#111111" font-family="Noto Sans KR, sans-serif" font-size="25">70 × 40</text>
</svg>
