<?xml version="1.0" encoding="UTF-8"?>
<svg xmlns="http://www.w3.org/2000/svg" width="766" height="396" viewBox="0 0 766 396">
  <metadata><problem_id>S3_초등_3_008582</problem_id></metadata>
  <rect x="0" y="0" width="766" height="396" fill="#FFFFFF" />
  <text id="slot.q_text.text" x="60" y="37" max_width="638" fill="#111111" font-family="Noto Sans KR, sans-serif" font-size="28">계산 결과가 더 큰 사람의 이름을 선택해 보세요.</text>
  <polygon id="slot.person_left.body.polygon" points="207,217 277,217 266,164 218,164" stroke="none" stroke-width="2" fill="#d28bc8" />
  <circle id="slot.person_left.ear.left.circle" cx="211" cy="125" r="9" stroke="none" stroke-width="2" fill="#ffd8b3" />
  <circle id="slot.person_left.ear.right.circle" cx="273" cy="125" r="9" stroke="none" stroke-width="2" fill="#ffd8b3" />
  <circle id="slot.person_left.head.circle" cx="242" cy="122" r="29" stroke="none" stroke-width="2" fill="#ffd8b3" />
  <path id="slot.person_left.hair.cap.path" d="M 213.0 121.0 C 215.0 90.0, 270.0 87.0, 272.0 121.0 C 257.0 104.0, 245.0 114.0, 238.0 102.0 C 230.0 115.0, 220.0 104.0, 213.0 121.0 Z" stroke="none" stroke-width="2" fill="#4b1f16" />
  <circle id="slot.person_left.eye.left.circle" cx="232" cy="128" r="3.8" stroke="none" stroke-width="2" fill="#2b2118" />
  <circle id="slot.person_left.eye.right.circle" cx="252" cy="128" r="3.8" stroke="none" stroke-width="2" fill="#2b2118" />
  <path id="slot.person_left.smile.path" d="M 234.0 140.0 Q 242.0 147.0 250.0 140.0" stroke="#b76b3a" stroke-width="1.6" fill="none" />
  <rect id="slot.name_left_box.rect" x="82" y="141" width="70" height="38" fill="#ffffff" stroke="#b8c7dc" stroke-width="1.8" rx="8" ry="8" />
  <rect id="slot.card_left.rect" x="181" y="161" width="130" height="59" fill="#F6C344" stroke="#111111" stroke-width="1.5" />
  <circle id="slot.person_left.hand.left.circle" cx="176" cy="192" r="5" stroke="none" stroke-width="2" fill="#ffd8b3" />
  <circle id="slot.person_left.hand.right.circle" cx="316" cy="192" r="5" stroke="none" stroke-width="2" fill="#ffd8b3" />
  <text id="slot.name_left.text" x="97" y="168" max_width="638" fill="#111111" font-family="Noto Sans KR, sans-serif" font-size="25">진수</text>
  <text id="slot.card_left_text.text" x="205" y="196" max_width="638" fill="#111111" font-family="Noto Sans KR, sans-serif" font-size="25">63 × 12</text>
  <polygon id="slot.person_right.body.polygon" points="407,212 477,212 466,159 418,159" stroke="none" stroke-width="2" fill="#e85d50" />
  <circle id="slot.person_right.ear.left.circle" cx="411" cy="120" r="9" stroke="none" stroke-width="2" fill="#ffd8b3" />
  <circle id="slot.person_right.ear.right.circle" cx="473" cy="120" r="9" stroke="none" stroke-width="2" fill="#ffd8b3" />
  <circle id="slot.person_right.head.circle" cx="442" cy="117" r="29" stroke="none" stroke-width="2" fill="#ffd8b3" />
  <path id="slot.person_right.hair.cap.path" d="M 413.0 116.0 C 415.0 85.0, 470.0 82.0, 472.0 116.0 C 457.0 99.0, 445.0 109.0, 438.0 97.0 C 430.0 110.0, 420.0 99.0, 413.0 116.0 Z" stroke="none" stroke-width="2" fill="#1d1714" />
  <circle id="slot.person_right.eye.left.circle" cx="432" cy="123" r="3.8" stroke="none" stroke-width="2" fill="#2b2118" />
  <circle id="slot.person_right.eye.right.circle" cx="452" cy="123" r="3.8" stroke="none" stroke-width="2" fill="#2b2118" />
  <path id="slot.person_right.smile.path" d="M 434.0 135.0 Q 442.0 142.0 450.0 135.0" stroke="#b76b3a" stroke-width="1.6" fill="none" />
  <circle id="slot.person_right.glasses.left.circle" cx="431" cy="122" r="13" stroke="#27b7be" stroke-width="3" fill="none" />
  <circle id="slot.person_right.glasses.right.circle" cx="453" cy="122" r="13" stroke="#27b7be" stroke-width="3" fill="none" />
  <rect id="slot.name_right_box.rect" x="536" y="132" width="72" height="38" fill="#ffffff" stroke="#b8c7dc" stroke-width="1.8" rx="8" ry="8" />
  <rect id="slot.card_right.rect" x="382" y="156" width="130" height="59" fill="#F6C344" stroke="#111111" stroke-width="1.5" />
  <circle id="slot.person_right.hand.left.circle" cx="377" cy="187" r="5" stroke="none" stroke-width="2" fill="#ffd8b3" />
  <circle id="slot.person_right.hand.right.circle" cx="517" cy="187" r="5" stroke="none" stroke-width="2" fill="#ffd8b3" />
  <line id="slot.person_right.glasses.bridge.line" x1="441" y1="122" x2="443" y2="122" stroke="#27b7be" stroke-width="3" />
  <text id="slot.name_right.text" x="550" y="159" max_width="638" fill="#111111" font-family="Noto Sans KR, sans-serif" font-size="25">수호</text>
  <text id="slot.card_right_text.text" x="405" y="191" max_width="638" fill="#111111" font-family="Noto Sans KR, sans-serif" font-size="25">24 × 31</text>
</svg>
