<?xml version="1.0" encoding="UTF-8"?>
<svg xmlns="http://www.w3.org/2000/svg" width="550" height="300" viewBox="0 0 550 300">
  <metadata><problem_id>S3_초등_3_008563</problem_id></metadata>
  <rect x="0" y="0" width="550" height="300" fill="#FFFFFF" />
  <text id="slot.q_text.text" x="75" y="40" max_width="422" fill="#111111" font-family="Noto Sans KR, sans-serif" font-size="25">계산 결과가 더 큰 사람을 선택해 보세요.</text>
  <rect id="slot.left_card.rect" x="120" y="180" width="120" height="60" fill="#ffffff" stroke="#111111" stroke-width="1.5" />
  <rect id="slot.right_card.rect" x="310" y="180" width="120" height="60" fill="#ffffff" stroke="#111111" stroke-width="1.5" />
  <rect id="slot.left_name_box.rect" x="150" y="70" width="60" height="25" fill="#ffffff" stroke="#111111" stroke-width="1.5" />
  <rect id="slot.right_name_box.rect" x="345" y="70" width="50" height="25" fill="#ffffff" stroke="#111111" stroke-width="1.5" />
  <rect id="slot.figure.left.body.rect" x="165" y="148" width="30" height="36" fill="#D7A0D7" stroke="#D7A0D7" stroke-width="1.5" rx="10" ry="10" />
  <circle id="slot.figure.left.head.circle" cx="180" cy="128" r="28" stroke="#111111" stroke-width="2" fill="#F3C0AD" />
  <circle id="slot.figure.left.eye1.circle" cx="172" cy="125" r="3.5" stroke="#111111" stroke-width="2" fill="#222222" />
  <circle id="slot.figure.left.eye2.circle" cx="188" cy="125" r="3.5" stroke="#111111" stroke-width="2" fill="#222222" />
  <rect id="slot.figure.right.body.rect" x="355" y="148" width="30" height="36" fill="#8ED7E6" stroke="#8ED7E6" stroke-width="1.5" rx="10" ry="10" />
  <circle id="slot.figure.right.head.circle" cx="370" cy="128" r="28" stroke="#111111" stroke-width="2" fill="#F3C0AD" />
  <circle id="slot.figure.right.eye1.circle" cx="362" cy="125" r="3.5" stroke="#111111" stroke-width="2" fill="#222222" />
  <circle id="slot.figure.right.eye2.circle" cx="378" cy="125" r="3.5" stroke="#111111" stroke-width="2" fill="#222222" />
  <line id="slot.figure.left.mouth.line" x1="173" y1="138" x2="187" y2="138" stroke="#C36A6A" stroke-width="2" />
  <line id="slot.figure.right.mouth.line" x1="363" y1="138" x2="377" y2="138" stroke="#C36A6A" stroke-width="2" />
  <text id="slot.left_name.text" x="165" y="90" max_width="422" fill="#111111" font-family="Noto Sans KR, sans-serif" font-size="20">은우</text>
  <text id="slot.right_name.text" x="355" y="90" max_width="422" fill="#111111" font-family="Noto Sans KR, sans-serif" font-size="20">도윤</text>
  <text id="slot.left_expr.text" x="130" y="220" max_width="422" fill="#111111" font-family="Noto Sans KR, sans-serif" font-size="25">24 × 42</text>
  <text id="slot.right_expr.text" x="325" y="220" max_width="422" fill="#111111" font-family="Noto Sans KR, sans-serif" font-size="25">19 × 78</text>
</svg>
